<svg width="91" height="29" viewBox="0 0 91 29" fill="none" xmlns="http://www.w3.org/2000/svg">
<path fill-rule="evenodd" clip-rule="evenodd" d="M7.50234 28.4186H9.59084V17.2613H7.50234V28.4186ZM15.1582 28.2513H17.0288V21.2117L24.9025 28.4186V17.4287H23.0371V24.348L15.1582 17.2613V28.2513ZM29.1728 25.5491C30.1909 26.3423 31.413 26.8008 32.7231 26.8008C33.9992 26.8008 34.8944 26.3615 34.8944 25.3914C34.8944 24.5458 34.3234 24.2146 33.3236 23.8442L31.705 23.2819C30.2127 22.752 29.0778 21.9779 29.0778 20.1989C29.0778 18.296 30.7958 17.2613 32.8503 17.2613C34.109 17.2613 35.2561 17.5778 36.1522 18.1382V20.0254C35.2204 19.3368 34.2005 18.8626 32.8904 18.8626C31.7625 18.8626 30.9196 19.2836 30.9196 20.1614C30.9196 20.9546 31.4487 21.2719 32.3805 21.5909L34.184 22.2237C35.9317 22.8383 36.7336 23.791 36.7336 25.3582C36.7336 27.3299 34.999 28.4186 32.7231 28.4186C31.2273 28.4186 29.9555 28.0002 29.1728 27.472V25.5491ZM41.6062 28.4186H43.6938V17.2613H41.6062V28.4186ZM53.4879 26.7302C55.8414 26.7302 57.0992 25.2205 57.0992 22.8374C57.0992 20.4368 55.8405 18.9323 53.4879 18.9323H51.1605V26.7302H53.4879ZM49.2603 17.2613H53.5576C56.8656 17.2613 59.0046 19.4405 59.0046 22.8374C59.0046 26.2369 56.8656 28.4186 53.5576 28.4186H49.2603V17.2613ZM69.4454 17.2613V18.9323H64.3924V21.617H68.9242V23.2689H64.3915V26.7302H69.4454V28.4186H62.4852V17.2613H69.4454ZM76.8563 22.3135H78.9283C80.1547 22.3135 80.8459 21.6406 80.8459 20.6059C80.8459 19.5713 80.1547 18.8975 78.9283 18.8975H76.8563V22.3144V22.3135ZM76.8563 23.8912V28.4186H75.0127V17.2613H78.9631C81.2155 17.2613 82.6729 18.4215 82.6729 20.6059C82.6729 22.4739 81.864 23.5469 80.1407 23.8224L84.0606 28.4186H81.9634L78.1682 23.8921H76.8572L76.8563 23.8912ZM6.77275 6.26966C7.5895 5.97068 8.22582 5.07373 8.22582 3.84033C8.22582 1.78495 6.77275 0.719771 4.44802 0.719771H0.542969V12.1935H4.81064C7.13537 12.1935 8.58843 11.0534 8.58843 8.9047C8.58843 7.6896 7.82572 6.62442 6.77275 6.26966ZM2.37695 5.54095V2.40208H4.43059C5.72065 2.40208 6.41014 2.8693 6.41014 3.95277C6.41014 5.03625 5.71978 5.54095 4.43059 5.54095H2.37695ZM2.37695 7.14829H4.77403C6.04666 7.14829 6.73614 7.78287 6.73614 8.82974C6.73614 9.85743 6.04579 10.512 4.7749 10.512H2.37782V7.14742L2.37695 7.14829ZM17.1089 12.38C19.7789 12.38 21.5771 10.7727 21.5771 7.63381V0.719771H19.6882V7.40892C19.6882 9.61423 18.7799 10.6428 17.1089 10.6428C15.438 10.6428 14.5306 9.61423 14.5306 7.40892V0.719771H12.6417V7.61463C12.6417 10.7727 14.4573 12.38 17.1089 12.38ZM26.0243 11.3706C26.8053 11.932 28.0771 12.38 29.5659 12.38C31.8366 12.38 33.5616 11.2207 33.5616 9.12872C33.5616 7.46558 32.7632 6.45619 31.019 5.80245L29.2216 5.12952C28.295 4.79393 27.7685 4.45747 27.7685 3.61631C27.7685 2.68189 28.6036 2.23385 29.7298 2.23385C31.0373 2.23385 32.0545 2.73767 32.9811 3.46726V1.46679C32.0911 0.869698 30.9466 0.533235 29.6932 0.533235C27.6413 0.533235 25.9337 1.63589 25.9337 3.65379C25.9337 5.54095 27.0599 6.36293 28.5487 6.92341L30.1656 7.52137C31.1645 7.91362 31.7276 8.26926 31.7276 9.1662C31.7276 10.1939 30.8377 10.6611 29.5659 10.6611C28.2584 10.6611 27.0416 10.1747 26.0243 9.33443V11.3706ZM40.3109 0.719771H38.4229V12.1926H40.3109V0.719771ZM45.6995 12.1787H47.5196V4.71461L55.1798 12.3565V0.702339H53.365V8.03914L45.6995 0.525391V12.1787ZM66.983 0.722387V2.44044H62.079V5.20187H66.4765V6.90074H62.079V10.4597H66.983V12.1961H60.2276V0.722387H66.983ZM71.3805 11.3628C72.1615 11.9241 73.4324 12.3722 74.9221 12.3722C77.1919 12.3722 78.9178 11.2137 78.9178 9.12087C78.9178 7.45774 78.1185 6.44922 76.3751 5.7946L74.5769 5.12255C73.6503 4.78609 73.1238 4.44962 73.1238 3.60847C73.1238 2.67404 73.9589 2.22601 75.0851 2.22601C76.3926 2.22601 77.4098 2.7307 78.3364 3.45941V1.45981C77.4464 0.861853 76.3019 0.525391 75.0485 0.525391C72.9966 0.525391 71.289 1.62805 71.289 3.64595C71.289 5.5331 72.4152 6.35508 73.904 6.91556L75.5209 7.51352C76.5198 7.90577 77.0829 8.26141 77.0829 9.15835C77.0829 10.186 76.1938 10.6533 74.9212 10.6533C73.6137 10.6533 72.3969 10.1677 71.3805 9.32658V11.3628ZM82.7871 11.3628C83.5681 11.9241 84.8399 12.3722 86.3287 12.3722C88.5994 12.3722 90.3244 11.2137 90.3244 9.12087C90.3244 7.45774 89.5251 6.44922 87.7817 5.7946L85.9835 5.12255C85.0578 4.78609 84.5304 4.44962 84.5304 3.60847C84.5304 2.67404 85.3664 2.22601 86.4917 2.22601C87.7992 2.22601 88.8173 2.7307 89.743 3.45941V1.45981C88.8539 0.861853 87.7094 0.525391 86.4559 0.525391C84.4032 0.525391 82.6965 1.62805 82.6965 3.64595C82.6965 5.5331 83.8226 6.35508 85.3115 6.91556L86.9284 7.51352C87.9273 7.90577 88.4904 8.26141 88.4904 9.15835C88.4904 10.186 87.6004 10.6533 86.3287 10.6533C85.0212 10.6533 83.8043 10.1677 82.7871 9.32658V11.3628Z" fill="#C4C4C4"/>
</svg>
