<?xml version="1.0" encoding="utf-8"?>
<!-- Generator: Adobe Illustrator 25.0.0, SVG Export Plug-In . SVG Version: 6.00 Build 0)  -->
<svg version="1.1" id="Layer_1" xmlns="http://www.w3.org/2000/svg" xmlns:xlink="http://www.w3.org/1999/xlink" x="0px" y="0px"
	 viewBox="0 0 150 25.7" style="enable-background:new 0 0 150 25.7;" xml:space="preserve">
<style type="text/css">
	.st0{fill:#7E83F2;}
</style>
<g>
	<path class="st0" d="M1.8,1.7v23.1h23.1V1.7H1.8z M11.2,17.1c0.1,0.1,0.3,0.3,0.5,0.4c0.1,0.1,0.3,0.2,0.4,0.2
		c2.7,1.3,4.6-1.5,4.6-1.5c-0.8,1.8-2.3,2.6-4.2,2.6c-3.1,0-5.9-2.1-5.9-6.1c0-3.9,2.8-6,5.8-6c2.5,0,4.4,1.4,4.4,3.1
		c0,0.6-0.4,1.3-1.4,1.3c-0.9,0-1.4-0.6-1.4-1.3c0-1.1-0.2-2.3-1.5-2.3c-1.7,0-2.6,2-2.6,4.8C9.9,14.4,10.3,16.1,11.2,17.1z
		 M19.1,18.9c-0.9,0-1.6-0.7-1.6-1.6c0-0.9,0.7-1.6,1.6-1.6c0.9,0,1.6,0.7,1.6,1.6C20.7,18.2,20,18.9,19.1,18.9z"/>
	<g>
		<g>
			<path class="st0" d="M86.4,14.9c-0.5,0-1,0.4-1,1c0,0.5,0.4,1,1,1c0.5,0,1-0.4,1-1C87.3,15.3,86.9,14.9,86.4,14.9z"/>
			<path class="st0" d="M51.6,9.5c-1.9,0-3.4,1.6-3.4,3.7s1.5,3.7,3.4,3.7c1.9,0,3.4-1.6,3.4-3.7S53.5,9.5,51.6,9.5z M51.6,16.3
				c-0.7,0-1.3-1.4-1.3-3.1s0.6-3.1,1.3-3.1c0.7,0,1.3,1.4,1.3,3.1S52.3,16.3,51.6,16.3z"/>
			<path class="st0" d="M36.5,10c0.8,0,0.9,0.7,0.9,1.4c0,0.4,0.3,0.8,0.8,0.8c0.6,0,0.9-0.4,0.9-0.8c0-1.1-1.2-1.9-2.7-1.9
				c-1.8,0-3.5,1.2-3.5,3.6c0,2.4,1.7,3.7,3.6,3.7c1.2,0,2-0.5,2.5-1.6c0,0-1.2,1.7-2.8,0.9c-0.1,0-0.2-0.1-0.3-0.1
				c-0.1-0.1-0.2-0.2-0.3-0.2c-0.5-0.6-0.8-1.6-0.8-2.8C34.9,11.2,35.4,10,36.5,10z"/>
			<path class="st0" d="M78.7,12.3c0-1.6-1.2-2.8-2.9-2.8c-1.7,0-3.4,1.2-3.4,3.6c0,2.4,1.6,3.7,3.5,3.7c1.1,0,2.1-0.5,2.6-1.6
				c0,0-1,1.6-2.7,1l0,0c-1-0.3-1.4-1.6-1.4-2.9h3.5C78.5,13.2,78.7,12.9,78.7,12.3z M74.4,12.7c0-1.7,0.5-2.7,1.4-2.7
				c0.9,0,1.2,1,1.2,2.7H74.4z"/>
			<path class="st0" d="M84.2,9.5c-1,0-1.8,0.8-2.2,2l-0.1,0.4v-0.4v-2l-0.1,0c-0.7,0.4-1.5,0.7-2.4,0.9c0.9,0,0.9,1.1,0.9,1.1v4.4
				c0,1-0.9,1-0.9,1c1.2,0,2.5,0,3.7,0c-0.1,0-0.9,0-0.9-1V12c0.1-0.3,0.4-1.3,1.1-1.3c0.6,0,0.8,0.6,1.4,0.6c0.4,0,0.8-0.3,0.8-0.8
				C85.5,9.9,85,9.5,84.2,9.5z"/>
			<path class="st0" d="M46.9,15.8v-3.9c0-2-1.1-2.5-2.1-2.5c-1.3,0-2.1,0.9-2.5,1.5l-0.1,0.2V3.8l-0.1,0.1
				c-0.7,0.4-1.6,0.7-2.5,0.9c0.6,0.2,0.8,0.6,0.8,0.9v0c0,0,0,0,0,0l0,0c0,0.1,0,0.2,0,0.2v9.9c0,0.8-0.6,0.9-0.8,1
				c0,0-0.1,0-0.1,0c1.2,0,2.4,0,3.6,0c-0.1,0-0.9,0-0.9-1v-4.1c0.1-0.5,0.6-1.3,1.5-1.3c0.7,0,1,0.5,1,1.6v3.9c0,1-0.9,1-0.9,1
				c1.2,0,2.4,0,3.7,0C46.8,16.8,46.9,15.8,46.9,15.8z"/>
			<path class="st0" d="M62.6,20.7L62.6,20.7C62.6,20.7,62.6,20.7,62.6,20.7L62.6,20.7c0-0.1,0-0.2,0-0.2v-3h0V11c0,0,0,0,0-0.1l0,0
				c0,0,0,0,0,0v0c0-0.2,0.2-0.6,0.6-0.7c-0.7-0.1-1.3-0.3-1.9-0.7l-0.1-0.1v0.8c-0.5-0.5-1.2-0.7-2-0.7c-1.9,0-3.4,1.6-3.4,3.7
				s1.5,3.7,3.4,3.7c0.6,0,1.1-0.2,1.6-0.4v6.2l0.1-0.1c0.7-0.4,1.6-0.7,2.4-0.9C62.8,21.4,62.6,21,62.6,20.7z M59.2,16.3
				c-0.7,0-1.3-1.4-1.3-3.1s0.6-3.1,1.3-3.1c0.7,0,1.3,1.4,1.3,3.1S59.9,16.3,59.2,16.3z"/>
			<path class="st0" d="M71.1,15.2L71.1,15.2c0-0.1,0-0.1,0-0.2V9.8c0-0.3-0.2-0.4-0.4-0.4l-2.3,0.1c0.9,0.1,0.8,0.9,0.8,0.9v3.9
				C69.1,15,68.5,16,67.6,16c-0.7,0-0.9-0.7-0.9-1.7V9.8c0-0.3-0.2-0.4-0.4-0.4L64,9.6c0.9,0.1,0.8,0.9,0.8,0.9v3.8
				c0,2,1.1,2.5,2.1,2.5c1.4,0,2.1-1.1,2.4-1.7v0.9v0.1v0.2l0,0c0,0.2,0.1,0.5,0.5,0.4c0.6-0.1,1.4-0.2,2.2-0.3
				C72,16.5,71.2,16.4,71.1,15.2z"/>
		</g>
		<g>
			<path class="st0" d="M89.6,13.2L89.6,13.2c0-2,1.6-3.7,3.6-3.7c1.3,0,2.1,0.6,2.8,1.3l-0.5,0.5c-0.6-0.6-1.3-1.2-2.3-1.2
				c-1.6,0-2.8,1.3-2.8,3v0c0,1.7,1.3,3,2.9,3c1,0,1.8-0.5,2.4-1.2l0.5,0.4c-0.7,0.8-1.6,1.4-2.9,1.4C91.1,16.8,89.6,15.2,89.6,13.2
				z"/>
			<path class="st0" d="M98.4,9.7h0.7v2c0.5-1.3,1.7-2.2,3.1-2.1v0.7h-0.1c-1.6,0-3,1.2-3,3.5v2.9h-0.7V9.7z"/>
			<path class="st0" d="M104.5,13.2L104.5,13.2c0-2.1,1.4-3.7,3.3-3.7c2,0,3.2,1.6,3.2,3.7c0,0.1,0,0.2,0,0.3h-5.8
				c0.1,1.7,1.4,2.8,2.8,2.8c1.1,0,1.8-0.5,2.4-1.1l0.5,0.4c-0.7,0.8-1.6,1.3-2.9,1.3C106.1,16.8,104.5,15.4,104.5,13.2z
				 M110.4,12.8c-0.1-1.4-0.9-2.7-2.5-2.7c-1.4,0-2.5,1.2-2.6,2.7L110.4,12.8z"/>
			<path class="st0" d="M113.5,14.6L113.5,14.6c0-1.5,1.3-2.3,3.1-2.3c1,0,1.7,0.1,2.3,0.3v-0.3c0-1.4-0.9-2.1-2.3-2.1
				c-0.9,0-1.6,0.2-2.2,0.6l-0.2-0.6c0.8-0.4,1.5-0.6,2.5-0.6c0.9,0,1.7,0.3,2.2,0.8c0.5,0.5,0.7,1.1,0.7,2v4.4h-0.7v-1.2
				c-0.5,0.7-1.3,1.3-2.7,1.3C114.9,16.8,113.5,16.1,113.5,14.6z M118.9,14v-0.8c-0.6-0.2-1.4-0.3-2.4-0.3c-1.5,0-2.3,0.7-2.3,1.6v0
				c0,1,1,1.6,2,1.6C117.6,16.2,118.9,15.3,118.9,14z"/>
			<path class="st0" d="M122.9,14.9v-4.6h-1V9.7h1V7.4h0.7v2.2h2.5v0.6h-2.5v4.5c0,1,0.6,1.4,1.4,1.4c0.3,0,0.6-0.1,1-0.2v0.6
				c-0.4,0.2-0.7,0.2-1.1,0.2C123.8,16.8,122.9,16.2,122.9,14.9z"/>
			<path class="st0" d="M128.4,6.9h0.8v0.9h-0.8V6.9z M128.5,9.7h0.7v7h-0.7V9.7z"/>
			<path class="st0" d="M131.6,9.7h0.8l2.7,6.3l2.7-6.3h0.8l-3.1,7.1h-0.6L131.6,9.7z"/>
			<path class="st0" d="M140.9,13.2L140.9,13.2c0-2.1,1.4-3.7,3.3-3.7c2,0,3.2,1.6,3.2,3.7c0,0.1,0,0.2,0,0.3h-5.8
				c0.1,1.7,1.4,2.8,2.8,2.8c1.1,0,1.8-0.5,2.4-1.1l0.5,0.4c-0.7,0.8-1.6,1.3-2.9,1.3C142.5,16.8,140.9,15.4,140.9,13.2z
				 M146.7,12.8c-0.1-1.4-0.9-2.7-2.5-2.7c-1.4,0-2.5,1.2-2.6,2.7L146.7,12.8z"/>
		</g>
	</g>
</g>
</svg>
