<?xml version="1.0" encoding="utf-8"?>
<!-- Generator: Adobe Illustrator 25.0.0, SVG Export Plug-In . SVG Version: 6.00 Build 0)  -->
<svg version="1.1" id="Layer_1" xmlns="http://www.w3.org/2000/svg" xmlns:xlink="http://www.w3.org/1999/xlink" x="0px" y="0px"
	 viewBox="0 0 150 150" style="enable-background:new 0 0 150 150;" xml:space="preserve">
<style type="text/css">
	.st0{clip-path:url(#SVGID_2_);}
	.st1{fill:#FFFFFF;}
</style>
<g>
	<defs>
		<circle id="SVGID_1_" cx="75" cy="75" r="75"/>
	</defs>
	<clipPath id="SVGID_2_">
		<use xlink:href="#SVGID_1_"  style="overflow:visible;"/>
	</clipPath>
	<g class="st0">
		<circle class="st1" cx="-13.3" cy="-20.1" r="0.8"/>
		<circle class="st1" cx="-4.5" cy="-20.1" r="0.8"/>
		<path class="st1" d="M5.1-20.1c0,0.4-0.3,0.8-0.8,0.8c-0.4,0-0.8-0.3-0.8-0.8s0.3-0.8,0.8-0.8C4.7-20.8,5.1-20.5,5.1-20.1z"/>
		<circle class="st1" cx="13.2" cy="-20.1" r="0.8"/>
		<circle class="st1" cx="22" cy="-20.1" r="0.8"/>
		<circle class="st1" cx="30.8" cy="-20.1" r="0.8"/>
		<circle class="st1" cx="39.7" cy="-20.1" r="0.8"/>
		<circle class="st1" cx="48.5" cy="-20.1" r="0.8"/>
		<circle class="st1" cx="57.3" cy="-20.1" r="0.8"/>
		<path class="st1" d="M66.9-20.1c0,0.4-0.3,0.8-0.8,0.8c-0.4,0-0.8-0.3-0.8-0.8s0.3-0.8,0.8-0.8C66.6-20.8,66.9-20.5,66.9-20.1z"/>
		<circle class="st1" cx="75" cy="-20.1" r="0.8"/>
		<circle class="st1" cx="83.8" cy="-20.1" r="0.8"/>
		<circle class="st1" cx="92.7" cy="-20.1" r="0.8"/>
		<circle class="st1" cx="101.5" cy="-20.1" r="0.8"/>
		<circle class="st1" cx="110.3" cy="-20.1" r="0.8"/>
		<circle class="st1" cx="119.2" cy="-20.1" r="0.8"/>
		<circle class="st1" cx="128" cy="-20.1" r="0.8"/>
		<circle class="st1" cx="136.8" cy="-20.1" r="0.8"/>
		<path class="st1" d="M146.4-20.1c0,0.4-0.3,0.8-0.8,0.8c-0.4,0-0.8-0.3-0.8-0.8s0.3-0.8,0.8-0.8C146.1-20.8,146.4-20.5,146.4-20.1
			z"/>
		<circle class="st1" cx="154.5" cy="-20.1" r="0.8"/>
		<circle class="st1" cx="163.3" cy="-20.1" r="0.8"/>
		<circle class="st1" cx="-13.3" cy="-11.4" r="0.8"/>
		<circle class="st1" cx="-4.5" cy="-11.4" r="0.8"/>
		<path class="st1" d="M5.1-11.4c0,0.4-0.3,0.8-0.8,0.8c-0.4,0-0.8-0.3-0.8-0.8c0-0.4,0.3-0.8,0.8-0.8C4.7-12.2,5.1-11.8,5.1-11.4z"
			/>
		<circle class="st1" cx="13.2" cy="-11.4" r="0.8"/>
		<circle class="st1" cx="22" cy="-11.4" r="0.8"/>
		<circle class="st1" cx="30.8" cy="-11.4" r="0.8"/>
		<circle class="st1" cx="39.7" cy="-11.4" r="0.8"/>
		<circle class="st1" cx="48.5" cy="-11.4" r="0.8"/>
		<circle class="st1" cx="57.3" cy="-11.4" r="0.8"/>
		<path class="st1" d="M66.9-11.4c0,0.4-0.3,0.8-0.8,0.8c-0.4,0-0.8-0.3-0.8-0.8c0-0.4,0.3-0.8,0.8-0.8
			C66.6-12.2,66.9-11.8,66.9-11.4z"/>
		<circle class="st1" cx="75" cy="-11.4" r="0.8"/>
		<circle class="st1" cx="83.8" cy="-11.4" r="0.8"/>
		<circle class="st1" cx="92.7" cy="-11.4" r="0.8"/>
		<circle class="st1" cx="101.5" cy="-11.4" r="0.8"/>
		<circle class="st1" cx="110.3" cy="-11.4" r="0.8"/>
		<circle class="st1" cx="119.2" cy="-11.4" r="0.8"/>
		<circle class="st1" cx="128" cy="-11.4" r="0.8"/>
		<circle class="st1" cx="136.8" cy="-11.4" r="0.8"/>
		<path class="st1" d="M146.4-11.4c0,0.4-0.3,0.8-0.8,0.8c-0.4,0-0.8-0.3-0.8-0.8c0-0.4,0.3-0.8,0.8-0.8
			C146.1-12.2,146.4-11.8,146.4-11.4z"/>
		<circle class="st1" cx="154.5" cy="-11.4" r="0.8"/>
		<circle class="st1" cx="163.3" cy="-11.4" r="0.8"/>
		<circle class="st1" cx="-13.3" cy="-2.8" r="0.8"/>
		<circle class="st1" cx="-4.5" cy="-2.8" r="0.8"/>
		<path class="st1" d="M5.1-2.8C5.1-2.4,4.7-2,4.3-2C3.9-2,3.6-2.4,3.6-2.8c0-0.4,0.3-0.8,0.8-0.8C4.7-3.5,5.1-3.2,5.1-2.8z"/>
		<circle class="st1" cx="13.2" cy="-2.8" r="0.8"/>
		<circle class="st1" cx="22" cy="-2.8" r="0.8"/>
		<circle class="st1" cx="30.8" cy="-2.8" r="0.8"/>
		<circle class="st1" cx="39.7" cy="-2.8" r="0.8"/>
		<circle class="st1" cx="48.5" cy="-2.8" r="0.8"/>
		<circle class="st1" cx="57.3" cy="-2.8" r="0.8"/>
		<path class="st1" d="M66.9-2.8c0,0.4-0.3,0.8-0.8,0.8c-0.4,0-0.8-0.3-0.8-0.8c0-0.4,0.3-0.8,0.8-0.8C66.6-3.5,66.9-3.2,66.9-2.8z"
			/>
		<circle class="st1" cx="75" cy="-2.8" r="0.8"/>
		<circle class="st1" cx="83.8" cy="-2.8" r="0.8"/>
		<circle class="st1" cx="92.7" cy="-2.8" r="0.8"/>
		<circle class="st1" cx="101.5" cy="-2.8" r="0.8"/>
		<circle class="st1" cx="110.3" cy="-2.8" r="0.8"/>
		<circle class="st1" cx="119.2" cy="-2.8" r="0.8"/>
		<circle class="st1" cx="128" cy="-2.8" r="0.8"/>
		<circle class="st1" cx="136.8" cy="-2.8" r="0.8"/>
		<path class="st1" d="M146.4-2.8c0,0.4-0.3,0.8-0.8,0.8c-0.4,0-0.8-0.3-0.8-0.8c0-0.4,0.3-0.8,0.8-0.8
			C146.1-3.5,146.4-3.2,146.4-2.8z"/>
		<circle class="st1" cx="154.5" cy="-2.8" r="0.8"/>
		<circle class="st1" cx="163.3" cy="-2.8" r="0.8"/>
		<circle class="st1" cx="-13.3" cy="5.9" r="0.8"/>
		<circle class="st1" cx="-4.5" cy="5.9" r="0.8"/>
		<path class="st1" d="M5.1,5.9c0,0.4-0.3,0.8-0.8,0.8c-0.4,0-0.8-0.3-0.8-0.8c0-0.4,0.3-0.8,0.8-0.8C4.7,5.1,5.1,5.4,5.1,5.9z"/>
		<circle class="st1" cx="13.2" cy="5.9" r="0.8"/>
		<circle class="st1" cx="22" cy="5.9" r="0.8"/>
		<circle class="st1" cx="30.8" cy="5.9" r="0.8"/>
		<circle class="st1" cx="39.7" cy="5.9" r="0.8"/>
		<circle class="st1" cx="48.5" cy="5.9" r="0.8"/>
		<circle class="st1" cx="57.3" cy="5.9" r="0.8"/>
		<path class="st1" d="M66.9,5.9c0,0.4-0.3,0.8-0.8,0.8c-0.4,0-0.8-0.3-0.8-0.8c0-0.4,0.3-0.8,0.8-0.8C66.6,5.1,66.9,5.4,66.9,5.9z"
			/>
		<circle class="st1" cx="75" cy="5.9" r="0.8"/>
		<circle class="st1" cx="83.8" cy="5.9" r="0.8"/>
		<circle class="st1" cx="92.7" cy="5.9" r="0.8"/>
		<circle class="st1" cx="101.5" cy="5.9" r="0.8"/>
		<circle class="st1" cx="110.3" cy="5.9" r="0.8"/>
		<circle class="st1" cx="119.2" cy="5.9" r="0.8"/>
		<circle class="st1" cx="128" cy="5.9" r="0.8"/>
		<circle class="st1" cx="136.8" cy="5.9" r="0.8"/>
		<path class="st1" d="M146.4,5.9c0,0.4-0.3,0.8-0.8,0.8c-0.4,0-0.8-0.3-0.8-0.8c0-0.4,0.3-0.8,0.8-0.8
			C146.1,5.1,146.4,5.4,146.4,5.9z"/>
		<circle class="st1" cx="154.5" cy="5.9" r="0.8"/>
		<circle class="st1" cx="163.3" cy="5.9" r="0.8"/>
		<circle class="st1" cx="-13.3" cy="14.5" r="0.8"/>
		<circle class="st1" cx="-4.5" cy="14.5" r="0.8"/>
		<path class="st1" d="M5.1,14.5c0,0.4-0.3,0.8-0.8,0.8c-0.4,0-0.8-0.3-0.8-0.8c0-0.4,0.3-0.8,0.8-0.8C4.7,13.7,5.1,14.1,5.1,14.5z"
			/>
		<circle class="st1" cx="13.2" cy="14.5" r="0.8"/>
		<circle class="st1" cx="22" cy="14.5" r="0.8"/>
		<circle class="st1" cx="30.8" cy="14.5" r="0.8"/>
		<circle class="st1" cx="39.7" cy="14.5" r="0.8"/>
		<circle class="st1" cx="48.5" cy="14.5" r="0.8"/>
		<circle class="st1" cx="57.3" cy="14.5" r="0.8"/>
		<path class="st1" d="M66.9,14.5c0,0.4-0.3,0.8-0.8,0.8c-0.4,0-0.8-0.3-0.8-0.8c0-0.4,0.3-0.8,0.8-0.8
			C66.6,13.7,66.9,14.1,66.9,14.5z"/>
		<circle class="st1" cx="75" cy="14.5" r="0.8"/>
		<circle class="st1" cx="83.8" cy="14.5" r="0.8"/>
		<circle class="st1" cx="92.7" cy="14.5" r="0.8"/>
		<circle class="st1" cx="101.5" cy="14.5" r="0.8"/>
		<circle class="st1" cx="110.3" cy="14.5" r="0.8"/>
		<circle class="st1" cx="119.2" cy="14.5" r="0.8"/>
		<circle class="st1" cx="128" cy="14.5" r="0.8"/>
		<circle class="st1" cx="136.8" cy="14.5" r="0.8"/>
		<path class="st1" d="M146.4,14.5c0,0.4-0.3,0.8-0.8,0.8c-0.4,0-0.8-0.3-0.8-0.8c0-0.4,0.3-0.8,0.8-0.8
			C146.1,13.7,146.4,14.1,146.4,14.5z"/>
		<circle class="st1" cx="154.5" cy="14.5" r="0.8"/>
		<circle class="st1" cx="163.3" cy="14.5" r="0.8"/>
		<circle class="st1" cx="-13.3" cy="23.1" r="0.8"/>
		<circle class="st1" cx="-4.5" cy="23.1" r="0.8"/>
		<path class="st1" d="M5.1,23.1c0,0.4-0.3,0.8-0.8,0.8c-0.4,0-0.8-0.3-0.8-0.8c0-0.4,0.3-0.8,0.8-0.8C4.7,22.4,5.1,22.7,5.1,23.1z"
			/>
		<circle class="st1" cx="13.2" cy="23.1" r="0.8"/>
		<circle class="st1" cx="22" cy="23.1" r="0.8"/>
		<circle class="st1" cx="30.8" cy="23.1" r="0.8"/>
		<circle class="st1" cx="39.7" cy="23.1" r="0.8"/>
		<circle class="st1" cx="48.5" cy="23.1" r="0.8"/>
		<circle class="st1" cx="57.3" cy="23.1" r="0.8"/>
		<path class="st1" d="M66.9,23.1c0,0.4-0.3,0.8-0.8,0.8c-0.4,0-0.8-0.3-0.8-0.8c0-0.4,0.3-0.8,0.8-0.8
			C66.6,22.4,66.9,22.7,66.9,23.1z"/>
		<circle class="st1" cx="75" cy="23.1" r="0.8"/>
		<circle class="st1" cx="83.8" cy="23.1" r="0.8"/>
		<circle class="st1" cx="92.7" cy="23.1" r="0.8"/>
		<circle class="st1" cx="101.5" cy="23.1" r="0.8"/>
		<circle class="st1" cx="110.3" cy="23.1" r="0.8"/>
		<circle class="st1" cx="119.2" cy="23.1" r="0.8"/>
		<circle class="st1" cx="128" cy="23.1" r="0.8"/>
		<circle class="st1" cx="136.8" cy="23.1" r="0.8"/>
		<path class="st1" d="M146.4,23.1c0,0.4-0.3,0.8-0.8,0.8c-0.4,0-0.8-0.3-0.8-0.8c0-0.4,0.3-0.8,0.8-0.8
			C146.1,22.4,146.4,22.7,146.4,23.1z"/>
		<circle class="st1" cx="154.5" cy="23.1" r="0.8"/>
		<circle class="st1" cx="163.3" cy="23.1" r="0.8"/>
		<circle class="st1" cx="-13.3" cy="31.8" r="0.8"/>
		<circle class="st1" cx="-4.5" cy="31.8" r="0.8"/>
		<path class="st1" d="M5.1,31.8c0,0.4-0.3,0.8-0.8,0.8c-0.4,0-0.8-0.3-0.8-0.8c0-0.4,0.3-0.8,0.8-0.8C4.7,31,5.1,31.4,5.1,31.8z"/>
		<circle class="st1" cx="13.2" cy="31.8" r="0.8"/>
		<circle class="st1" cx="22" cy="31.8" r="0.8"/>
		<circle class="st1" cx="30.8" cy="31.8" r="0.8"/>
		<circle class="st1" cx="39.7" cy="31.8" r="0.8"/>
		<circle class="st1" cx="48.5" cy="31.8" r="0.8"/>
		<circle class="st1" cx="57.3" cy="31.8" r="0.8"/>
		<path class="st1" d="M66.9,31.8c0,0.4-0.3,0.8-0.8,0.8c-0.4,0-0.8-0.3-0.8-0.8c0-0.4,0.3-0.8,0.8-0.8C66.6,31,66.9,31.4,66.9,31.8
			z"/>
		<circle class="st1" cx="75" cy="31.8" r="0.8"/>
		<circle class="st1" cx="83.8" cy="31.8" r="0.8"/>
		<circle class="st1" cx="92.7" cy="31.8" r="0.8"/>
		<circle class="st1" cx="101.5" cy="31.8" r="0.8"/>
		<circle class="st1" cx="110.3" cy="31.8" r="0.8"/>
		<circle class="st1" cx="119.2" cy="31.8" r="0.8"/>
		<circle class="st1" cx="128" cy="31.8" r="0.8"/>
		<circle class="st1" cx="136.8" cy="31.8" r="0.8"/>
		<path class="st1" d="M146.4,31.8c0,0.4-0.3,0.8-0.8,0.8c-0.4,0-0.8-0.3-0.8-0.8c0-0.4,0.3-0.8,0.8-0.8
			C146.1,31,146.4,31.4,146.4,31.8z"/>
		<circle class="st1" cx="154.5" cy="31.8" r="0.8"/>
		<circle class="st1" cx="163.3" cy="31.8" r="0.8"/>
		<circle class="st1" cx="-13.3" cy="40.4" r="0.8"/>
		<circle class="st1" cx="-4.5" cy="40.4" r="0.8"/>
		<path class="st1" d="M5.1,40.4c0,0.4-0.3,0.8-0.8,0.8c-0.4,0-0.8-0.3-0.8-0.8c0-0.4,0.3-0.8,0.8-0.8C4.7,39.7,5.1,40,5.1,40.4z"/>
		<circle class="st1" cx="13.2" cy="40.4" r="0.8"/>
		<circle class="st1" cx="22" cy="40.4" r="0.8"/>
		<circle class="st1" cx="30.8" cy="40.4" r="0.8"/>
		<circle class="st1" cx="39.7" cy="40.4" r="0.8"/>
		<circle class="st1" cx="48.5" cy="40.4" r="0.8"/>
		<circle class="st1" cx="57.3" cy="40.4" r="0.8"/>
		<path class="st1" d="M66.9,40.4c0,0.4-0.3,0.8-0.8,0.8c-0.4,0-0.8-0.3-0.8-0.8c0-0.4,0.3-0.8,0.8-0.8C66.6,39.7,66.9,40,66.9,40.4
			z"/>
		<circle class="st1" cx="75" cy="40.4" r="0.8"/>
		<circle class="st1" cx="83.8" cy="40.4" r="0.8"/>
		<circle class="st1" cx="92.7" cy="40.4" r="0.8"/>
		<circle class="st1" cx="101.5" cy="40.4" r="0.8"/>
		<circle class="st1" cx="110.3" cy="40.4" r="0.8"/>
		<circle class="st1" cx="119.2" cy="40.4" r="0.8"/>
		<circle class="st1" cx="128" cy="40.4" r="0.8"/>
		<circle class="st1" cx="136.8" cy="40.4" r="0.8"/>
		<path class="st1" d="M146.4,40.4c0,0.4-0.3,0.8-0.8,0.8c-0.4,0-0.8-0.3-0.8-0.8c0-0.4,0.3-0.8,0.8-0.8
			C146.1,39.7,146.4,40,146.4,40.4z"/>
		<circle class="st1" cx="154.5" cy="40.4" r="0.8"/>
		<circle class="st1" cx="163.3" cy="40.4" r="0.8"/>
		<circle class="st1" cx="-13.3" cy="49.1" r="0.8"/>
		<circle class="st1" cx="-4.5" cy="49.1" r="0.8"/>
		<path class="st1" d="M5.1,49.1c0,0.4-0.3,0.8-0.8,0.8c-0.4,0-0.8-0.3-0.8-0.8c0-0.4,0.3-0.8,0.8-0.8C4.7,48.3,5.1,48.6,5.1,49.1z"
			/>
		<circle class="st1" cx="13.2" cy="49.1" r="0.8"/>
		<circle class="st1" cx="22" cy="49.1" r="0.8"/>
		<circle class="st1" cx="30.8" cy="49.1" r="0.8"/>
		<circle class="st1" cx="39.7" cy="49.1" r="0.8"/>
		<circle class="st1" cx="48.5" cy="49.1" r="0.8"/>
		<circle class="st1" cx="57.3" cy="49.1" r="0.8"/>
		<path class="st1" d="M66.9,49.1c0,0.4-0.3,0.8-0.8,0.8c-0.4,0-0.8-0.3-0.8-0.8c0-0.4,0.3-0.8,0.8-0.8
			C66.6,48.3,66.9,48.6,66.9,49.1z"/>
		<circle class="st1" cx="75" cy="49.1" r="0.8"/>
		<circle class="st1" cx="83.8" cy="49.1" r="0.8"/>
		<circle class="st1" cx="92.7" cy="49.1" r="0.8"/>
		<circle class="st1" cx="101.5" cy="49.1" r="0.8"/>
		<circle class="st1" cx="110.3" cy="49.1" r="0.8"/>
		<circle class="st1" cx="119.2" cy="49.1" r="0.8"/>
		<circle class="st1" cx="128" cy="49.1" r="0.8"/>
		<circle class="st1" cx="136.8" cy="49.1" r="0.8"/>
		<path class="st1" d="M146.4,49.1c0,0.4-0.3,0.8-0.8,0.8c-0.4,0-0.8-0.3-0.8-0.8c0-0.4,0.3-0.8,0.8-0.8
			C146.1,48.3,146.4,48.6,146.4,49.1z"/>
		
			<ellipse transform="matrix(0.1034 -0.9946 0.9946 0.1034 89.7301 197.6831)" class="st1" cx="154.5" cy="49.1" rx="0.8" ry="0.8"/>
		<circle class="st1" cx="163.3" cy="49.1" r="0.8"/>
		<circle class="st1" cx="-13.3" cy="57.7" r="0.8"/>
		<circle class="st1" cx="-4.5" cy="57.7" r="0.8"/>
		<path class="st1" d="M5.1,57.7c0,0.4-0.3,0.8-0.8,0.8c-0.4,0-0.8-0.3-0.8-0.8c0-0.4,0.3-0.8,0.8-0.8C4.7,56.9,5.1,57.3,5.1,57.7z"
			/>
		<circle class="st1" cx="13.2" cy="57.7" r="0.8"/>
		<circle class="st1" cx="22" cy="57.7" r="0.8"/>
		<circle class="st1" cx="30.8" cy="57.7" r="0.8"/>
		<circle class="st1" cx="39.7" cy="57.7" r="0.8"/>
		<circle class="st1" cx="48.5" cy="57.7" r="0.8"/>
		<circle class="st1" cx="57.3" cy="57.7" r="0.8"/>
		<path class="st1" d="M66.9,57.7c0,0.4-0.3,0.8-0.8,0.8c-0.4,0-0.8-0.3-0.8-0.8c0-0.4,0.3-0.8,0.8-0.8
			C66.6,56.9,66.9,57.3,66.9,57.7z"/>
		<circle class="st1" cx="75" cy="57.7" r="0.8"/>
		<circle class="st1" cx="83.8" cy="57.7" r="0.8"/>
		<circle class="st1" cx="92.7" cy="57.7" r="0.8"/>
		<circle class="st1" cx="101.5" cy="57.7" r="0.8"/>
		<circle class="st1" cx="110.3" cy="57.7" r="0.8"/>
		<circle class="st1" cx="119.2" cy="57.7" r="0.8"/>
		<circle class="st1" cx="128" cy="57.7" r="0.8"/>
		<circle class="st1" cx="136.8" cy="57.7" r="0.8"/>
		<path class="st1" d="M146.4,57.7c0,0.4-0.3,0.8-0.8,0.8c-0.4,0-0.8-0.3-0.8-0.8c0-0.4,0.3-0.8,0.8-0.8
			C146.1,56.9,146.4,57.3,146.4,57.7z"/>
		<circle class="st1" cx="154.5" cy="57.7" r="0.8"/>
		<circle class="st1" cx="163.3" cy="57.7" r="0.8"/>
		<circle class="st1" cx="-13.3" cy="66.4" r="0.8"/>
		<circle class="st1" cx="-4.5" cy="66.4" r="0.8"/>
		<path class="st1" d="M5.1,66.4c0,0.4-0.3,0.8-0.8,0.8c-0.4,0-0.8-0.3-0.8-0.8c0-0.4,0.3-0.8,0.8-0.8C4.7,65.6,5.1,65.9,5.1,66.4z"
			/>
		<circle class="st1" cx="13.2" cy="66.4" r="0.8"/>
		<circle class="st1" cx="22" cy="66.4" r="0.8"/>
		<circle class="st1" cx="30.8" cy="66.4" r="0.8"/>
		<circle class="st1" cx="39.7" cy="66.4" r="0.8"/>
		<circle class="st1" cx="48.5" cy="66.4" r="0.8"/>
		<circle class="st1" cx="57.3" cy="66.4" r="0.8"/>
		<path class="st1" d="M66.9,66.4c0,0.4-0.3,0.8-0.8,0.8c-0.4,0-0.8-0.3-0.8-0.8c0-0.4,0.3-0.8,0.8-0.8
			C66.6,65.6,66.9,65.9,66.9,66.4z"/>
		<circle class="st1" cx="75" cy="66.4" r="0.8"/>
		<circle class="st1" cx="83.8" cy="66.4" r="0.8"/>
		<circle class="st1" cx="92.7" cy="66.4" r="0.8"/>
		<circle class="st1" cx="101.5" cy="66.4" r="0.8"/>
		<circle class="st1" cx="110.3" cy="66.4" r="0.8"/>
		<circle class="st1" cx="119.2" cy="66.4" r="0.8"/>
		<circle class="st1" cx="128" cy="66.4" r="0.8"/>
		<circle class="st1" cx="136.8" cy="66.4" r="0.8"/>
		<path class="st1" d="M146.4,66.4c0,0.4-0.3,0.8-0.8,0.8c-0.4,0-0.8-0.3-0.8-0.8c0-0.4,0.3-0.8,0.8-0.8
			C146.1,65.6,146.4,65.9,146.4,66.4z"/>
		<circle class="st1" cx="154.5" cy="66.4" r="0.8"/>
		<circle class="st1" cx="163.3" cy="66.4" r="0.8"/>
		<circle class="st1" cx="-13.3" cy="75" r="0.8"/>
		<circle class="st1" cx="-4.5" cy="75" r="0.8"/>
		<path class="st1" d="M5.1,75c0,0.4-0.3,0.8-0.8,0.8c-0.4,0-0.8-0.3-0.8-0.8c0-0.4,0.3-0.8,0.8-0.8C4.7,74.2,5.1,74.6,5.1,75z"/>
		<circle class="st1" cx="13.2" cy="75" r="0.8"/>
		<circle class="st1" cx="22" cy="75" r="0.8"/>
		<circle class="st1" cx="30.8" cy="75" r="0.8"/>
		<circle class="st1" cx="39.7" cy="75" r="0.8"/>
		<circle class="st1" cx="48.5" cy="75" r="0.8"/>
		<circle class="st1" cx="57.3" cy="75" r="0.8"/>
		<path class="st1" d="M66.9,75c0,0.4-0.3,0.8-0.8,0.8c-0.4,0-0.8-0.3-0.8-0.8c0-0.4,0.3-0.8,0.8-0.8C66.6,74.2,66.9,74.6,66.9,75z"
			/>
		<circle class="st1" cx="75" cy="75" r="0.8"/>
		<circle class="st1" cx="83.8" cy="75" r="0.8"/>
		<circle class="st1" cx="92.7" cy="75" r="0.8"/>
		<circle class="st1" cx="101.5" cy="75" r="0.8"/>
		<circle class="st1" cx="110.3" cy="75" r="0.8"/>
		<circle class="st1" cx="119.2" cy="75" r="0.8"/>
		<circle class="st1" cx="128" cy="75" r="0.8"/>
		<circle class="st1" cx="136.8" cy="75" r="0.8"/>
		<path class="st1" d="M146.4,75c0,0.4-0.3,0.8-0.8,0.8c-0.4,0-0.8-0.3-0.8-0.8c0-0.4,0.3-0.8,0.8-0.8
			C146.1,74.2,146.4,74.6,146.4,75z"/>
		<circle class="st1" cx="154.5" cy="75" r="0.8"/>
		<circle class="st1" cx="163.3" cy="75" r="0.8"/>
		<circle class="st1" cx="-13.3" cy="83.6" r="0.8"/>
		<circle class="st1" cx="-4.5" cy="83.6" r="0.8"/>
		<path class="st1" d="M5.1,83.6c0,0.4-0.3,0.8-0.8,0.8c-0.4,0-0.8-0.3-0.8-0.8c0-0.4,0.3-0.8,0.8-0.8C4.7,82.9,5.1,83.2,5.1,83.6z"
			/>
		<circle class="st1" cx="13.2" cy="83.6" r="0.8"/>
		<circle class="st1" cx="22" cy="83.6" r="0.8"/>
		<circle class="st1" cx="30.8" cy="83.6" r="0.8"/>
		<circle class="st1" cx="39.7" cy="83.6" r="0.8"/>
		<circle class="st1" cx="48.5" cy="83.6" r="0.8"/>
		<circle class="st1" cx="57.3" cy="83.6" r="0.8"/>
		<path class="st1" d="M66.9,83.6c0,0.4-0.3,0.8-0.8,0.8c-0.4,0-0.8-0.3-0.8-0.8c0-0.4,0.3-0.8,0.8-0.8
			C66.6,82.9,66.9,83.2,66.9,83.6z"/>
		<circle class="st1" cx="75" cy="83.6" r="0.8"/>
		<circle class="st1" cx="83.8" cy="83.6" r="0.8"/>
		<circle class="st1" cx="92.7" cy="83.6" r="0.8"/>
		<circle class="st1" cx="101.5" cy="83.6" r="0.8"/>
		<circle class="st1" cx="110.3" cy="83.6" r="0.8"/>
		<circle class="st1" cx="119.2" cy="83.6" r="0.8"/>
		<circle class="st1" cx="128" cy="83.6" r="0.8"/>
		<circle class="st1" cx="136.8" cy="83.6" r="0.8"/>
		<path class="st1" d="M146.4,83.6c0,0.4-0.3,0.8-0.8,0.8c-0.4,0-0.8-0.3-0.8-0.8c0-0.4,0.3-0.8,0.8-0.8
			C146.1,82.9,146.4,83.2,146.4,83.6z"/>
		<circle class="st1" cx="154.5" cy="83.6" r="0.8"/>
		<circle class="st1" cx="163.3" cy="83.6" r="0.8"/>
		<circle class="st1" cx="-13.3" cy="92.3" r="0.8"/>
		<circle class="st1" cx="-4.5" cy="92.3" r="0.8"/>
		<path class="st1" d="M5.1,92.3c0,0.4-0.3,0.8-0.8,0.8c-0.4,0-0.8-0.3-0.8-0.8c0-0.4,0.3-0.8,0.8-0.8C4.7,91.5,5.1,91.9,5.1,92.3z"
			/>
		<circle class="st1" cx="13.2" cy="92.3" r="0.8"/>
		<circle class="st1" cx="22" cy="92.3" r="0.8"/>
		<circle class="st1" cx="30.8" cy="92.3" r="0.8"/>
		<circle class="st1" cx="39.7" cy="92.3" r="0.8"/>
		<circle class="st1" cx="48.5" cy="92.3" r="0.8"/>
		<circle class="st1" cx="57.3" cy="92.3" r="0.8"/>
		<path class="st1" d="M66.9,92.3c0,0.4-0.3,0.8-0.8,0.8c-0.4,0-0.8-0.3-0.8-0.8c0-0.4,0.3-0.8,0.8-0.8
			C66.6,91.5,66.9,91.9,66.9,92.3z"/>
		<circle class="st1" cx="75" cy="92.3" r="0.8"/>
		<circle class="st1" cx="83.8" cy="92.3" r="0.8"/>
		<circle class="st1" cx="92.7" cy="92.3" r="0.8"/>
		<circle class="st1" cx="101.5" cy="92.3" r="0.8"/>
		<circle class="st1" cx="110.3" cy="92.3" r="0.8"/>
		<circle class="st1" cx="119.2" cy="92.3" r="0.8"/>
		<circle class="st1" cx="128" cy="92.3" r="0.8"/>
		<circle class="st1" cx="136.8" cy="92.3" r="0.8"/>
		<path class="st1" d="M146.4,92.3c0,0.4-0.3,0.8-0.8,0.8c-0.4,0-0.8-0.3-0.8-0.8c0-0.4,0.3-0.8,0.8-0.8
			C146.1,91.5,146.4,91.9,146.4,92.3z"/>
		<circle class="st1" cx="154.5" cy="92.3" r="0.8"/>
		<circle class="st1" cx="163.3" cy="92.3" r="0.8"/>
		<circle class="st1" cx="-13.3" cy="100.9" r="0.8"/>
		<circle class="st1" cx="-4.5" cy="100.9" r="0.8"/>
		<path class="st1" d="M5.1,100.9c0,0.4-0.3,0.8-0.8,0.8c-0.4,0-0.8-0.3-0.8-0.8s0.3-0.8,0.8-0.8C4.7,100.2,5.1,100.5,5.1,100.9z"/>
		<circle class="st1" cx="13.2" cy="100.9" r="0.8"/>
		<circle class="st1" cx="22" cy="100.9" r="0.8"/>
		<circle class="st1" cx="30.8" cy="100.9" r="0.8"/>
		<circle class="st1" cx="39.7" cy="100.9" r="0.8"/>
		<circle class="st1" cx="48.5" cy="100.9" r="0.8"/>
		<circle class="st1" cx="57.3" cy="100.9" r="0.8"/>
		<path class="st1" d="M66.9,100.9c0,0.4-0.3,0.8-0.8,0.8c-0.4,0-0.8-0.3-0.8-0.8s0.3-0.8,0.8-0.8C66.6,100.2,66.9,100.5,66.9,100.9
			z"/>
		<circle class="st1" cx="75" cy="100.9" r="0.8"/>
		<circle class="st1" cx="83.8" cy="100.9" r="0.8"/>
		<circle class="st1" cx="92.7" cy="100.9" r="0.8"/>
		<circle class="st1" cx="101.5" cy="100.9" r="0.8"/>
		<circle class="st1" cx="110.3" cy="100.9" r="0.8"/>
		<circle class="st1" cx="119.2" cy="100.9" r="0.8"/>
		<circle class="st1" cx="128" cy="100.9" r="0.8"/>
		<circle class="st1" cx="136.8" cy="100.9" r="0.8"/>
		<path class="st1" d="M146.4,100.9c0,0.4-0.3,0.8-0.8,0.8c-0.4,0-0.8-0.3-0.8-0.8s0.3-0.8,0.8-0.8
			C146.1,100.2,146.4,100.5,146.4,100.9z"/>
		<circle class="st1" cx="154.5" cy="100.9" r="0.8"/>
		<circle class="st1" cx="163.3" cy="100.9" r="0.8"/>
		<circle class="st1" cx="-13.3" cy="109.6" r="0.8"/>
		<circle class="st1" cx="-4.5" cy="109.6" r="0.8"/>
		<path class="st1" d="M5.1,109.6c0,0.4-0.3,0.8-0.8,0.8c-0.4,0-0.8-0.3-0.8-0.8c0-0.4,0.3-0.8,0.8-0.8
			C4.7,108.8,5.1,109.1,5.1,109.6z"/>
		<circle class="st1" cx="13.2" cy="109.6" r="0.8"/>
		<circle class="st1" cx="22" cy="109.6" r="0.8"/>
		<circle class="st1" cx="30.8" cy="109.6" r="0.8"/>
		<circle class="st1" cx="39.7" cy="109.6" r="0.8"/>
		<circle class="st1" cx="48.5" cy="109.6" r="0.8"/>
		<circle class="st1" cx="57.3" cy="109.6" r="0.8"/>
		<path class="st1" d="M66.9,109.6c0,0.4-0.3,0.8-0.8,0.8c-0.4,0-0.8-0.3-0.8-0.8c0-0.4,0.3-0.8,0.8-0.8
			C66.6,108.8,66.9,109.1,66.9,109.6z"/>
		<circle class="st1" cx="75" cy="109.6" r="0.8"/>
		<circle class="st1" cx="83.8" cy="109.6" r="0.8"/>
		<circle class="st1" cx="92.7" cy="109.6" r="0.8"/>
		<circle class="st1" cx="101.5" cy="109.6" r="0.8"/>
		<circle class="st1" cx="110.3" cy="109.6" r="0.8"/>
		<circle class="st1" cx="119.2" cy="109.6" r="0.8"/>
		<circle class="st1" cx="128" cy="109.6" r="0.8"/>
		<circle class="st1" cx="136.8" cy="109.6" r="0.8"/>
		<path class="st1" d="M146.4,109.6c0,0.4-0.3,0.8-0.8,0.8c-0.4,0-0.8-0.3-0.8-0.8c0-0.4,0.3-0.8,0.8-0.8
			C146.1,108.8,146.4,109.1,146.4,109.6z"/>
		<circle class="st1" cx="154.5" cy="109.6" r="0.8"/>
		<circle class="st1" cx="163.3" cy="109.6" r="0.8"/>
		<circle class="st1" cx="-13.3" cy="118.2" r="0.8"/>
		<circle class="st1" cx="-4.5" cy="118.2" r="0.8"/>
		<path class="st1" d="M5.1,118.2c0,0.4-0.3,0.8-0.8,0.8c-0.4,0-0.8-0.3-0.8-0.8c0-0.4,0.3-0.8,0.8-0.8
			C4.7,117.4,5.1,117.8,5.1,118.2z"/>
		<circle class="st1" cx="13.2" cy="118.2" r="0.8"/>
		<circle class="st1" cx="22" cy="118.2" r="0.8"/>
		<circle class="st1" cx="30.8" cy="118.2" r="0.8"/>
		<circle class="st1" cx="39.7" cy="118.2" r="0.8"/>
		<circle class="st1" cx="48.5" cy="118.2" r="0.8"/>
		<circle class="st1" cx="57.3" cy="118.2" r="0.8"/>
		<path class="st1" d="M66.9,118.2c0,0.4-0.3,0.8-0.8,0.8c-0.4,0-0.8-0.3-0.8-0.8c0-0.4,0.3-0.8,0.8-0.8
			C66.6,117.4,66.9,117.8,66.9,118.2z"/>
		<circle class="st1" cx="75" cy="118.2" r="0.8"/>
		<circle class="st1" cx="83.8" cy="118.2" r="0.8"/>
		<circle class="st1" cx="92.7" cy="118.2" r="0.8"/>
		<circle class="st1" cx="101.5" cy="118.2" r="0.8"/>
		<circle class="st1" cx="110.3" cy="118.2" r="0.8"/>
		<circle class="st1" cx="119.2" cy="118.2" r="0.8"/>
		<circle class="st1" cx="128" cy="118.2" r="0.8"/>
		<circle class="st1" cx="136.8" cy="118.2" r="0.8"/>
		<path class="st1" d="M146.4,118.2c0,0.4-0.3,0.8-0.8,0.8c-0.4,0-0.8-0.3-0.8-0.8c0-0.4,0.3-0.8,0.8-0.8
			C146.1,117.4,146.4,117.8,146.4,118.2z"/>
		<circle class="st1" cx="154.5" cy="118.2" r="0.8"/>
		<circle class="st1" cx="163.3" cy="118.2" r="0.8"/>
		<circle class="st1" cx="-13.3" cy="126.9" r="0.8"/>
		<circle class="st1" cx="-4.5" cy="126.9" r="0.8"/>
		<path class="st1" d="M5.1,126.9c0,0.4-0.3,0.8-0.8,0.8c-0.4,0-0.8-0.3-0.8-0.8c0-0.4,0.3-0.8,0.8-0.8
			C4.7,126.1,5.1,126.4,5.1,126.9z"/>
		<circle class="st1" cx="13.2" cy="126.9" r="0.8"/>
		<circle class="st1" cx="22" cy="126.9" r="0.8"/>
		<circle class="st1" cx="30.8" cy="126.9" r="0.8"/>
		<circle class="st1" cx="39.7" cy="126.9" r="0.8"/>
		<circle class="st1" cx="48.5" cy="126.9" r="0.8"/>
		<circle class="st1" cx="57.3" cy="126.9" r="0.8"/>
		<path class="st1" d="M66.9,126.9c0,0.4-0.3,0.8-0.8,0.8c-0.4,0-0.8-0.3-0.8-0.8c0-0.4,0.3-0.8,0.8-0.8
			C66.6,126.1,66.9,126.4,66.9,126.9z"/>
		<circle class="st1" cx="75" cy="126.9" r="0.8"/>
		<circle class="st1" cx="83.8" cy="126.9" r="0.8"/>
		<circle class="st1" cx="92.7" cy="126.9" r="0.8"/>
		<circle class="st1" cx="101.5" cy="126.9" r="0.8"/>
		<circle class="st1" cx="110.3" cy="126.9" r="0.8"/>
		<circle class="st1" cx="119.2" cy="126.9" r="0.8"/>
		<circle class="st1" cx="128" cy="126.9" r="0.8"/>
		<circle class="st1" cx="136.8" cy="126.9" r="0.8"/>
		<path class="st1" d="M146.4,126.9c0,0.4-0.3,0.8-0.8,0.8c-0.4,0-0.8-0.3-0.8-0.8c0-0.4,0.3-0.8,0.8-0.8
			C146.1,126.1,146.4,126.4,146.4,126.9z"/>
		<circle class="st1" cx="154.5" cy="126.9" r="0.8"/>
		<circle class="st1" cx="163.3" cy="126.9" r="0.8"/>
		<circle class="st1" cx="-13.3" cy="135.5" r="0.8"/>
		<circle class="st1" cx="-4.5" cy="135.5" r="0.8"/>
		<path class="st1" d="M5.1,135.5c0,0.4-0.3,0.8-0.8,0.8c-0.4,0-0.8-0.3-0.8-0.8c0-0.4,0.3-0.8,0.8-0.8
			C4.7,134.7,5.1,135.1,5.1,135.5z"/>
		<circle class="st1" cx="13.2" cy="135.5" r="0.8"/>
		<circle class="st1" cx="22" cy="135.5" r="0.8"/>
		<circle class="st1" cx="30.8" cy="135.5" r="0.8"/>
		<circle class="st1" cx="39.7" cy="135.5" r="0.8"/>
		<circle class="st1" cx="48.5" cy="135.5" r="0.8"/>
		<circle class="st1" cx="57.3" cy="135.5" r="0.8"/>
		<path class="st1" d="M66.9,135.5c0,0.4-0.3,0.8-0.8,0.8c-0.4,0-0.8-0.3-0.8-0.8c0-0.4,0.3-0.8,0.8-0.8
			C66.6,134.7,66.9,135.1,66.9,135.5z"/>
		<circle class="st1" cx="75" cy="135.5" r="0.8"/>
		<circle class="st1" cx="83.8" cy="135.5" r="0.8"/>
		<circle class="st1" cx="92.7" cy="135.5" r="0.8"/>
		<circle class="st1" cx="101.5" cy="135.5" r="0.8"/>
		<circle class="st1" cx="110.3" cy="135.5" r="0.8"/>
		<circle class="st1" cx="119.2" cy="135.5" r="0.8"/>
		<circle class="st1" cx="128" cy="135.5" r="0.8"/>
		<circle class="st1" cx="136.8" cy="135.5" r="0.8"/>
		<path class="st1" d="M146.4,135.5c0,0.4-0.3,0.8-0.8,0.8c-0.4,0-0.8-0.3-0.8-0.8c0-0.4,0.3-0.8,0.8-0.8
			C146.1,134.7,146.4,135.1,146.4,135.5z"/>
		<circle class="st1" cx="154.5" cy="135.5" r="0.8"/>
		<circle class="st1" cx="163.3" cy="135.5" r="0.8"/>
		<circle class="st1" cx="-13.3" cy="144.1" r="0.8"/>
		<circle class="st1" cx="-4.5" cy="144.1" r="0.8"/>
		<path class="st1" d="M5.1,144.1c0,0.4-0.3,0.8-0.8,0.8c-0.4,0-0.8-0.3-0.8-0.8c0-0.4,0.3-0.8,0.8-0.8
			C4.7,143.4,5.1,143.7,5.1,144.1z"/>
		<circle class="st1" cx="13.2" cy="144.1" r="0.8"/>
		<circle class="st1" cx="22" cy="144.1" r="0.8"/>
		<circle class="st1" cx="30.8" cy="144.1" r="0.8"/>
		<circle class="st1" cx="39.7" cy="144.1" r="0.8"/>
		<circle class="st1" cx="48.5" cy="144.1" r="0.8"/>
		<circle class="st1" cx="57.3" cy="144.1" r="0.8"/>
		<path class="st1" d="M66.9,144.1c0,0.4-0.3,0.8-0.8,0.8c-0.4,0-0.8-0.3-0.8-0.8c0-0.4,0.3-0.8,0.8-0.8
			C66.6,143.4,66.9,143.7,66.9,144.1z"/>
		<circle class="st1" cx="75" cy="144.1" r="0.8"/>
		<circle class="st1" cx="83.8" cy="144.1" r="0.8"/>
		<circle class="st1" cx="92.7" cy="144.1" r="0.8"/>
		<circle class="st1" cx="101.5" cy="144.1" r="0.8"/>
		<circle class="st1" cx="110.3" cy="144.1" r="0.8"/>
		<circle class="st1" cx="119.2" cy="144.1" r="0.8"/>
		<circle class="st1" cx="128" cy="144.1" r="0.8"/>
		<circle class="st1" cx="136.8" cy="144.1" r="0.8"/>
		<path class="st1" d="M146.4,144.1c0,0.4-0.3,0.8-0.8,0.8c-0.4,0-0.8-0.3-0.8-0.8c0-0.4,0.3-0.8,0.8-0.8
			C146.1,143.4,146.4,143.7,146.4,144.1z"/>
		<circle class="st1" cx="154.5" cy="144.1" r="0.8"/>
		<circle class="st1" cx="163.3" cy="144.1" r="0.8"/>
		<circle class="st1" cx="-13.3" cy="152.8" r="0.8"/>
		<circle class="st1" cx="-4.5" cy="152.8" r="0.8"/>
		<path class="st1" d="M5.1,152.8c0,0.4-0.3,0.8-0.8,0.8c-0.4,0-0.8-0.3-0.8-0.8c0-0.4,0.3-0.8,0.8-0.8C4.7,152,5.1,152.4,5.1,152.8
			z"/>
		<circle class="st1" cx="13.2" cy="152.8" r="0.8"/>
		<circle class="st1" cx="22" cy="152.8" r="0.8"/>
		<circle class="st1" cx="30.8" cy="152.8" r="0.8"/>
		<circle class="st1" cx="39.7" cy="152.8" r="0.8"/>
		<circle class="st1" cx="48.5" cy="152.8" r="0.8"/>
		<circle class="st1" cx="57.3" cy="152.8" r="0.8"/>
		<path class="st1" d="M66.9,152.8c0,0.4-0.3,0.8-0.8,0.8c-0.4,0-0.8-0.3-0.8-0.8c0-0.4,0.3-0.8,0.8-0.8
			C66.6,152,66.9,152.4,66.9,152.8z"/>
		<circle class="st1" cx="75" cy="152.8" r="0.8"/>
		<circle class="st1" cx="83.8" cy="152.8" r="0.8"/>
		<circle class="st1" cx="92.7" cy="152.8" r="0.8"/>
		<circle class="st1" cx="101.5" cy="152.8" r="0.8"/>
		<circle class="st1" cx="110.3" cy="152.8" r="0.8"/>
		<circle class="st1" cx="119.2" cy="152.8" r="0.8"/>
		<circle class="st1" cx="128" cy="152.8" r="0.8"/>
		<circle class="st1" cx="136.8" cy="152.8" r="0.8"/>
		<path class="st1" d="M146.4,152.8c0,0.4-0.3,0.8-0.8,0.8c-0.4,0-0.8-0.3-0.8-0.8c0-0.4,0.3-0.8,0.8-0.8
			C146.1,152,146.4,152.4,146.4,152.8z"/>
		<circle class="st1" cx="154.5" cy="152.8" r="0.8"/>
		<circle class="st1" cx="163.3" cy="152.8" r="0.8"/>
		<path class="st1" d="M-12.6,161.4c0,0.4-0.3,0.8-0.8,0.8c-0.4,0-0.8-0.3-0.8-0.8c0-0.4,0.3-0.8,0.8-0.8
			C-12.9,160.7-12.6,161-12.6,161.4z"/>
		<path class="st1" d="M-3.7,161.4c0,0.4-0.3,0.8-0.8,0.8c-0.4,0-0.8-0.3-0.8-0.8c0-0.4,0.3-0.8,0.8-0.8
			C-4.1,160.7-3.7,161-3.7,161.4z"/>
		<path class="st1" d="M5.1,161.4c0,0.4-0.3,0.8-0.8,0.8c-0.4,0-0.8-0.3-0.8-0.8c0-0.4,0.3-0.8,0.8-0.8C4.7,160.7,5.1,161,5.1,161.4
			z"/>
		<path class="st1" d="M13.9,161.4c0,0.4-0.3,0.8-0.8,0.8c-0.4,0-0.8-0.3-0.8-0.8c0-0.4,0.3-0.8,0.8-0.8
			C13.6,160.7,13.9,161,13.9,161.4z"/>
		<path class="st1" d="M22.8,161.4c0,0.4-0.3,0.8-0.8,0.8c-0.4,0-0.8-0.3-0.8-0.8c0-0.4,0.3-0.8,0.8-0.8
			C22.4,160.7,22.8,161,22.8,161.4z"/>
		<path class="st1" d="M31.6,161.4c0,0.4-0.3,0.8-0.8,0.8c-0.4,0-0.8-0.3-0.8-0.8c0-0.4,0.3-0.8,0.8-0.8
			C31.3,160.7,31.6,161,31.6,161.4z"/>
		<path class="st1" d="M40.4,161.4c0,0.4-0.3,0.8-0.8,0.8c-0.4,0-0.8-0.3-0.8-0.8c0-0.4,0.3-0.8,0.8-0.8
			C40.1,160.7,40.4,161,40.4,161.4z"/>
		<path class="st1" d="M49.3,161.4c0,0.4-0.3,0.8-0.8,0.8c-0.4,0-0.8-0.3-0.8-0.8c0-0.4,0.3-0.8,0.8-0.8
			C48.9,160.7,49.3,161,49.3,161.4z"/>
		<path class="st1" d="M58.1,161.4c0,0.4-0.3,0.8-0.8,0.8c-0.4,0-0.8-0.3-0.8-0.8c0-0.4,0.3-0.8,0.8-0.8
			C57.8,160.7,58.1,161,58.1,161.4z"/>
		<path class="st1" d="M66.9,161.4c0,0.4-0.3,0.8-0.8,0.8c-0.4,0-0.8-0.3-0.8-0.8c0-0.4,0.3-0.8,0.8-0.8
			C66.6,160.7,66.9,161,66.9,161.4z"/>
		<path class="st1" d="M75.8,161.4c0,0.4-0.3,0.8-0.8,0.8c-0.4,0-0.8-0.3-0.8-0.8c0-0.4,0.3-0.8,0.8-0.8
			C75.4,160.7,75.8,161,75.8,161.4z"/>
		<path class="st1" d="M84.6,161.4c0,0.4-0.3,0.8-0.8,0.8c-0.4,0-0.8-0.3-0.8-0.8c0-0.4,0.3-0.8,0.8-0.8
			C84.3,160.7,84.6,161,84.6,161.4z"/>
		<path class="st1" d="M93.4,161.4c0,0.4-0.3,0.8-0.8,0.8c-0.4,0-0.8-0.3-0.8-0.8c0-0.4,0.3-0.8,0.8-0.8
			C93.1,160.7,93.4,161,93.4,161.4z"/>
		<path class="st1" d="M102.3,161.4c0,0.4-0.3,0.8-0.8,0.8c-0.4,0-0.8-0.3-0.8-0.8c0-0.4,0.3-0.8,0.8-0.8
			C101.9,160.7,102.3,161,102.3,161.4z"/>
		<path class="st1" d="M111.1,161.4c0,0.4-0.3,0.8-0.8,0.8s-0.8-0.3-0.8-0.8c0-0.4,0.3-0.8,0.8-0.8S111.1,161,111.1,161.4z"/>
		<path class="st1" d="M119.9,161.4c0,0.4-0.3,0.8-0.8,0.8c-0.4,0-0.8-0.3-0.8-0.8c0-0.4,0.3-0.8,0.8-0.8
			C119.6,160.7,119.9,161,119.9,161.4z"/>
		<path class="st1" d="M128.8,161.4c0,0.4-0.3,0.8-0.8,0.8c-0.4,0-0.8-0.3-0.8-0.8c0-0.4,0.3-0.8,0.8-0.8
			C128.4,160.7,128.8,161,128.8,161.4z"/>
		<path class="st1" d="M137.6,161.4c0,0.4-0.3,0.8-0.8,0.8c-0.4,0-0.8-0.3-0.8-0.8c0-0.4,0.3-0.8,0.8-0.8
			C137.3,160.7,137.6,161,137.6,161.4z"/>
		<path class="st1" d="M146.4,161.4c0,0.4-0.3,0.8-0.8,0.8c-0.4,0-0.8-0.3-0.8-0.8c0-0.4,0.3-0.8,0.8-0.8
			C146.1,160.7,146.4,161,146.4,161.4z"/>
		<path class="st1" d="M155.3,161.4c0,0.4-0.3,0.8-0.8,0.8c-0.4,0-0.8-0.3-0.8-0.8c0-0.4,0.3-0.8,0.8-0.8
			C154.9,160.7,155.3,161,155.3,161.4z"/>
		<path class="st1" d="M164.1,161.4c0,0.4-0.3,0.8-0.8,0.8c-0.4,0-0.8-0.3-0.8-0.8c0-0.4,0.3-0.8,0.8-0.8
			C163.8,160.7,164.1,161,164.1,161.4z"/>
		<circle class="st1" cx="-13.3" cy="170.1" r="0.8"/>
		<circle class="st1" cx="-4.5" cy="170.1" r="0.8"/>
		<path class="st1" d="M5.1,170.1c0,0.4-0.3,0.8-0.8,0.8c-0.4,0-0.8-0.3-0.8-0.8c0-0.4,0.3-0.8,0.8-0.8
			C4.7,169.3,5.1,169.6,5.1,170.1z"/>
		<circle class="st1" cx="13.2" cy="170.1" r="0.8"/>
		<circle class="st1" cx="22" cy="170.1" r="0.8"/>
		<circle class="st1" cx="30.8" cy="170.1" r="0.8"/>
		<circle class="st1" cx="39.7" cy="170.1" r="0.8"/>
		<circle class="st1" cx="48.5" cy="170.1" r="0.8"/>
		<circle class="st1" cx="57.3" cy="170.1" r="0.8"/>
		<path class="st1" d="M66.9,170.1c0,0.4-0.3,0.8-0.8,0.8c-0.4,0-0.8-0.3-0.8-0.8c0-0.4,0.3-0.8,0.8-0.8
			C66.6,169.3,66.9,169.6,66.9,170.1z"/>
		<circle class="st1" cx="75" cy="170.1" r="0.8"/>
		<circle class="st1" cx="83.8" cy="170.1" r="0.8"/>
		<circle class="st1" cx="92.7" cy="170.1" r="0.8"/>
		<circle class="st1" cx="101.5" cy="170.1" r="0.8"/>
		<circle class="st1" cx="110.3" cy="170.1" r="0.8"/>
		<circle class="st1" cx="119.2" cy="170.1" r="0.8"/>
		<circle class="st1" cx="128" cy="170.1" r="0.8"/>
		<circle class="st1" cx="136.8" cy="170.1" r="0.8"/>
		<path class="st1" d="M146.4,170.1c0,0.4-0.3,0.8-0.8,0.8c-0.4,0-0.8-0.3-0.8-0.8c0-0.4,0.3-0.8,0.8-0.8
			C146.1,169.3,146.4,169.6,146.4,170.1z"/>
		<circle class="st1" cx="154.5" cy="170.1" r="0.8"/>
		<circle class="st1" cx="163.3" cy="170.1" r="0.8"/>
	</g>
</g>
</svg>
