<svg width="99" height="42" viewBox="0 0 99 42" fill="none" xmlns="http://www.w3.org/2000/svg">
<path d="M62.0331 11.2393C62.7955 10.7802 63.4055 10.3211 64.1679 9.86193C67.2176 8.48455 70.1148 9.09672 72.7071 11.2393C74.6894 12.9228 75.7568 15.0654 76.2143 17.514C76.9767 21.034 76.8242 24.707 75.4518 28.0739C74.6894 30.0635 73.4695 31.7469 71.6397 32.8182C68.7424 34.5017 65.8452 34.5017 62.948 32.5122C62.7955 32.5122 62.7955 32.3591 62.4905 32.2061C62.4905 32.3591 62.4905 32.5122 62.4905 32.6652C62.4905 34.9608 62.4905 37.2565 62.4905 39.3991C62.4905 39.7051 62.3381 39.8582 62.0331 39.8582C60.0508 40.3173 58.0684 40.6234 56.0861 41.0825C55.6286 41.2356 55.6287 41.2356 55.6287 40.6234C55.6287 33.2774 55.6287 25.7783 55.6287 18.4323C55.6287 15.5245 55.6287 12.6167 55.6287 9.70889C55.6287 9.24976 55.6286 9.24976 56.0861 9.24976C57.7634 9.24976 59.5933 9.24976 61.2707 9.24976C61.5756 9.24976 61.7281 9.4028 61.7281 9.70889C61.8806 10.4741 62.0331 10.9332 62.0331 11.2393ZM62.6431 24.2479C62.6431 25.0131 62.6431 25.7783 62.6431 26.5435C62.6431 26.6966 62.643 26.8496 62.7955 27.0026C63.8629 28.0739 66.1502 28.5331 67.3701 27.7679C68.4375 27.1557 69.0475 26.0844 69.5049 25.0131C69.9624 23.6357 70.1149 22.1053 69.9624 20.5749C69.8099 19.3505 69.5049 18.2792 68.895 17.2079C67.5226 15.0654 64.7778 14.7593 62.948 16.4427C62.7955 16.5958 62.6431 16.9019 62.6431 17.0549C62.6431 19.5036 62.6431 21.7992 62.6431 24.2479Z" fill="#6772E0"/>
<path d="M84.7535 24.2479C84.7535 25.7783 85.6683 27.3088 87.1932 27.9209C88.2606 28.3801 89.3279 28.3801 90.3953 28.3801C92.2252 28.3801 94.0551 27.9209 95.8849 27.1557C96.0374 27.0027 96.3423 27.0027 96.4948 26.8496C96.4948 26.8496 96.4948 26.8496 96.6473 26.8496C96.6473 27.0027 96.6473 27.1557 96.6473 27.1557C96.6473 28.6861 96.6473 30.2166 96.6473 31.747C96.6473 32.0531 96.4948 32.3592 96.1899 32.5122C94.665 33.2774 93.1402 33.7365 91.6153 33.8896C89.7855 34.1957 87.9556 34.1957 86.1258 33.7365C82.3136 32.8183 79.7214 30.5226 78.5015 26.6966C77.2816 22.8705 77.4341 19.0445 78.9589 15.3715C80.3313 12.1576 82.6186 10.015 86.1258 9.40284C88.8705 8.79067 91.6153 9.2498 93.9026 11.0863C95.4274 12.3106 96.3424 13.8411 96.9523 15.5245C97.8672 17.8202 98.0196 20.1158 98.0196 22.5645C98.0196 23.0236 98.0196 23.4827 98.0196 23.9418C98.0196 24.2479 97.8672 24.2479 97.7147 24.2479C96.6473 24.2479 95.7324 24.2479 94.665 24.2479C91.4628 24.2479 88.4131 24.2479 85.2109 24.2479C85.0584 24.2479 84.9059 24.2479 84.7535 24.2479ZM88.1081 19.1975C89.1755 19.1975 90.2429 19.1975 91.3103 19.1975C91.6153 19.1975 91.6153 19.0445 91.6153 18.8915C91.4628 18.4323 91.4628 17.8202 91.3103 17.361C90.3954 14.7593 87.3457 14.1471 85.6683 16.1367C84.9059 16.9019 84.7534 17.9732 84.6009 19.0445C84.6009 19.3506 84.7534 19.3506 84.9059 19.3506C86.1258 19.1975 87.1932 19.1975 88.1081 19.1975Z" fill="#6772E0"/>
<path d="M16.135 16.9021C15.9825 16.749 15.83 16.749 15.6775 16.749C13.6952 15.8308 11.7129 15.2186 9.42562 15.2186C8.96817 15.2186 8.35823 15.2186 7.90077 15.3717C6.83337 15.6778 6.68091 16.9021 7.44333 17.5143C7.7483 17.8203 8.20574 18.1264 8.6632 18.2795C9.7306 18.7386 10.798 19.0447 11.8654 19.5038C13.2377 19.9629 14.4576 20.5751 15.525 21.4934C16.7449 22.5646 17.3548 24.0951 17.5073 25.7785C17.6598 27.3089 17.3549 28.8394 16.5925 30.2168C15.5251 32.0533 13.8477 32.9715 12.0179 33.5837C9.42564 34.3489 6.83334 34.1958 4.24109 33.7367C3.17369 33.4306 2.10633 33.1245 1.03893 32.8185C0.886445 32.8185 0.733941 32.6654 0.733941 32.3593C0.733941 30.3698 0.733941 28.3802 0.733941 26.3907C0.733941 26.3907 0.733941 26.2377 0.733941 26.0846C0.886426 26.0846 1.03893 26.2377 1.03893 26.2377C2.86875 27.1559 4.69856 27.9211 6.83335 28.0742C7.74827 28.2272 8.66316 28.2272 9.57807 27.9211C10.3405 27.615 10.798 27.1559 10.6455 26.3907C10.6455 25.9316 10.3406 25.6255 10.0356 25.3194C9.27318 24.7072 8.51069 24.5542 7.59578 24.0951C6.22341 23.4829 5.00357 23.0238 3.6312 22.4116C2.10635 21.6464 0.886464 20.4221 0.581493 18.5856C-0.180934 15.3717 1.03889 11.5456 5.00351 10.0152C6.2234 9.55607 7.59576 9.24998 8.81565 9.24998C11.2554 9.09694 13.5427 9.40302 15.83 10.3213C16.2875 10.4743 16.2875 10.4743 16.2875 11.0865C16.2875 12.923 16.2875 14.7595 16.2875 16.596C16.135 16.596 16.135 16.749 16.135 16.9021Z" fill="#6772E0"/>
<path d="M30.6212 27.6148C30.6212 27.7678 30.6212 27.7678 30.6212 27.9209C30.6212 29.4513 30.6212 31.1348 30.6212 32.6652C30.6212 32.9713 30.4687 33.1243 30.3162 33.2774C28.7914 33.8895 27.2665 34.0426 25.5891 34.0426C21.9295 33.8895 19.1849 31.4409 18.8799 27.7678C18.8799 27.4618 18.8799 27.1557 18.8799 27.0026C18.8799 19.8097 18.8799 12.7697 18.8799 5.57674C18.8799 5.27066 19.0323 5.11761 19.3373 4.96457C21.3196 4.50544 23.3019 4.19936 25.1317 3.74023C25.2842 3.74023 25.4367 3.74023 25.5891 3.74023C25.5891 3.89328 25.5891 4.04632 25.5891 4.19936C25.5891 5.88282 25.5891 7.56629 25.5891 9.24975C25.5891 9.70888 25.5892 9.70888 26.0467 9.70888C27.419 9.70888 28.9439 9.70888 30.3162 9.70888C30.6212 9.70888 30.7736 9.86192 30.7736 10.168C30.7736 11.8515 30.7736 13.5349 30.7736 15.2184C30.7736 15.5245 30.6212 15.6775 30.3162 15.6775C28.9439 15.6775 27.419 15.6775 26.0467 15.6775C25.7417 15.6775 25.5891 15.8306 25.5891 16.1366C25.5891 19.1975 25.5891 22.4114 25.5891 25.4722C25.5891 26.3905 25.7416 27.1557 26.6565 27.7678C27.419 28.227 28.1814 28.38 29.0964 28.227C29.5538 27.9209 30.0113 27.7678 30.6212 27.6148Z" fill="#6772E0"/>
<path d="M39.1602 11.6985C39.3127 11.5454 39.3127 11.5454 39.3127 11.3924C40.2276 10.015 41.6 9.40283 43.4298 9.55587C43.8873 9.55587 44.1922 9.70892 44.6497 9.70892C44.8021 9.70892 44.9547 9.86196 44.9547 10.015C44.9547 11.8515 44.9547 13.8411 44.9547 15.6776C44.9547 15.9836 44.8021 15.9836 44.6497 15.8306C43.8872 15.6776 42.9724 15.6776 42.0575 15.8306C41.2951 15.9836 40.5326 16.4428 40.0751 16.9019C39.7701 17.208 39.7702 17.361 39.7702 17.6671C39.7702 22.7175 39.7702 27.7679 39.7702 32.9713C39.7702 33.4304 39.7701 33.4304 39.3127 33.4304C37.3304 33.4304 35.3481 33.4304 33.5182 33.4304C33.0608 33.4304 33.0608 33.4304 33.0608 32.9713C33.0608 25.3192 33.0608 17.6671 33.0608 9.86196C33.0608 9.40283 33.0608 9.40283 33.5182 9.40283C35.1956 9.40283 36.8729 9.40283 38.5502 9.40283C38.8552 9.40283 39.0078 9.55587 39.0078 9.86196C38.8553 10.6272 39.0077 11.0863 39.1602 11.6985Z" fill="#6772E0"/>
<path d="M46.4795 21.6463C46.4795 17.8202 46.4795 13.9942 46.4795 10.1681C46.4795 9.70898 46.4795 9.70898 46.9369 9.70898C48.9192 9.70898 50.9016 9.70898 52.8839 9.70898C53.3414 9.70898 53.3414 9.70898 53.3414 10.1681C53.3414 17.8202 53.3414 25.4723 53.3414 33.2775C53.3414 33.7366 53.3414 33.7366 52.8839 33.7366C50.9016 33.7366 48.9192 33.7366 46.9369 33.7366C46.4795 33.7366 46.4795 33.7366 46.4795 33.2775C46.4795 29.2984 46.4795 25.4723 46.4795 21.6463Z" fill="#6772E0"/>
<path d="M46.4795 7.56637C46.4795 7.41333 46.4795 7.26029 46.4795 7.26029C46.4795 5.72987 46.4795 4.0464 46.4795 2.51598C46.4795 2.2099 46.632 2.05686 46.7845 2.05686C48.7668 1.59773 50.7491 1.1386 52.8839 0.83252C53.0364 0.83252 53.1889 0.83252 53.3414 0.83252C53.3414 0.985562 53.3414 1.1386 53.3414 1.1386C53.3414 2.66902 53.3414 4.35249 53.3414 5.88291C53.3414 6.18899 53.1889 6.34203 53.0364 6.34203C51.0541 6.80116 48.9192 7.26029 46.9369 7.71941C46.632 7.56637 46.632 7.56637 46.4795 7.56637Z" fill="#6772E0"/>
</svg>
