<svg width="100" height="46" viewBox="0 0 100 46" fill="none" xmlns="http://www.w3.org/2000/svg">
<path d="M0.877592 19.939C1.03008 19.939 1.03007 19.939 1.18256 19.939C6.67203 19.939 12.314 19.939 17.8035 19.939C17.9559 19.939 17.956 19.939 18.1084 19.939C18.1084 20.8572 18.1084 21.9285 18.1084 22.8468C13.5339 22.8468 8.80682 22.8468 4.07977 22.8468C4.07977 25.4485 4.07977 28.2032 4.07977 30.805C8.34936 30.805 12.7714 30.805 17.041 30.805C17.041 31.7232 17.041 32.6415 17.041 33.7128C12.7714 33.7128 8.34936 33.7128 4.07977 33.7128C4.07977 36.6206 4.07977 39.5284 4.07977 42.2831C8.80682 42.2831 13.3814 42.2831 18.1084 42.2831C18.1084 43.2014 18.1084 44.2727 18.1084 45.1909C17.956 45.1909 17.9559 45.1909 17.8035 45.1909C12.1615 45.1909 6.51955 45.1909 0.877592 45.1909H0.725098C0.877583 36.7736 0.877592 28.3563 0.877592 19.939Z" fill="black"/>
<path d="M32.8997 45.4972C32.5947 45.4972 32.2898 45.3441 32.1373 45.3441C31.2224 45.1911 30.3075 44.885 29.545 44.1198C28.7826 43.5076 28.3251 42.7424 28.0202 41.8242C27.8677 41.0589 27.8677 40.2937 27.8677 39.6816C27.8677 39.0694 28.0202 38.4572 28.3251 37.8451C28.6301 37.2329 29.0876 36.6207 29.6975 36.3146C30.4599 35.7025 31.3748 35.3964 32.2898 35.2434C33.2047 35.0903 34.1196 34.7842 35.0345 34.6312C35.6444 34.4781 36.2544 34.4781 36.8643 34.3251C37.4743 34.1721 38.0842 34.019 38.8466 33.866C39.3041 33.7129 39.6091 33.5599 39.914 33.2538C40.0665 32.9477 40.219 32.7947 40.3715 32.4886C40.524 31.5703 40.3715 30.8051 39.7616 30.193C39.4566 29.8869 39.1516 29.5808 38.6942 29.4278C38.2367 29.2747 37.7793 29.1217 37.1693 29.1217C36.7119 29.1217 36.4069 29.1217 35.9494 29.1217C35.187 29.1217 34.2721 29.2747 33.6621 29.5808C32.7472 30.0399 32.2898 30.6521 32.1373 31.5703C32.1373 31.7234 32.1373 32.0295 31.9848 32.1825C31.9848 32.1825 31.9848 32.3356 31.9848 32.4886C30.9174 32.4886 30.0025 32.4886 28.9351 32.4886C28.9351 32.1825 28.9351 32.0295 28.9351 31.8764C29.0876 31.4173 29.0876 30.9582 29.24 30.346C29.3925 29.7338 29.85 29.1217 30.3075 28.5095C31.0699 27.5912 31.9848 27.1321 33.0522 26.826C33.6621 26.673 34.2721 26.52 34.882 26.3669C35.3395 26.3669 35.6444 26.3669 36.1019 26.2139C36.4069 26.2139 36.8643 26.2139 37.1693 26.2139C38.3892 26.2139 39.6091 26.3669 40.6765 26.826C41.7439 27.2852 42.5063 27.8973 43.1163 28.8156C43.4212 29.2747 43.5737 29.8869 43.5737 30.499C43.5737 31.4173 43.5737 32.1825 43.5737 33.1008C43.5737 35.8555 43.5737 38.6103 43.5737 41.365C43.5737 41.6711 43.5737 41.8242 43.7262 42.1302C43.7262 42.5894 44.0312 42.7424 44.4886 42.7424C44.7936 42.7424 45.0986 42.5894 45.251 42.5894H45.4035C45.4035 43.3546 45.4035 44.1198 45.4035 44.885C45.2511 45.038 44.9461 45.1911 44.6411 45.1911C44.4886 45.1911 44.1837 45.3441 44.0312 45.3441C43.5737 45.3441 43.1162 45.3441 42.6588 45.3441C42.6588 45.3441 42.6588 45.3441 42.5063 45.3441C41.8964 45.1911 41.4389 44.885 41.1339 44.4259C40.829 43.9668 40.6765 43.5076 40.6765 43.0485C40.6765 42.8955 40.6765 42.8955 40.6765 42.7424C40.524 42.8955 40.524 42.8955 40.524 43.0485C40.0665 43.5076 39.4566 43.9668 38.8466 44.4259C38.0842 44.885 37.3218 45.1911 36.4069 45.3441C36.1019 45.3441 35.7969 45.4972 35.3395 45.4972C34.2721 45.4972 33.6621 45.4972 32.8997 45.4972ZM40.0665 35.8555C39.7616 36.0086 39.6091 36.0086 39.4566 36.1616C38.5417 36.4677 37.6268 36.6207 36.7119 36.7738C35.9494 36.9268 35.3395 36.9268 34.577 37.0799C33.8146 37.2329 33.2047 37.3859 32.5947 37.8451C32.1373 38.1511 31.6798 38.4572 31.5273 39.0694C31.2224 39.5285 31.2224 39.9877 31.2224 40.5998C31.2224 41.365 31.5273 42.1302 32.2898 42.5894C32.8997 43.0485 33.6621 43.2015 34.4246 43.2015C34.7295 43.2015 35.0345 43.2015 35.3395 43.2015C35.6444 43.2015 36.1019 43.2015 36.4069 43.0485C37.6268 42.7424 38.6942 42.1302 39.4566 41.212C39.9141 40.5998 40.219 39.9877 40.219 39.3755C40.219 37.9981 40.219 36.9268 40.0665 35.8555C40.219 35.8555 40.219 35.8555 40.0665 35.8555Z" fill="black"/>
<path d="M70.5633 45.4972C70.2583 45.4972 70.1058 45.3442 69.8008 45.3442C69.1909 45.1911 68.5809 45.0381 67.971 44.885C67.3611 44.579 66.7511 44.2729 66.2936 43.8137C65.6837 43.3546 65.2262 42.8955 64.7688 42.2833C63.8539 41.059 63.3964 39.8347 63.0915 38.3042C62.939 37.386 62.939 36.3147 62.939 35.3964C62.939 34.019 63.2439 32.7947 63.7014 31.5704C64.0064 30.8052 64.4638 30.04 64.9213 29.2747C65.5312 28.6626 66.1412 28.0504 66.9036 27.5913C67.666 27.1322 68.5809 26.8261 69.4959 26.52C70.1058 26.3669 70.7157 26.3669 71.3257 26.3669C71.7831 26.3669 72.2406 26.3669 72.698 26.3669C73.613 26.52 74.5279 26.673 75.4428 26.9791C76.2052 27.2852 76.8152 27.5913 77.4251 28.0504C77.8826 28.3565 78.1875 28.8156 78.645 29.2747C79.1024 29.7339 79.4074 30.346 79.7124 30.9582C80.1699 31.7234 80.3223 32.6417 80.4748 33.5599C80.6273 34.6312 80.7798 35.7025 80.6273 36.7738C80.6273 37.6921 80.4748 38.6103 80.1698 39.3755C79.8649 40.2938 79.5599 41.212 78.95 41.9772C78.1875 43.0485 77.2726 43.8137 76.2052 44.4259C75.2903 44.885 74.5279 45.1911 73.4605 45.3442C73.308 45.3442 73.1555 45.3442 73.003 45.4972C72.0881 45.4972 71.3257 45.4972 70.5633 45.4972ZM77.2726 36.0086C77.2726 35.5495 77.2726 34.9373 77.1201 34.4782C76.9677 33.713 76.8152 32.9478 76.3577 32.1825C76.0527 31.5704 75.5953 30.9582 74.9853 30.4991C74.6804 30.193 74.2229 29.8869 73.9179 29.7339C73.003 29.2747 72.0881 29.1217 71.0207 29.2747C70.2583 29.4278 69.4958 29.5808 68.8859 30.04C67.971 30.4991 67.3611 31.2643 66.9036 32.1825C66.2937 33.4069 65.9887 34.6312 65.9887 36.0086C65.9887 36.3147 65.9887 36.6208 65.9887 36.7738C65.9887 37.2329 66.1412 37.8451 66.1412 38.3042C66.4461 39.6816 67.0561 40.9059 68.276 41.8242C69.1909 42.5894 70.2583 42.8955 71.3257 43.0485C71.6307 43.0485 71.7831 43.0485 72.0881 43.0485C72.6981 43.0485 73.308 42.8955 73.9179 42.5894C74.5279 42.2833 75.1378 41.8242 75.5953 41.212C76.2052 40.5999 76.5102 39.8347 76.8152 39.0694C77.1201 37.9981 77.4251 37.0799 77.2726 36.0086Z" fill="black"/>
<path d="M98.7731 45.1911C97.8582 45.1911 96.7908 45.1911 95.8759 45.1911C95.8759 45.1911 95.8759 45.1911 95.7234 45.1911C95.7234 45.0381 95.7234 45.0381 95.7234 44.885C95.7234 40.7529 95.7234 36.7738 95.7234 32.6417C95.7234 31.5704 95.4184 30.6521 94.656 30.04C94.1986 29.5808 93.5887 29.4278 92.9787 29.2747C92.6737 29.2747 92.2163 29.1217 91.9113 29.1217C90.6914 29.1217 89.624 29.4278 88.7091 30.193C88.0992 30.6521 87.6417 31.2643 87.3367 32.0295C87.1843 32.4886 87.0318 33.1008 86.8793 33.5599C86.8793 33.713 86.8793 34.019 86.8793 34.1721C86.8793 37.6921 86.8793 41.212 86.8793 44.732C86.8793 44.885 86.8793 44.885 86.8793 45.0381C85.8119 45.0381 84.897 45.0381 83.8296 45.0381C83.8296 38.9164 83.8296 32.7947 83.8296 26.8261C84.7445 26.8261 85.6594 26.8261 86.7268 26.8261C86.7268 27.7443 86.7268 28.6626 86.7268 29.7339C86.8793 29.4278 87.1843 29.1217 87.3367 28.8156C87.7942 28.2034 88.4042 27.5913 89.1666 27.2852C89.7765 26.9791 90.3864 26.673 91.1489 26.52C91.4538 26.52 91.7588 26.3669 92.2163 26.3669C92.3688 26.3669 92.6737 26.3669 92.8262 26.3669C93.2837 26.3669 93.5886 26.3669 94.0461 26.52C94.656 26.52 95.266 26.673 95.8759 26.9791C96.4859 27.1322 96.9433 27.4382 97.4008 27.8974C98.3157 28.6626 98.7732 29.7339 98.9256 30.9582C98.9256 31.2643 99.0781 31.7234 99.0781 32.1825C99.0781 32.1825 99.0781 32.1825 99.0781 32.3356C98.7732 36.4677 98.7731 40.9059 98.7731 45.1911Z" fill="black"/>
<path d="M53.9423 41.9771C55.6197 36.9267 57.297 31.8763 58.8219 26.8259C59.8893 26.8259 60.9566 26.8259 62.024 26.8259C61.8716 27.132 61.8716 27.4381 61.7191 27.5911C61.4141 28.5094 61.1092 29.2746 60.8042 30.1929C60.3467 31.2641 60.0417 32.3354 59.5843 33.5598C59.1268 35.0902 58.5169 36.4676 58.0594 37.998C57.7545 38.9163 57.4495 39.8345 56.992 40.7528C56.5346 41.8241 56.2296 43.0484 55.7721 44.1197C55.6197 44.4258 55.4672 44.8849 55.3147 45.191C54.2473 45.191 53.1799 45.191 52.1125 45.191C51.96 45.0379 51.96 44.7319 51.8075 44.5788C51.3501 43.3545 50.8926 42.1301 50.4351 41.0588C49.9777 39.6815 49.3677 38.3041 48.9103 37.0797C48.4528 35.8554 47.9954 34.6311 47.5379 33.4067C47.2329 32.4885 46.928 31.5702 46.4705 30.652C46.013 29.5807 45.7081 28.5094 45.2506 27.4381C45.2506 27.2851 45.0981 27.132 45.0981 26.979C46.1655 26.979 47.3854 26.979 48.4528 26.979C48.4528 27.132 48.6053 27.2851 48.6053 27.4381C49.0628 28.9685 49.6727 30.4989 50.1302 31.8763C50.7401 33.5598 51.3501 35.2432 51.8075 37.0797C52.7224 38.7632 53.3324 40.2936 53.9423 41.9771C53.7898 41.9771 53.9423 41.9771 53.9423 41.9771Z" fill="black"/>
<path d="M21.7681 19.939C22.8355 19.939 23.7504 19.939 24.8178 19.939C24.8178 28.3563 24.8178 36.7736 24.8178 45.1909C23.7504 45.1909 22.8355 45.1909 21.7681 45.1909C21.7681 36.7736 21.7681 28.3563 21.7681 19.939Z" fill="black"/>
<path d="M77.7304 7.5427L80.6276 8.30791H80.7801C81.695 8.76704 82.4575 9.22617 83.0674 9.99138C83.3724 10.4505 83.8298 10.9096 83.9823 11.3688C84.4397 12.134 84.7447 12.8992 84.8972 13.8174C85.0497 14.5826 85.2022 15.5009 85.2022 16.2661C85.2022 16.8783 85.2022 17.4904 85.2022 18.1026C85.2022 18.5617 85.2022 18.8678 85.0497 19.3269C84.8972 19.9391 84.8972 20.5513 84.7447 21.1634C84.4397 22.2347 84.1348 23.4591 83.8298 24.5304C83.8298 24.8365 83.6773 25.1425 83.5248 25.2956C83.5248 25.2956 83.5249 25.1425 83.6773 25.1425C84.1348 24.3773 84.4397 23.6121 84.7447 22.8469C85.3547 21.3165 85.8121 19.633 86.1171 17.9496C86.2696 17.1844 86.4221 16.4191 86.4221 15.6539C86.4221 14.4296 86.4221 13.2053 86.2696 11.9809C86.1171 11.2157 85.9646 10.4505 85.5071 9.68529C85.0497 8.76704 84.4398 8.00183 83.6773 7.23662C83.0674 6.77749 82.4574 6.47141 81.8475 6.16532C81.39 6.01228 80.9326 5.85924 80.4751 5.7062L77.7304 5.24707C77.5779 5.24707 77.5779 5.24707 77.4254 5.24707C76.663 5.24707 76.0531 5.24707 75.2906 5.24707C74.6807 5.24707 74.0707 5.40011 73.4608 5.40011C72.8508 5.40011 72.2409 5.55315 71.7835 5.55315L69.8011 6.01228C68.8862 6.31837 68.1238 6.47141 67.2089 6.77749C65.989 7.23662 64.6166 7.5427 63.3968 8.15487C62.6343 8.46095 61.7194 8.92008 60.957 9.22617C59.8896 9.83833 58.6697 10.4505 57.6023 11.0627C56.5349 11.6748 55.62 12.287 54.5526 12.8992C53.4852 13.5113 52.4178 14.2766 51.5029 15.0418C50.283 15.96 48.9106 16.8783 47.6908 17.9496C46.9283 18.5617 46.3184 19.0209 45.556 19.633C44.946 20.2452 44.3361 20.7043 43.5736 21.3165C42.9637 21.7756 42.5062 22.3878 41.8963 22.8469C41.2864 23.306 40.8289 23.9182 40.219 24.3773C40.0665 24.5304 39.914 24.6834 39.7615 24.6834C39.609 24.8365 39.609 24.8365 39.4565 24.9895C39.609 24.9895 39.609 24.8365 39.7615 24.8365C40.219 24.5304 40.5239 24.0713 40.9814 23.7652C41.5913 23.153 42.3537 22.6939 42.9637 22.2347C43.7261 21.6226 44.641 21.0104 45.4035 20.3982C46.0134 19.9391 46.6233 19.48 47.2333 19.0209C48.6057 18.1026 49.8256 17.1844 51.1979 16.2661C52.5703 15.3478 54.0952 14.4296 55.4675 13.6644C56.5349 13.0522 57.4498 12.5931 58.5172 11.9809C58.9747 11.6748 59.4321 11.5218 59.8896 11.2157C60.8045 10.7566 61.7194 10.2975 62.6343 9.99138C64.1592 9.37921 65.8365 8.76704 67.5139 8.30791C67.8188 8.15487 68.1238 8.15487 68.4288 8.15487L69.9536 7.84879C72.5459 7.38966 75.1381 7.08358 77.7304 7.5427Z" fill="#001970"/>
<path d="M65.6838 12.4399C64.7689 13.8173 63.854 15.1947 63.0916 16.5721C62.1767 17.9494 61.4142 19.3268 60.4993 20.8572C59.5844 22.2346 58.822 23.612 58.0596 25.1424C58.517 24.3772 58.9745 23.612 59.4319 22.8468C60.4993 21.1633 61.5667 19.6329 62.6341 17.9494C63.3965 16.7251 64.3114 15.5008 65.2264 14.2764C65.9888 13.2051 66.7512 12.1338 67.6661 11.0626C68.4286 9.99126 69.3434 8.91996 70.1059 8.00171L68.581 8.30779C67.5136 9.68517 66.5987 11.0626 65.6838 12.4399Z" fill="#67ADE3"/>
<path d="M77.7301 7.54248C77.7301 7.69552 77.7301 7.69552 77.7301 7.84857C77.7301 8.46073 77.5777 9.0729 77.4252 9.68507C77.2727 10.6033 77.1202 11.3685 76.9677 12.2868C76.6627 13.9702 76.2053 15.6537 75.7478 17.3372C75.1379 19.1737 74.5279 20.8571 73.613 22.5406C73.1556 23.4589 72.5456 24.3771 71.9357 25.1423L71.7832 25.2954C73.7655 25.2954 75.5953 25.7545 77.2727 26.8258C77.2727 26.6727 77.2727 26.6727 77.2727 26.6727C77.5777 25.7545 77.7301 24.8362 78.0351 23.918C78.3401 22.3876 78.7976 21.0102 79.1025 19.4798C79.255 18.4085 79.4075 17.4902 79.7125 16.4189C79.865 15.8068 79.865 15.1946 80.0175 14.5824C80.0175 14.1233 80.1699 13.5111 80.1699 13.052C80.1699 12.5929 80.1699 12.1337 80.3224 11.6746C80.3224 10.9094 80.4749 10.2972 80.4749 9.53203C80.4749 9.0729 80.4749 8.76682 80.4749 8.30769C80.4749 8.30769 80.4749 8.30769 80.4749 8.15465L77.7301 7.54248Z" fill="#67ADE3"/>
<path d="M72.2409 5.24699C72.6984 4.63482 73.3083 4.1757 73.7658 3.56353C74.5282 2.79832 75.2906 2.03311 76.2055 1.42094C76.5105 1.2679 76.663 1.11485 76.9679 0.961812C77.1204 1.11485 77.1204 1.2679 77.2729 1.42094C77.4254 2.03311 77.5779 2.64528 77.7304 3.25744C77.7304 3.86961 77.7304 4.32874 77.8829 4.94091C77.8829 5.09395 77.8829 5.09395 77.8829 5.24699L80.6276 5.70612V5.55308C80.6276 5.24699 80.6276 5.09395 80.6276 4.78787C80.6276 4.02265 80.4751 3.41049 80.3226 2.64528C80.1701 2.18615 80.0177 1.57398 79.7127 1.2679C79.5602 1.11485 79.4077 0.80877 79.1028 0.80877C78.6453 0.80877 78.1878 0.655728 77.7304 0.655728C77.4254 0.655728 77.2729 0.655728 76.9679 0.502686C76.663 0.502686 76.358 0.502686 76.053 0.502686C75.9006 0.502686 75.9005 0.655728 75.748 0.655728C75.5956 0.655728 75.4431 0.80877 75.2906 0.80877C74.5282 1.2679 73.9182 1.72702 73.3083 2.33919C72.8508 2.79832 72.3934 3.41049 71.9359 3.86961C71.326 4.48178 70.8685 5.24699 70.2586 6.0122C70.2586 6.16524 70.1061 6.16524 69.9536 6.16524L71.9359 5.70612C71.9359 5.55308 72.0884 5.40003 72.2409 5.24699Z" fill="#67ADE3"/>
</svg>
