<svg width="185" height="29" viewBox="0 0 185 29" fill="none" xmlns="http://www.w3.org/2000/svg">
<path d="M6.13666 8.20929C4.12099 9.98507 3.38735 14.0088 7.02102 16.3609L21.5173 26.0398L14.4886 10.3685C13.0157 6.67049 8.98632 5.86407 6.13666 8.20929Z" fill="#C4C4C4"/>
<path d="M18.6171 0.591932C16.2607 0.638658 12.7223 3.36944 14.297 7.53942L21.5668 24.2245L24.1212 6.675C24.7124 2.31434 21.3214 0.301359 18.6171 0.591932Z" fill="#C4C4C4"/>
<path d="M25.2559 6.00413H26.6305C26.6305 6.00413 27.3645 6.00413 27.4644 6.34115C26.9235 6.77104 25.4512 6.82491 25.6466 9.12125L27.9575 24.2206L35.1775 7.49173C36.6543 3.75648 33.5544 0.636983 30.8047 0.541644C30.6762 0.532681 30.5474 0.525391 30.4139 0.525391C27.9459 0.525323 25.1176 2.27092 25.2559 6.00413Z" fill="#C4C4C4"/>
<path d="M34.8856 10.5115L28.0566 25.9947L42.5487 16.2648C45.8893 13.9589 45.3505 10.2722 43.4806 8.44993C42.6966 7.59223 41.2572 6.92969 39.7325 6.92969C37.931 6.92934 36.0032 7.8592 34.8856 10.5115Z" fill="#C4C4C4"/>
<path d="M40.9243 18.467L27.3145 27.7183H44.0721C47.5101 27.7183 49.7195 24.2687 48.7374 21.1029C48.0796 19.113 46.1333 17.5511 43.8743 17.5488C42.9234 17.5492 41.9151 17.8279 40.9243 18.467Z" fill="#C4C4C4"/>
<path d="M5.74705 27.7199H22.2574L8.64415 18.4685C5.49915 16.5021 1.96286 17.6527 0.686211 20.9161C-0.395949 24.6516 2.30601 27.7199 5.74705 27.7199Z" fill="#C4C4C4"/>
<path d="M53.7246 16.8701C53.7246 20.9648 57.1642 28.4181 70.2977 28.4181C82.4064 28.4181 86.2309 23.0109 86.2309 20.5316H76.8564C76.8564 20.5316 76.4112 23.8071 71.123 23.8071C65.8315 23.8071 64.4005 19.5088 64.4005 17.0233C64.4005 14.5472 65.8315 10.4809 71.123 10.4809C76.4112 10.4809 76.8564 13.3327 76.8564 13.3327H86.2309C86.2309 10.8505 83.4248 5.51953 70.2977 5.51953C57.1642 5.51953 53.7246 13.4573 53.7246 16.8701Z" fill="#C4C4C4"/>
<path d="M152.029 16.8701C152.029 20.9648 155.472 28.4181 168.603 28.4181C180.71 28.4181 184.536 23.0109 184.536 20.5316H175.168C175.168 20.5316 174.721 23.8071 169.431 23.8071C164.139 23.8071 162.707 19.5088 162.707 17.0233C162.707 14.5472 164.139 10.4809 169.431 10.4809C174.721 10.4809 175.168 13.3327 175.168 13.3327H184.536C184.536 10.8505 181.733 5.51953 168.603 5.51953C155.473 5.51953 152.029 13.4573 152.029 16.8701Z" fill="#C4C4C4"/>
<path d="M111.849 5.90039V19.7618L100.939 5.90039H88.666V27.8558H97.0797V13.8351L107.799 27.8558H120.262V5.90039H111.849Z" fill="#C4C4C4"/>
<path d="M138.809 22.6106V22.6395H131.798V18.6081H138.809V18.6212C140.306 18.6212 141.515 19.5165 141.515 20.6191C141.515 21.7189 140.306 22.6106 138.809 22.6106ZM131.863 10.1705H138.618V10.1798C139.762 10.1798 140.69 10.9126 140.69 11.8145C140.69 12.7198 139.762 13.4461 138.618 13.4461V13.456H131.863V10.1705ZM145.694 16.1835C147.227 16.1835 150.429 14.4531 150.429 11.1008C150.429 6.3273 141.295 5.90039 139.893 5.90039H123.064V27.8558H139.893C147.987 27.8558 151.239 25.3673 151.239 21.2119C151.239 17.0564 145.694 16.1835 145.694 16.1835Z" fill="#C4C4C4"/>
</svg>
