<svg width="81" height="29" viewBox="0 0 81 29" fill="none" xmlns="http://www.w3.org/2000/svg">
<path d="M63.3981 12.6584V9.28516H66.25C66.4607 9.28516 66.5233 9.40209 66.5133 9.5853V9.85347L66.5241 18.9473C66.5241 19.3543 66.4477 19.5149 66.0088 19.493L63.4096 19.4821L63.3676 18.7212C63.2203 18.6667 63.1677 18.7852 63.1042 18.8499C61.8623 20.1565 59.7265 19.8353 58.6952 18.3572C57.6433 16.8572 57.6647 14.3938 58.7372 12.9157C59.7998 11.4578 61.7043 11.2341 63.0829 12.4011C63.1775 12.4651 63.2409 12.5181 63.3989 12.6584H63.3981ZM62.2196 14.2971C61.5143 14.2971 60.9776 14.8755 60.9776 15.6692C60.9776 16.4628 61.4928 17.0412 62.2089 17.0412C62.9249 17.0412 63.4608 16.4628 63.4608 15.6809C63.4608 14.8989 62.9241 14.2994 62.2188 14.2994L62.2196 14.2971ZM57.1357 19.4696H54.0167L53.9747 18.729C53.8373 18.6643 53.7854 18.7937 53.7113 18.8577C52.3625 20.091 50.4137 19.8976 49.3389 18.418C48.2435 16.9173 48.2641 14.3641 49.3809 12.886C50.4557 11.4594 52.3518 11.2489 53.7015 12.4144L53.9762 12.6506V9.28516H56.8632C57.0738 9.28516 57.138 9.39274 57.1266 9.5853V18.8491L57.1372 19.4712L57.1357 19.4696ZM54.0701 15.6855C54.0701 14.9059 53.5221 14.3135 52.8259 14.3026C52.1198 14.3026 51.5724 14.8919 51.5724 15.6746C51.5724 16.4573 52.1068 17.0467 52.8167 17.0467C53.5037 17.0467 54.0609 16.4573 54.0701 15.6848V15.6855ZM39.5208 19.2716H36.462V15.4283C36.4514 14.7212 36.1415 14.3197 35.6224 14.3306C35.0934 14.3415 34.772 14.7204 34.7621 15.4283L34.7514 18.8062L34.7308 19.2599H31.7141V9.28516H34.7522V12.589C35.0117 12.568 35.0842 12.3887 35.2086 12.2826C36.0591 11.5756 37.0025 11.3963 38.0178 11.7759C38.9925 12.1345 39.4796 12.9266 39.5109 13.9198L39.5215 19.2716H39.5208ZM74.343 19.0588H71.3522L71.3117 18.4172C70.7789 18.906 70.2049 19.1812 69.5515 19.2529C67.8011 19.4462 66.6049 18.1326 66.9966 16.4207C67.1775 15.6364 67.6836 15.1679 68.424 14.913C69.2088 14.6479 70.0041 14.6892 70.8079 14.835L71.2911 14.9169C71.3415 14.2955 71.0797 13.9595 70.4667 13.8675C69.6522 13.735 68.8675 13.9455 68.0522 14.2238L67.5194 12.207C69.2698 11.6364 70.9896 11.4329 72.7102 12.0644C73.6154 12.3902 74.1483 13.1137 74.2598 14.0913C74.4506 15.7284 74.2796 17.3718 74.3514 19.0526L74.343 19.0588ZM70.7919 15.9826C70.1782 15.9724 69.8163 16.2578 69.7957 16.7567C69.7759 17.1855 70.027 17.4801 70.4293 17.5004C70.9621 17.5316 71.3346 17.0825 71.3758 16.4207C71.4064 15.9116 71.0247 16.0543 70.7927 15.9826H70.7919ZM48.1343 16.4113H43.6123C43.765 17.1348 44.3879 17.5285 45.0825 17.4115C45.4757 17.3476 45.8077 17.1558 46.0992 16.8799C46.2306 16.7629 46.3306 16.6351 46.5222 16.805L47.942 18.0071C46.797 19.518 45.3336 19.8898 43.6718 19.5601C42.2215 19.2623 41.2047 18.379 40.852 16.8159C40.4994 15.2529 40.7712 13.7943 41.9398 12.688C43.0978 11.5919 44.4779 11.454 45.8977 11.9755C47.3679 12.5181 47.9725 13.7841 48.1236 15.3371C48.1542 15.6489 48.1336 15.9966 48.1336 16.4113H48.1343ZM43.5314 14.9644H45.3939C45.2428 14.1981 44.9207 13.8683 44.3863 13.9003C43.9131 13.9315 43.623 14.2901 43.5314 14.9644ZM31.2767 13.8067L29.1431 15.0447C28.4149 14.2339 27.7905 14.1053 27.2698 14.6284C26.7355 15.1624 26.7493 16.2297 27.3004 16.7528C27.821 17.233 28.466 17.0833 29.153 16.2835L31.3285 17.5542C30.6523 19.1555 28.779 19.9881 26.8745 19.5608C25.1363 19.1555 23.8562 17.4692 23.8975 15.6224C23.9395 13.7124 25.241 12.1143 27.0402 11.7697C28.9447 11.4072 30.6507 12.2062 31.2767 13.8083V13.8067ZM81.0008 11.6964V14.9395C80.9154 14.9605 80.8519 14.9816 80.7871 14.9816C79.3169 15.0767 78.7314 15.6676 78.6673 17.1254L78.6566 19.2693H75.5247V11.811H78.6566V12.9835C79.2322 12.1704 79.9032 11.5787 81.0001 11.6948L81.0008 11.6964Z" fill="#C4C4C4"/>
<path d="M5.60628 23.4862C6.30397 23.6422 6.76426 23.4434 7.16808 22.8236C7.44669 22.3894 7.39097 21.8335 7.01541 21.3065C6.75052 20.9432 6.41542 20.6727 5.99023 20.5519C5.83757 20.509 5.76123 20.4521 5.77421 20.2595C6.00321 18.0806 5.95588 15.8939 5.87879 13.7149C5.87988 13.634 5.88447 13.5531 5.89253 13.4725C7.00854 13.5933 8.24362 12.8527 8.66805 11.7987C8.84209 11.3715 8.79323 10.9303 8.62606 10.5171C8.13752 9.30638 7.21769 8.60865 5.99023 8.30929C5.90648 8.30367 5.82783 8.26621 5.76976 8.20431C5.71169 8.14241 5.67842 8.06055 5.6765 7.97485L4.82538 2.85454C4.76965 2.54271 4.67271 2.23477 4.51852 1.95802L4.16966 1.26029C4.09333 1.06773 3.90479 0.84711 4.02997 0.669365C4.17653 0.469791 4.46203 0.526701 4.68645 0.555545C5.33529 0.633504 5.90779 0.932864 6.44366 1.29615L7.81768 2.28622C9.1291 3.28409 10.5443 3.46106 12.0649 2.85532L12.8459 2.54894C13.5435 2.26439 14.2618 2.12797 15.0213 2.18566L17.4549 2.32832C18.5564 2.50606 19.1075 3.03306 19.3586 4.15878C19.5113 4.87834 19.5609 5.61895 19.5327 6.35176C19.4701 8.11751 19.7487 9.84819 19.9373 11.5929L20.4884 15.6093C20.5525 16.4524 20.396 17.2978 20.035 18.0588C19.9586 18.2147 19.867 18.3223 19.7067 18.4002C18.2984 19.1268 17.9915 20.6649 19.0021 21.9037C19.2312 22.196 19.5251 22.4377 19.819 22.6731C20.677 23.3638 21.0403 24.297 20.9907 25.3861C20.9624 26.1056 20.5442 26.5828 19.9235 26.8961C19.29 27.208 18.5984 27.3171 17.9007 27.3795L16.4503 27.4574C16.0946 27.4863 15.7877 27.3795 15.5022 27.1939L14.6244 26.6093C13.968 26.161 13.2786 26.1392 12.5672 26.4245C12.2314 26.5601 11.8977 26.7239 11.626 26.9515C10.6146 27.7919 9.43521 28.1692 8.16805 28.2971C7.95203 28.3181 7.72837 28.361 7.51158 28.3968C6.77266 28.5036 6.27726 28.2191 5.98489 27.5206C5.78948 27.0435 5.72688 26.5383 5.6849 26.0394C5.5933 25.185 5.63605 24.3375 5.62918 23.4823L5.60628 23.4862ZM9.29552 20.2744C8.43065 20.2603 7.8589 20.7374 7.76883 21.542C7.63601 22.6957 8.34133 24.1341 9.34513 24.704C9.91005 25.0158 10.4886 25.1249 11.0398 24.6899C11.7092 24.1629 12.3092 23.565 12.2878 22.596C12.2878 22.539 12.2596 22.4821 12.2459 22.4244C11.9741 21.2847 10.6138 20.2962 9.30315 20.2728L9.29552 20.2744ZM13.9824 7.50632C14.0078 7.97281 14.1572 8.42342 14.4145 8.80978C15.1122 9.82792 16.1297 10.213 17.0434 8.79575C17.3503 8.32566 17.3366 7.85557 17.0358 7.3925C16.5625 6.68776 15.8855 6.33227 15.0625 6.31044C14.3794 6.30264 13.9748 6.76649 13.9816 7.4993L13.9824 7.50632ZM16.3335 26.2553C16.7099 26.2631 17.0725 26.1774 17.3869 25.963C17.8266 25.6566 17.8404 25.2083 17.4152 24.8872C16.864 24.4599 15.7893 24.4662 15.2473 24.9012C14.8565 25.2146 14.8504 25.634 15.2473 25.9334C15.5679 26.1672 15.9373 26.2452 16.3351 26.2452L16.3335 26.2553ZM13.1809 19.0769C12.874 19.098 12.5809 19.1549 12.3298 19.3474C11.8833 19.6826 11.8833 20.2019 12.3222 20.5441C12.7893 20.9074 13.5847 20.9074 14.0588 20.5519C14.4985 20.2167 14.5053 19.6904 14.0664 19.3552C13.8015 19.1557 13.4939 19.0917 13.1809 19.0777V19.0769ZM17.6022 4.87756C17.2533 4.86976 16.9327 4.95552 16.661 5.18394C16.3252 5.46849 16.319 5.86763 16.6404 6.16621C17.1137 6.60746 18.106 6.60746 18.5716 6.16621C18.8785 5.87387 18.8785 5.48953 18.5716 5.20499C18.293 4.94772 17.9579 4.86976 17.6022 4.87756ZM14.213 22.6365C14.6099 22.6443 14.9305 22.4026 14.9382 22.0814C14.9458 21.768 14.6313 21.4967 14.2404 21.4905C13.8573 21.4827 13.529 21.74 13.5152 22.0534C13.5076 22.3808 13.8153 22.6303 14.213 22.6381V22.6365ZM13.3275 15.6935C12.9511 15.6935 12.6649 15.957 12.671 16.2782C12.6786 16.5776 12.971 16.8333 13.3199 16.8411C13.6825 16.8489 13.9824 16.5838 13.9824 16.2642C13.9901 15.9367 13.7038 15.6951 13.326 15.6951L13.3275 15.6935ZM18.8235 4.10109C18.677 4.14397 18.4747 4.17905 18.4953 4.43632C18.5159 4.65694 18.6976 4.72086 18.8785 4.71385C19.074 4.71385 19.2694 4.63589 19.2618 4.40046C19.248 4.17282 19.0595 4.11591 18.8221 4.10109H18.8235ZM5.00705 25.9482L4.16127 22.8478L1.43079 12.2633C1.3827 12.0708 1.37583 11.9001 1.44453 11.7145C1.73765 10.8453 1.60178 10.0751 0.89874 9.46931C0.789582 9.37576 0.761339 9.26272 0.735385 9.13409L0.339973 6.81873C0.278905 6.29874 0.585769 5.89258 0.721644 5.43574C0.755994 5.31491 0.878893 5.37883 0.960571 5.38585C1.73918 5.43574 2.3178 5.04283 2.53 4.26013C2.7132 3.57565 2.85061 2.88494 2.27047 2.30025C2.2094 2.23633 2.18192 2.17162 2.23612 2.07963C2.57733 1.53782 2.9384 1.0116 3.44372 0.525921C3.72311 1.45986 4.04371 2.31507 4.18035 3.2342L4.91011 7.68874C4.9582 7.95224 4.93759 8.10192 4.64294 8.19547C4.04295 8.39505 3.78342 8.92204 3.71548 9.52077C3.57807 10.8461 3.9544 12.0154 4.93682 12.8987C5.05285 13.0055 5.10018 13.1053 5.10705 13.262L5.03071 20.0257C5.0101 20.2182 4.97575 20.3687 4.81927 20.5168C4.45745 20.8661 4.47806 21.3432 4.51928 21.814C4.53405 21.9553 4.5661 22.0941 4.6147 22.2272C5.03758 23.4317 4.85362 24.7063 5.09254 25.9334C5.05132 25.9334 5.01774 25.9412 4.97652 25.9412L5.00705 25.9482Z" fill="#C4C4C4"/>
</svg>
