<svg width="101" height="22" viewBox="0 0 101 22" fill="none" xmlns="http://www.w3.org/2000/svg">
<path d="M20.7692 17.9635C21.2267 19.0348 21.6842 20.1061 22.1416 21.1774C21.6842 20.8713 21.2267 20.7182 20.9217 20.4121C19.5494 19.6469 18.0245 18.8817 16.6521 17.9635C16.4997 17.8104 16.3472 17.8104 16.0422 17.8104C11.7726 17.8104 7.503 17.8104 3.23341 17.8104C1.70855 17.8104 0.336221 16.7391 0.03125 15.2087C0.03125 15.0557 0.03125 14.9026 0.03125 14.7496C0.03125 11.2296 0.03125 7.55661 0.03125 4.03664C0.03125 2.65926 0.946125 1.28188 2.47098 0.975797C2.77595 0.975797 2.92844 0.822754 3.23341 0.822754C12.3825 0.822754 21.5317 0.822754 30.6808 0.822754C32.3581 0.822754 33.578 1.74101 33.883 3.42447C33.883 3.73055 34.0355 4.03664 34.0355 4.34272C34.0355 7.70965 34.0355 11.0766 34.0355 14.4435C34.0355 15.8209 33.4255 16.8922 32.2056 17.5043C31.7482 17.6574 31.2907 17.8104 30.8333 17.8104C27.6311 17.8104 24.4289 17.8104 21.2267 17.8104C21.0742 17.9635 20.9217 17.9635 20.7692 17.9635Z" fill="#965C8A"/>
<path d="M54.621 8.01564C54.4685 10.1582 54.1636 12.3008 54.0111 14.2904C53.2486 14.2904 52.4862 14.2904 51.5713 14.2904C52.0287 11.0765 52.3337 8.01564 52.7912 4.80176C53.8586 4.80176 54.926 4.80176 55.9934 4.80176C56.2983 6.48522 56.7558 8.16868 57.0608 10.0052C57.2133 8.93389 57.5182 8.01564 57.6707 6.94435C57.8232 6.33218 57.9757 5.72001 58.1282 5.10784C58.1282 4.9548 58.2807 4.9548 58.2807 4.9548C59.3481 4.9548 60.4155 4.9548 61.4829 4.9548C61.9403 8.16868 62.3978 11.2295 62.7027 14.4434C61.7878 14.4434 61.0254 14.4434 60.1105 14.4434C59.958 12.3008 59.6531 10.1582 59.5006 8.16868C59.5006 8.32173 59.3481 8.47477 59.3481 8.47477C58.8906 10.3113 58.4332 12.3008 57.9757 14.2904C57.9757 14.4434 57.8232 14.5965 57.6707 14.5965C57.2133 14.5965 56.9083 14.5965 56.4509 14.5965C56.2984 14.5965 56.1459 14.5965 56.1459 14.2904C55.6884 12.3008 55.0785 10.3113 54.621 8.32172C54.621 8.01564 54.621 8.01564 54.621 8.01564Z" fill="black"/>
<path d="M67.5821 4.80176C67.887 6.48522 68.3445 8.16868 68.6495 9.85215C68.802 9.39302 68.8019 8.78085 68.9544 8.32172C69.2594 7.25043 69.4119 6.02609 69.7168 4.9548C69.7168 4.80176 69.8693 4.80176 70.0218 4.80176C70.9367 4.80176 71.8516 4.80176 72.919 4.80176C73.0715 4.80176 73.224 4.80176 73.224 5.10784C73.6815 8.16868 73.9864 11.0765 74.4439 14.1373C74.4439 14.2904 74.4439 14.2904 74.4439 14.4434C73.529 14.4434 72.7665 14.4434 71.8516 14.4434C71.6991 12.3008 71.3942 10.1582 71.2417 8.01564C71.0892 8.93389 70.7842 9.85215 70.6318 10.9234C70.3268 11.9947 70.0218 13.066 69.8693 14.2904C69.8693 14.4434 69.7168 14.5965 69.5643 14.5965C69.1069 14.5965 68.6495 14.5965 68.3445 14.5965C68.192 14.5965 68.0395 14.5965 68.0395 14.2904C67.582 12.3008 67.1246 10.3113 66.5146 8.47477C66.5146 8.32173 66.5147 8.32173 66.3622 8.16868C66.3622 8.62781 66.2097 9.23998 66.2097 9.6991C66.0572 11.2295 65.9047 12.7599 65.7522 14.2904L65.5998 14.4434C64.8374 14.4434 64.0749 14.4434 63.3125 14.4434C63.465 13.8312 63.465 13.066 63.6174 12.4539C63.9224 10.4643 64.0749 8.47477 64.3799 6.48522C64.3799 6.02609 64.5324 5.56697 64.5324 5.10784L64.6849 4.9548C65.4473 4.80176 66.5147 4.80176 67.5821 4.80176Z" fill="black"/>
<path d="M51.4189 9.69928C51.2664 10.3115 51.2664 11.0767 50.9615 11.8419C50.3515 13.6784 48.8267 14.7497 46.8444 14.5966C44.862 14.4436 43.6422 13.5253 43.1847 11.3827C42.8797 9.85232 42.8797 8.47495 43.3372 6.94452C43.9471 5.4141 45.167 4.49585 46.8444 4.49585C47.6068 4.49585 48.2167 4.49585 48.8267 4.80194C50.1991 5.4141 50.809 6.4854 51.114 7.86278C51.2665 8.47495 51.2664 8.93407 51.4189 9.69928ZM48.6742 9.54624C48.6742 8.93407 48.5217 8.62799 48.5217 8.16886C48.5217 8.01582 48.3692 7.70973 48.3692 7.55669C48.2167 7.09757 47.9117 6.79148 47.4543 6.63844C46.6919 6.4854 46.2344 6.94452 46.0819 7.70973C45.777 8.93407 45.777 10.1584 46.0819 11.3827C46.2344 11.8419 46.3869 12.148 46.9968 12.301C47.7593 12.454 48.3692 12.148 48.5217 11.3827C48.5217 10.7706 48.5217 10.1584 48.6742 9.54624Z" fill="black"/>
<path d="M83.5932 10.1583C83.5932 11.5356 83.5932 12.913 83.5932 14.4434C82.6783 14.4434 81.9159 14.4434 81.001 14.4434C81.001 11.2296 81.001 8.16872 81.001 4.95483H81.1535C82.3734 4.95483 83.4408 4.95483 84.6607 4.95483C85.4231 4.95483 86.1855 5.26092 86.7954 5.72004C88.3203 6.79134 88.1678 9.08697 86.6429 10.0052C86.6429 10.0052 86.4904 10.1583 86.338 10.1583C86.9479 11.5356 87.7104 12.913 88.3203 14.4434C88.1678 14.4434 88.1678 14.4434 88.0153 14.4434C87.2529 14.4434 86.4905 14.4434 85.728 14.4434C85.5755 14.4434 85.4231 14.4434 85.4231 14.2904C84.8131 13.0661 84.2032 11.8417 83.5932 10.4643C83.7457 10.3113 83.7457 10.1583 83.5932 10.1583C83.7457 10.0052 83.7457 10.1583 83.5932 10.1583ZM83.5932 6.6383C83.5932 7.40351 83.5932 8.16872 83.5932 8.93393C84.0507 8.78089 84.3557 8.78089 84.6607 8.62785C84.9656 8.4748 85.2706 8.32176 85.2706 7.86264C85.2706 7.40351 85.2706 7.09742 84.8131 6.79134C84.5081 6.6383 84.0507 6.6383 83.5932 6.6383Z" fill="black"/>
<path d="M95.1821 14.2904C95.1821 11.0765 95.1821 8.01564 95.1821 4.80176C96.8595 4.80176 98.6893 4.80176 100.367 4.80176C100.367 5.41393 100.367 6.17914 100.367 6.7913C99.4517 6.7913 98.6892 6.7913 97.7743 6.7913C97.7743 7.40347 97.7743 7.8626 97.7743 8.47477C98.5368 8.47477 99.2992 8.47477 100.062 8.47477C100.062 9.08694 100.062 9.85215 100.062 10.4643C99.2992 10.4643 98.5368 10.4643 97.7743 10.4643C97.7743 11.0765 97.7743 11.6887 97.7743 12.1478C98.6892 12.1478 99.4517 12.1478 100.367 12.1478C100.367 12.7599 100.367 13.5252 100.367 14.1373C98.6893 14.2904 97.0119 14.2904 95.1821 14.2904Z" fill="black"/>
<path d="M75.2065 14.4434C75.2065 11.2296 75.2065 8.16872 75.2065 4.95483C76.8839 4.95483 78.5612 4.95483 80.391 4.95483C80.391 5.567 80.391 6.33221 80.391 6.94438C79.4761 6.94438 78.7137 6.94438 77.7988 6.94438C77.7988 7.55655 77.7988 8.16872 77.7988 8.62785C78.5612 8.62785 79.3236 8.62785 80.0861 8.62785C80.0861 9.24001 80.0861 10.0052 80.0861 10.6174C79.3236 10.6174 78.5612 10.6174 77.7988 10.6174C77.7988 11.2296 77.7988 11.8417 77.7988 12.3009C78.7137 12.3009 79.4761 12.3009 80.391 12.3009C80.391 12.4539 80.391 12.4539 80.391 12.4539C80.391 12.913 80.391 13.5252 80.391 13.9843C80.391 14.1374 80.391 14.2904 80.2385 14.2904C78.5612 14.2904 76.8839 14.4434 75.2065 14.4434Z" fill="black"/>
<path d="M94.5722 12.1478C94.5722 12.9131 94.5722 13.5252 94.5722 14.2904V14.4435C93.0474 14.9026 90.6076 14.7496 89.2352 12.9131C87.8628 11.2296 87.8628 8.47484 89.0827 6.63833C90.4551 4.80183 92.7424 4.3427 94.7247 4.80183C94.7247 5.56704 94.7247 6.33225 94.7247 7.09746C94.4197 7.09746 94.1147 6.94442 93.9623 6.94442C92.1324 6.63833 91.2175 7.86267 91.065 9.24005C91.065 9.85222 91.065 10.4644 91.2175 10.9235C91.675 11.9948 92.5899 12.4539 93.8098 12.3009C93.9623 12.3009 94.1148 12.1478 94.5722 12.1478Z" fill="black"/>
<path d="M42.4222 12.1479C42.4222 12.9131 42.4222 13.6783 42.4222 14.2905C41.2024 14.7496 38.6101 14.5965 37.0853 12.9131C35.7129 11.2296 35.5604 8.47485 36.7803 6.63835C38.1526 4.6488 40.4399 4.18968 42.4222 4.80184C42.4222 5.56705 42.4222 6.33226 42.4222 7.09748C42.1173 7.09748 41.8123 6.94443 41.6598 6.94443C39.83 6.63835 38.9151 8.01573 38.7626 9.39311C38.7626 9.85223 38.7626 10.4644 38.9151 10.9235C39.2201 11.9948 40.2874 12.607 41.5073 12.4539C41.8123 12.3009 42.1173 12.1479 42.4222 12.1479Z" fill="black"/>
<path d="M5.06312 11.6886V11.5356C4.60566 9.23996 4.14821 6.94432 3.69076 4.64869C3.53827 4.18957 3.53828 3.73044 3.08082 3.5774C2.62337 3.42436 2.16587 3.42436 1.70841 3.73044C1.25096 4.03652 1.25098 4.49565 1.25098 4.95478C1.40346 6.02607 1.55594 7.09737 1.86091 8.16866C2.16588 10.3113 2.62333 12.4538 3.23327 14.4434C3.38576 15.0556 3.53828 15.5147 3.84325 15.9738C4.14822 16.586 4.60566 16.586 5.06312 16.1269C5.36809 15.8208 5.82555 15.3616 5.97804 15.0556C6.4355 14.1373 7.04544 13.2191 7.5029 12.3008C7.80787 11.5356 8.2653 10.7704 8.57027 10.0052C8.57027 10.1582 8.57027 10.1582 8.57027 10.1582C9.02772 11.8417 9.79015 13.5251 10.8576 14.9025C11.1625 15.3616 11.4675 15.6677 11.925 16.1269C12.6874 16.739 13.4498 16.2799 13.6023 15.3616C13.6023 15.2086 13.6023 15.0556 13.6023 14.9025C13.6023 14.1373 13.6023 13.2191 13.6023 12.4538C13.7548 11.2295 13.9073 9.85213 14.0598 8.62779C14.3647 7.09737 14.6697 5.56695 15.2797 4.18957C15.5846 3.5774 15.2796 2.96523 14.6697 2.65915C14.0597 2.35306 13.4498 2.5061 13.1448 3.11827C12.9923 3.27131 12.9924 3.42436 12.8399 3.5774C12.0775 5.26086 11.7725 6.94433 11.4675 8.62779C11.315 9.23996 11.315 9.85212 11.1625 10.6173C11.1625 10.4643 11.01 10.4643 11.01 10.3113C10.7051 9.08692 10.4001 7.86258 9.94267 6.79128C9.79019 6.33216 9.79017 5.87303 9.63768 5.56695C9.33271 4.80174 8.41778 4.64869 7.80784 5.26086C7.65535 5.4139 7.5029 5.56695 7.5029 5.87303C7.04544 8.01562 5.97803 9.85213 5.06312 11.6886Z" fill="white"/>
<path d="M32.0533 7.86271C31.9008 6.94446 31.5958 6.0262 30.9859 5.41403C29.766 4.03666 27.3262 3.73057 25.8014 5.56708C24.5815 6.94446 24.124 8.47488 24.124 10.3114C24.124 11.2296 24.2765 11.9948 24.5815 12.7601C25.1914 14.2905 26.7163 15.0557 28.3936 14.7496C29.461 14.5966 30.2234 13.9844 30.8334 13.0661C31.9008 11.5357 32.3583 9.85226 32.0533 7.86271ZM29.766 8.78096C29.766 10.0053 29.461 10.9236 29.0036 11.6888C28.8511 11.9948 28.5461 12.1479 28.2411 12.3009C27.7837 12.607 27.3262 12.454 27.1737 11.9948C26.7163 11.3827 26.5638 10.6175 26.7163 9.85226C26.8688 8.934 27.1737 8.16879 27.6312 7.40358C27.7837 7.25054 27.9362 7.0975 28.0887 6.94446C28.5461 6.63837 29.156 6.63837 29.461 7.25054C29.6135 7.86271 29.766 8.32184 29.766 8.78096Z" fill="white"/>
<path d="M23.0566 6.63824C22.1417 4.03652 18.787 3.5774 17.1097 5.4139C15.2798 7.40345 14.8224 9.85212 15.5848 12.4538C16.0423 13.9843 17.4146 14.9025 18.9395 14.7495C19.092 14.7495 19.2444 14.7495 19.3969 14.7495C19.3969 14.7495 19.3969 14.7495 19.5494 14.7495C20.6168 14.5964 21.5318 13.9843 22.1417 13.066C22.9041 11.9947 23.2091 10.9234 23.3616 9.69908C23.514 8.78083 23.514 7.70953 23.0566 6.63824ZM21.0743 8.93387C21.0743 9.85212 20.7693 10.9234 20.1594 11.6886C20.0069 11.8417 19.7019 12.1478 19.5494 12.3008C19.092 12.6069 18.6345 12.4538 18.3296 11.9947C17.8721 11.3825 17.8721 10.6173 17.8721 9.85212C18.0246 8.93387 18.3295 8.16866 18.787 7.55649C18.9395 7.40345 19.092 7.25041 19.3969 7.09737C19.8544 6.79128 20.4643 6.94432 20.7693 7.40345C20.9218 7.70953 21.0743 8.3217 21.0743 8.93387Z" fill="white"/>
</svg>
