<svg width="99" height="24" viewBox="0 0 99 24" fill="none" xmlns="http://www.w3.org/2000/svg">
<path fill-rule="evenodd" clip-rule="evenodd" d="M8.52265 5.72534H15.232C18.8917 5.72534 20.1116 7.56185 19.9591 10.1636C19.6541 14.6018 16.9094 17.0505 13.4022 17.0505H11.5724C11.1149 17.0505 10.8099 17.3565 10.6574 18.2748L9.89501 23.3252C9.89501 23.6313 9.74254 23.7843 9.43757 23.9374H5.16794C4.71049 23.9374 4.55802 23.6313 4.71051 23.0191L7.30278 6.79664C7.45527 6.03143 7.9127 5.72534 8.52265 5.72534Z" fill="#0098DD"/>
<path fill-rule="evenodd" clip-rule="evenodd" d="M37.6473 5.41919C39.9346 5.41919 41.9169 6.64353 41.7644 9.70437C41.4594 13.3774 39.4771 15.3669 36.4274 15.3669H33.6827C33.2252 15.3669 33.0727 15.673 33.0727 16.2852L32.6153 19.6521C32.4628 20.1112 32.3103 20.4173 31.8528 20.4173H29.4131C28.9556 20.4173 28.8031 20.1112 28.9556 19.6521L31.0904 6.33744C31.2429 5.72527 31.3954 5.41919 31.8528 5.41919H37.6473ZM33.5302 12.4591H35.5125C36.7324 12.4591 37.6473 11.5409 37.6473 10.0105C37.6473 9.0922 37.0374 8.32699 35.97 8.32699H33.9877L33.5302 12.4591ZM48.4738 19.346C48.6263 19.193 48.9312 19.0399 48.9312 19.346L48.7787 19.9582C48.7787 20.2643 48.9312 20.4173 49.2362 20.4173H51.5235C51.8285 20.4173 52.1334 20.2643 52.1334 19.6521L53.5058 11.0817C53.5058 10.6226 53.5058 10.4696 53.2008 10.4696H50.7611C50.6086 10.4696 50.4561 10.6226 50.3036 10.9287L50.1511 11.3878C50.1511 11.6939 49.9986 11.6939 49.8462 11.3878C49.3887 10.4696 48.3213 10.0105 46.9489 10.0105C43.5943 10.0105 41.3069 12.6122 41.002 15.9791C40.8495 18.5808 42.6793 20.5704 45.1191 20.5704C46.7964 20.7234 47.5589 20.1112 48.4738 19.346ZM46.6439 18.1217C45.1191 18.1217 44.2042 16.8973 44.3567 15.52C44.5091 14.1426 45.8815 12.9183 47.4064 12.9183C48.9312 12.9183 49.8461 14.1426 49.6937 15.52C49.3887 16.8973 48.0163 18.1217 46.6439 18.1217ZM57.7754 10.4696H55.4881C55.0306 10.4696 54.8782 10.7757 55.0307 11.2348L57.7754 19.4991L55.0307 23.3251C54.7257 23.6312 55.0307 23.9373 55.3356 23.9373H57.9279C58.2328 23.9373 58.5378 23.7842 58.6903 23.6312L67.2295 11.2348C67.5345 10.9287 67.382 10.4696 66.9245 10.4696H64.4848C64.0273 10.4696 63.8748 10.6226 63.7223 10.9287L60.2151 16.1321L58.6903 10.9287C58.3853 10.6226 58.2328 10.4696 57.7754 10.4696Z" fill="#113980"/>
<path fill-rule="evenodd" clip-rule="evenodd" d="M76.0735 5.41919C78.3608 5.41919 80.3432 6.64353 80.1907 9.70437C79.8857 13.3774 77.9034 15.3669 74.8537 15.3669H72.109C71.6515 15.3669 71.499 15.673 71.499 16.2852L71.0415 19.6521C70.889 20.1112 70.7366 20.4173 70.2791 20.4173H67.8393C67.3819 20.4173 67.2294 20.1112 67.3819 19.6521L69.5167 6.33744C69.6692 5.72527 69.8217 5.41919 70.2791 5.41919H76.0735ZM71.9565 12.4591H73.9387C75.1586 12.4591 76.0735 11.5409 76.0735 10.0105C76.0735 9.0922 75.4636 8.32699 74.3962 8.32699H72.4139L71.9565 12.4591ZM86.9 19.346C87.0525 19.193 87.3575 19.0399 87.3575 19.346L87.205 19.9582C87.205 20.2643 87.3575 20.4173 87.6624 20.4173H89.9497C90.2547 20.4173 90.5597 20.2643 90.5597 19.6521L91.9321 11.0817C91.9321 10.6226 91.932 10.4696 91.6271 10.4696H89.1873C89.0348 10.4696 88.8823 10.6226 88.7299 10.9287L88.5774 11.3878C88.5774 11.6939 88.4249 11.6939 88.2724 11.3878C87.8149 10.4696 86.7475 10.0105 85.3752 10.0105C82.0205 10.0105 79.7332 12.6122 79.4282 15.9791C79.2758 18.5808 81.1056 20.5704 83.5454 20.5704C85.2227 20.7234 85.9851 20.1112 86.9 19.346ZM85.0702 18.1217C83.5454 18.1217 82.6305 16.8973 82.7829 15.52C82.9354 14.1426 84.3078 12.9183 85.8326 12.9183C87.3575 12.9183 88.2724 14.1426 88.1199 15.52C87.815 16.8973 86.4426 18.1217 85.0702 18.1217ZM95.2867 20.4173H92.6945C92.542 20.4173 92.3895 20.2643 92.3895 20.1112L94.6768 5.87832C94.6768 5.72527 94.8293 5.57223 95.1342 5.57223H97.7265C97.879 5.57223 98.0315 5.72527 98.0315 5.87832L95.7442 20.1112C95.5917 20.2643 95.4392 20.4173 95.2867 20.4173Z" fill="#0098DD"/>
<path fill-rule="evenodd" clip-rule="evenodd" d="M4.40537 0.0627441H11.1148C12.9446 0.0627441 15.2318 0.0627451 16.7567 1.44012C17.8241 2.35838 18.2815 3.73576 18.1291 5.26618C17.6716 10.4696 14.6219 13.2244 10.5048 13.2244H7.15013C6.54019 13.2244 6.2352 13.5305 6.08272 14.6017L5.1678 20.4173C5.1678 20.7234 5.01533 21.0295 4.71036 21.0295H0.593236C0.13578 21.0295 -0.0166872 20.7234 0.135798 19.9582L3.03301 1.13404C3.1855 0.521872 3.64294 0.0627441 4.40537 0.0627441Z" fill="#113980"/>
<path fill-rule="evenodd" clip-rule="evenodd" d="M6.23535 14.1427L7.45522 6.64359C7.6077 6.03143 7.9127 5.72534 8.67513 5.72534H15.3845C16.4519 5.72534 17.3668 5.87838 18.1292 6.18447C17.5193 10.7757 14.4696 13.2244 10.6574 13.2244H7.30277C6.69283 13.3774 6.38784 13.5305 6.23535 14.1427Z" fill="#172C70"/>
</svg>
