<svg width="97" height="29" viewBox="0 0 97 29" fill="none" xmlns="http://www.w3.org/2000/svg">
<path d="M8.79809 7.71379H0.996094V0.578125H25.1688V7.71379H17.3698V28.4166H8.79809V7.71379Z" fill="#C4C4C4"/>
<path d="M26.5 0.578125H49.9656V7.71379H35.0777V11.1827H49.9656V17.8131H35.0777V21.282H49.9696V28.4176H26.5V0.578125Z" fill="#C4C4C4"/>
<path d="M59.9859 21.282H63.3403C68.6839 21.282 69.4646 16.9529 69.4646 14.3382C69.4646 12.587 68.9156 7.71379 62.7158 7.71379H59.9859V21.282ZM51.4092 0.578125H65.4845C74.7624 0.578125 78.0423 7.4403 78.0423 14.4566C78.0423 22.9985 73.5192 28.4166 63.8098 28.4166H51.4092V0.578125Z" fill="#C4C4C4"/>
<path d="M90.365 17.6897L87.7484 13.3517L85.1964 17.6897H78.9131L84.8782 8.91712L79.1339 0.525391H85.4202L87.7484 4.67353L90.1432 0.525391H96.4275L90.6852 8.91712L96.6513 17.6897H90.365Z" fill="#C4C4C4"/>
</svg>
