<svg width="87" height="44" viewBox="0 0 87 44" fill="none" xmlns="http://www.w3.org/2000/svg">
<path d="M43.2668 43.4258C42.8094 43.2728 42.1994 43.2728 41.742 43.1197C38.9972 42.3545 37.1674 40.365 36.8624 37.6102C36.7099 36.845 36.71 36.2328 36.71 35.4676C36.71 30.4172 36.71 25.3668 36.71 20.1634C36.71 19.0921 36.8624 18.0208 37.1674 16.9495C37.7773 15.113 38.9972 13.7356 40.9795 13.2765C43.1143 12.6643 45.2492 12.6643 47.384 13.2765C49.8237 13.8887 51.1961 15.7252 51.6535 18.1739C51.806 18.9391 51.806 19.7043 51.806 20.4695C51.806 23.5303 51.806 26.4381 51.806 29.499C51.806 29.652 51.806 29.652 51.806 29.9581C48.4514 29.9581 44.9442 29.9581 41.437 29.9581C41.437 30.1111 41.437 30.2642 41.437 30.4172C41.437 32.4068 41.437 34.3963 41.437 36.3859C41.437 36.998 41.437 37.4572 41.5895 38.0693C42.047 39.5997 43.1144 40.0589 44.3342 40.0589C46.3166 40.0589 46.9265 38.6815 46.9265 37.3041C46.9265 36.2328 46.9265 35.3146 46.9265 34.2433C46.9265 34.0902 46.9265 33.9372 46.9265 33.7842C48.4514 33.7842 49.9762 33.7842 51.5011 33.7842C51.5011 35.4676 51.6536 37.3041 51.1961 38.9876C50.4337 41.4363 48.7563 42.9667 46.3165 43.4258C45.8591 43.5788 45.5541 43.5788 45.0967 43.7319C44.7917 43.4258 44.0293 43.4258 43.2668 43.4258ZM47.2315 25.826C47.2315 25.6729 47.2315 25.6729 47.2315 25.5199C47.2315 23.2242 47.2315 21.0817 47.2315 18.786C47.2315 17.2556 46.3166 16.3374 45.0967 16.1843C44.7917 16.1843 44.4867 16.1843 44.1818 16.1843C43.1144 16.1843 42.3519 16.6434 42.047 17.7147C41.8945 18.3269 41.742 18.9391 41.742 19.7043C41.742 21.6938 41.742 23.6834 41.742 25.5199C41.742 25.826 41.8945 25.979 42.1994 25.979C43.7243 25.979 45.4016 25.979 46.9265 25.979C46.9265 25.826 47.079 25.826 47.2315 25.826Z" fill="#FF6600"/>
<path d="M26.3412 43.4259C25.7313 43.2729 25.2738 43.2729 24.8163 43.1198C22.2241 42.5077 20.6992 40.6711 20.6992 37.9164C20.6992 36.539 20.6992 35.1616 20.6992 33.7843C20.6992 33.6312 20.6992 33.6312 20.6992 33.4782C22.3766 33.4782 23.9014 33.4782 25.5788 33.4782C25.5788 33.6312 25.5788 33.7843 25.5788 33.9373C25.5788 35.1616 25.5788 36.386 25.5788 37.6103C25.5788 39.4468 26.9511 39.9059 28.171 39.5999C29.2384 39.4468 29.6959 38.9877 29.8484 38.0694C30.1533 36.6921 30.1533 35.1616 29.8484 33.6312C29.6959 32.866 29.2384 32.2538 28.6285 31.6417C27.5611 30.7234 26.4937 29.6521 25.4263 28.7339C24.2064 27.6626 22.9865 26.4382 22.0716 25.0609C21.1567 23.6835 20.8517 22.1531 20.6992 20.6226C20.6992 19.3983 20.6992 18.0209 21.0042 16.7966C21.4617 14.654 22.834 13.2766 25.1213 12.8175C27.1036 12.3584 29.0859 12.3584 31.0683 13.1236C32.8981 13.7357 34.118 14.807 34.5754 16.7966C34.5754 17.1027 34.7279 17.2557 34.7279 17.5618C34.7279 19.0922 34.7279 20.6226 34.7279 22.1531V22.3061C33.2031 22.3061 31.6782 22.3061 30.0008 22.3061C30.0008 22.1531 30.0008 22 30.0008 21.847C30.0008 20.7757 30.0008 19.7044 30.0008 18.6331C30.0008 18.174 29.8484 17.8679 29.8484 17.4087C29.5434 16.6435 29.0859 16.1844 28.171 16.1844C27.866 16.1844 27.7136 16.1844 27.4086 16.1844C26.6462 16.3375 26.1887 16.7966 26.0362 17.5618C25.7312 18.7861 25.7312 20.0105 26.0362 21.0818C26.1887 21.847 26.6462 22.4591 27.1036 23.0713C28.171 24.1426 29.2384 25.0609 30.3058 26.1321C31.5257 27.2034 32.7456 28.2747 33.6605 29.6521C34.4229 30.7234 34.8804 31.9477 34.8804 33.3251C34.8804 34.3964 35.0329 35.4677 34.8804 36.539C34.8804 37.6103 34.7279 38.5286 34.4229 39.4468C33.6605 41.5894 32.1356 42.6607 30.0008 42.9668C29.6959 42.9668 29.3909 43.1198 29.0859 43.1198C28.171 43.4259 27.2561 43.4259 26.3412 43.4259Z" fill="#FF6600"/>
<path d="M12.1599 0.268066C12.1599 1.64545 12.1599 2.86978 12.1599 4.4002C11.7024 4.4002 11.3975 4.4002 11.0925 4.4002C9.56766 4.4002 8.80522 5.31846 8.65273 6.69584C8.65273 8.68538 8.65273 10.828 8.65273 12.8175C8.65273 12.9706 8.65273 12.9706 8.65273 13.1236C9.72013 13.1236 10.94 13.1236 12.0074 13.1236C12.0074 14.501 12.0074 15.7253 12.0074 17.1027C10.94 17.1027 9.72013 17.1027 8.65273 17.1027C8.65273 25.8261 8.65273 34.3965 8.65273 43.1199C6.97539 43.1199 5.45054 43.1199 3.7732 43.1199C3.7732 34.5495 3.7732 25.8261 3.7732 17.1027C2.7058 17.1027 1.79089 17.1027 0.875977 17.1027C0.875977 15.7253 0.875977 14.501 0.875977 13.1236C1.79089 13.1236 2.7058 13.1236 3.7732 13.1236C3.7732 12.9706 3.7732 12.8175 3.7732 12.6645C3.7732 10.5219 3.7732 8.53234 3.7732 6.38975C3.7732 5.62454 3.7732 4.85933 3.92569 4.09412C4.07817 2.5637 4.8406 1.4924 6.36545 1.03328C6.97539 0.880235 7.43286 0.727193 8.0428 0.574151C8.65274 0.421108 9.26268 0.421109 9.87262 0.268066C10.635 0.268066 11.3975 0.268066 12.1599 0.268066Z" fill="#FF6600"/>
<path d="M86.7252 43.1199C85.0478 43.1199 83.523 43.1199 81.8456 43.1199C81.6932 43.1199 81.5407 43.1199 81.3882 43.1199C81.3882 41.2834 81.3882 39.5999 81.3882 37.7634C83.218 37.7634 84.8953 37.7634 86.7252 37.7634C86.7252 39.4469 86.7252 41.2834 86.7252 43.1199Z" fill="#FF6600"/>
<path d="M65.0723 13.2766C66.7496 13.2766 68.4269 13.2766 70.1043 13.2766C71.1717 21.3878 72.2391 29.4991 73.3065 37.6103C73.3065 37.6103 73.3065 37.6103 73.459 37.6103C74.5264 29.4991 75.5938 21.3878 76.6612 13.2766C78.3385 13.2766 80.0159 13.2766 81.6932 13.2766C80.1683 23.2243 78.491 33.1721 76.9661 43.1198C74.5264 43.1198 72.2391 43.1198 69.7993 43.1198C68.2745 33.1721 66.5971 23.2243 65.0723 13.2766Z" fill="#FF6600"/>
<path d="M54.0933 13.1237C55.6181 13.1237 56.9905 13.1237 58.5153 13.1237C58.5153 14.0419 58.5153 15.1132 58.5153 16.0315C58.5153 16.0315 58.5153 16.0315 58.6678 16.0315C59.1253 15.1132 59.5827 14.195 60.4977 13.4298C61.4126 12.8176 62.48 12.6646 63.5474 12.6646C63.5474 14.348 63.5474 16.1845 63.5474 17.868C63.0899 17.868 62.6325 18.021 62.175 18.021C59.8877 18.4802 58.9728 19.7045 58.9728 22.0001C58.9728 24.9079 58.9728 27.9688 58.9728 30.8766C58.9728 34.7026 58.9728 38.5287 58.9728 42.3547C58.9728 42.5078 58.9728 42.6608 58.9728 42.8138C57.4479 42.8138 55.7706 42.8138 54.2458 42.8138C54.0933 33.1722 54.0933 23.2245 54.0933 13.1237Z" fill="#FF6600"/>
<path d="M18.5645 43.1198C16.8871 43.1198 15.3623 43.1198 13.8374 43.1198C13.8374 33.1721 13.8374 23.2243 13.8374 13.2766C15.3623 13.2766 17.0396 13.2766 18.5645 13.2766C18.5645 23.2243 18.5645 33.1721 18.5645 43.1198Z" fill="#FF6600"/>
<path d="M82.7607 12.8173C82.7607 12.8173 82.7607 12.6643 82.7607 12.5112C82.913 12.5112 83.0652 12.5112 83.2174 12.5112C83.2174 12.6643 83.2174 12.8173 83.2174 12.9704C83.0652 12.8173 82.913 12.8173 82.7607 12.8173ZM83.2174 12.6643C83.2174 12.5112 83.2174 12.5112 83.2174 12.6643C83.0652 12.5112 83.0652 12.5112 82.9129 12.5112V12.6643C82.9129 12.6643 83.0652 12.6643 83.2174 12.6643Z" fill="#FF6600"/>
<path d="M83.3706 12.0522C83.2181 12.0522 83.0656 12.0522 82.9131 12.2053C82.9131 12.2053 83.0656 12.2053 83.3706 12.0522Z" fill="#FF6600"/>
<path d="M82.4556 12.9705C82.6078 13.1235 82.6078 13.1235 82.76 13.2765C82.6078 13.1235 82.4556 13.1235 82.4556 12.9705Z" fill="#FF6600"/>
<path d="M82.6078 12.2053C82.4556 12.2053 82.4556 12.2053 82.6078 12.2053C82.4556 12.3584 82.4556 12.2053 82.6078 12.2053C82.4556 12.2053 82.4556 12.2053 82.6078 12.2053Z" fill="#FF6600"/>
</svg>
