<svg width="1275" height="358" viewBox="0 0 1275 358" fill="none" xmlns="http://www.w3.org/2000/svg">
<path fill-rule="evenodd" clip-rule="evenodd" d="M1138.37 87.3676C1121.92 55.5407 1073.77 43.9139 1068.01 8.55144C1062.4 -25.91 1087.57 -58.8117 1110.25 -85.3682C1131.88 -110.692 1161.23 -128.591 1193.18 -137.99C1222.8 -146.701 1254.81 -145.987 1284.19 -136.532C1310.66 -128.014 1327.35 -103.762 1349.93 -87.5447C1372.27 -71.5052 1403.58 -65.6292 1416.62 -41.4247C1429.75 -17.0564 1423.72 12.944 1418.75 40.1787C1414.08 65.7672 1403.7 89.4568 1388.86 110.825C1373.95 132.296 1352.2 146.212 1332.88 163.83C1305.23 189.056 1287.55 232.867 1250.37 237.15C1214.63 241.267 1180.18 212.701 1158.65 183.9C1138.62 157.112 1153.73 117.082 1138.37 87.3676Z" fill="#7276CE"/>
<path fill-rule="evenodd" clip-rule="evenodd" d="M-91.0337 456.634C-114.071 412.064 -181.505 395.781 -189.567 346.26C-197.424 298 -162.181 251.924 -130.415 214.734C-100.124 179.271 -59.0267 154.205 -14.2807 141.043C27.191 128.844 72.0279 129.843 113.171 143.084C150.238 155.013 173.61 188.975 205.234 211.686C236.511 234.148 280.367 242.377 298.63 276.273C317.017 310.398 308.562 352.411 301.607 390.551C295.073 426.385 280.531 459.56 259.751 489.483C238.87 519.552 208.406 539.04 181.358 563.712C142.629 599.039 117.88 660.392 65.8048 666.39C15.7584 672.155 -32.4844 632.152 -62.6417 591.819C-90.6925 554.304 -69.5252 498.246 -91.0337 456.634Z" fill="#7276CE"/>
</svg>
