<?xml version="1.0" encoding="utf-8"?>
<!-- Generator: Adobe Illustrator 25.2.3, SVG Export Plug-In . SVG Version: 6.00 Build 0)  -->
<svg version="1.1" id="Layer_1" xmlns="http://www.w3.org/2000/svg" xmlns:xlink="http://www.w3.org/1999/xlink" x="0px" y="0px"
	 viewBox="0 0 113 37" style="enable-background:new 0 0 113 37;" xml:space="preserve">
<style type="text/css">
	.st0{fill:#CACACA;}
</style>
<path class="st0" d="M58.2,11.9c-0.1,4.9,4.3,7.7,7.6,9.3c3.4,1.7,4.5,2.8,4.5,4.3c0,2.3-2.7,3.3-5.2,3.4c-4.4,0.1-6.9-1.2-8.9-2.2
	l-1.6,7.5c2,1,5.8,1.8,9.7,1.8c9.1,0,15.1-4.6,15.1-11.7c0-9-12.3-9.5-12.2-13.6c0-1.2,1.2-2.5,3.7-2.9c2.9-0.3,5.9,0.2,8.6,1.5
	L81,2.1c-2.6-1-5.3-1.5-8.1-1.5C64.3,0.6,58.3,5.3,58.2,11.9z M95.7,1.2c-0.8,0-1.6,0.2-2.2,0.7C92.8,2.4,92.3,3,92,3.7L79,35.5h9.1
	l1.8-5.1h11.1l1.1,5.1h8l-7-34.3L95.7,1.2L95.7,1.2z M97,10.5l2.6,12.8h-7.2L97,10.5L97,10.5z M47.2,1.2L40,35.5h8.7l7.2-34.3
	L47.2,1.2L47.2,1.2z M34.3,1.2l-9,23.3L21.6,4.7c-0.1-1-0.6-1.9-1.4-2.5c-0.7-0.6-1.7-1-2.6-1H2.8l-0.2,1c3,0.7,6.5,1.8,8.6,2.9
	c1.3,0.7,1.6,1.3,2.1,3l6.9,27.3h9.2L43.5,1.2L34.3,1.2"/>
</svg>
