<?xml version="1.0" encoding="utf-8"?>
<!-- Generator: Adobe Illustrator 25.4.1, SVG Export Plug-In . SVG Version: 6.00 Build 0)  -->
<svg version="1.1" id="Layer_1" xmlns="http://www.w3.org/2000/svg" xmlns:xlink="http://www.w3.org/1999/xlink" x="0px" y="0px"
	 viewBox="0 0 802.6 737.3" style="enable-background:new 0 0 802.6 737.3;" xml:space="preserve">
<style type="text/css">
	.st0{fill-rule:evenodd;clip-rule:evenodd;fill:#EDEDFF;}
</style>
<path class="st0" d="M406.2,74.9c76-3.3,141.3-85.6,214.6-65.2c71.4,19.9,112.3,97.7,143.3,165c29.5,64.2,37.8,136.6,27.4,206.5
	c-9.6,64.8-39.5,125.8-84,173.9c-40,43.4-101.6,53.9-153,82.9c-50.8,28.7-90.1,83.8-148.3,87.3c-58.6,3.6-111.1-34.8-159.1-68.6
	c-45.1-31.8-81.5-72.9-109.4-120.5c-28.1-47.8-35.5-102.1-52.2-155C61.5,305.5-7.1,232.5,17.8,157.1
	C41.7,84.6,127.5,43.7,202.2,27.9C271.6,13.2,335.3,78,406.2,74.9z"/>
</svg>
