<?xml version="1.0" encoding="utf-8"?>
<!-- Generator: Adobe Illustrator 25.2.3, SVG Export Plug-In . SVG Version: 6.00 Build 0)  -->
<svg version="1.1" id="Layer_1" xmlns="http://www.w3.org/2000/svg" xmlns:xlink="http://www.w3.org/1999/xlink" x="0px" y="0px"
	 viewBox="0 0 80 62" style="enable-background:new 0 0 80 62;" xml:space="preserve">
<style type="text/css">
	.st0{fill:#CACACA;}
</style>
<g>
	<path class="st0" d="M50.5,5.9H29.5v37.8h21.1V5.9z"/>
	<path class="st0" d="M30.8,24.8c0-3.6,0.8-7.3,2.4-10.5c1.6-3.3,3.9-6.2,6.8-8.4c-3.6-2.8-7.8-4.5-12.3-5c-4.5-0.5-9,0.3-13.1,2.3
		c-4.1,2-7.5,5-9.9,8.9c-2.4,3.8-3.7,8.3-3.7,12.8s1.3,8.9,3.7,12.8s5.8,6.9,9.9,8.9c4.1,2,8.6,2.8,13.1,2.3c4.5-0.5,8.8-2.2,12.3-5
		c-2.9-2.2-5.2-5.1-6.8-8.4C31.6,32,30.8,28.4,30.8,24.8z"/>
	<path class="st0" d="M78.9,24.8c0,4.5-1.3,8.9-3.7,12.8c-2.4,3.8-5.8,6.9-9.9,8.9c-4.1,2-8.6,2.8-13.1,2.3c-4.5-0.5-8.7-2.2-12.3-5
		c2.9-2.3,5.2-5.1,6.8-8.4c1.6-3.3,2.4-6.9,2.4-10.5s-0.8-7.2-2.4-10.5C45.2,11,42.9,8.1,40,5.9c3.6-2.8,7.8-4.5,12.3-5
		c4.5-0.5,9,0.3,13.1,2.3c4.1,2,7.5,5.1,9.9,8.9C77.7,15.9,78.9,20.3,78.9,24.8z"/>
	<path class="st0" d="M76.6,39.7v-0.8H77v-0.2h-0.8v0.2h0.3v0.8H76.6z M78.2,39.7v-0.9h-0.2l-0.3,0.7l-0.3-0.7h-0.2v0.9h0.2V39
		l0.3,0.6h0.2L78,39v0.7H78.2z"/>
	<path class="st0" d="M15.2,60.9v-4c0-0.3,0-0.7-0.1-1c-0.1-0.3-0.3-0.6-0.5-0.8c-0.2-0.2-0.5-0.4-0.8-0.5c-0.3-0.1-0.7-0.2-1-0.2
		c-0.4,0-0.9,0.1-1.3,0.3c-0.4,0.2-0.7,0.5-1,0.9c-0.2-0.4-0.5-0.7-0.9-0.9c-0.4-0.2-0.8-0.3-1.2-0.3c-0.4,0-0.7,0.1-1.1,0.2
		C7,54.8,6.7,55,6.5,55.3v-0.8H5.1v6.4h1.4v-3.5c0-0.2,0-0.4,0.1-0.7c0.1-0.2,0.2-0.4,0.3-0.6C7,56,7.2,55.9,7.4,55.8
		c0.2-0.1,0.4-0.1,0.6-0.1c0.9,0,1.4,0.6,1.4,1.7v3.6h1.4v-3.5c0-0.2,0-0.4,0.1-0.7c0.1-0.2,0.2-0.4,0.3-0.6
		c0.1-0.2,0.3-0.3,0.5-0.4c0.2-0.1,0.4-0.1,0.6-0.1c0.9,0,1.4,0.6,1.4,1.7v3.6H15.2z M36,54.6h-2.3v-1.9h-1.4v1.9H31v1.3h1.3v2.9
		c0,1.5,0.6,2.4,2.2,2.4c0.6,0,1.2-0.2,1.7-0.5l-0.4-1.2c-0.4,0.2-0.8,0.3-1.2,0.4c-0.7,0-0.9-0.4-0.9-1.1v-2.9H36V54.6z M47.9,54.4
		c-0.3,0-0.7,0.1-1,0.2c-0.3,0.2-0.5,0.4-0.7,0.7v-0.8h-1.4v6.4h1.4v-3.6c0-1.1,0.5-1.6,1.3-1.6c0.3,0,0.6,0.1,0.9,0.2l0.4-1.3
		C48.5,54.4,48.2,54.4,47.9,54.4L47.9,54.4z M29.9,55.1c-0.8-0.5-1.7-0.7-2.6-0.7c-1.6,0-2.7,0.8-2.7,2c0,1,0.8,1.7,2.2,1.9l0.7,0.1
		c0.8,0.1,1.1,0.3,1.1,0.7c0,0.5-0.5,0.8-1.5,0.8c-0.8,0-1.5-0.2-2.1-0.7l-0.7,1.1c0.8,0.6,1.8,0.9,2.8,0.8c1.8,0,2.9-0.9,2.9-2.1
		c0-1.2-0.8-1.7-2.2-1.9L27.2,57c-0.6-0.1-1.1-0.2-1.1-0.6c0-0.4,0.5-0.7,1.2-0.7c0.7,0,1.4,0.2,2,0.5L29.9,55.1z M67.2,54.4
		c-0.3,0-0.7,0.1-1,0.2c-0.3,0.2-0.5,0.4-0.7,0.7v-0.8h-1.4v6.4h1.4v-3.6c0-1.1,0.5-1.6,1.3-1.6c0.3,0,0.6,0.1,0.9,0.2l0.4-1.3
		C67.8,54.4,67.5,54.4,67.2,54.4L67.2,54.4z M49.3,57.7c0,0.4,0.1,0.9,0.2,1.3c0.2,0.4,0.4,0.8,0.7,1.1c0.3,0.3,0.7,0.6,1.1,0.7
		c0.4,0.2,0.9,0.2,1.3,0.2c0.8,0,1.7-0.2,2.3-0.8l-0.7-1.1c-0.5,0.4-1.1,0.6-1.7,0.6c-0.5,0-1-0.3-1.3-0.7c-0.3-0.4-0.5-0.9-0.5-1.4
		c0-0.5,0.2-1,0.5-1.4c0.3-0.4,0.8-0.6,1.3-0.7c0.6,0,1.2,0.2,1.7,0.6l0.7-1.1c-0.6-0.5-1.5-0.8-2.3-0.8c-0.4,0-0.9,0-1.3,0.2
		c-0.4,0.2-0.8,0.4-1.1,0.7c-0.3,0.3-0.6,0.7-0.7,1.1C49.3,56.8,49.2,57.3,49.3,57.7L49.3,57.7z M62.3,57.7v-3.2h-1.4v0.8
		c-0.2-0.3-0.5-0.5-0.9-0.7c-0.3-0.2-0.7-0.2-1.1-0.2c-0.9,0-1.7,0.4-2.4,1c-0.6,0.6-1,1.5-1,2.4c0,0.9,0.4,1.7,1,2.4
		c0.6,0.6,1.5,1,2.4,1c0.4,0,0.8-0.1,1.1-0.2c0.3-0.2,0.7-0.4,0.9-0.7v0.8h1.4V57.7z M57.1,57.7c0-0.4,0.2-0.7,0.4-1
		c0.2-0.3,0.5-0.5,0.9-0.7c0.4-0.1,0.7-0.2,1.1-0.1s0.7,0.3,1,0.6c0.3,0.3,0.4,0.6,0.5,1c0.1,0.4,0,0.8-0.1,1.1
		c-0.1,0.3-0.4,0.6-0.7,0.9c-0.3,0.2-0.7,0.3-1.1,0.3c-0.3,0-0.5,0-0.8-0.2c-0.2-0.1-0.5-0.3-0.6-0.4c-0.2-0.2-0.3-0.4-0.4-0.7
		S57.1,58,57.1,57.7z M40.3,54.4c-0.9,0-1.7,0.4-2.3,1c-0.6,0.6-1,1.5-0.9,2.4s0.4,1.7,1,2.3c0.6,0.6,1.5,1,2.4,0.9
		c1,0,1.9-0.3,2.6-0.9l-0.7-1c-0.5,0.4-1.2,0.7-1.9,0.7c-0.5,0-0.9-0.1-1.3-0.4c-0.4-0.3-0.6-0.7-0.6-1.2h4.7c0-0.2,0-0.3,0-0.5
		C43.3,55.7,42.1,54.4,40.3,54.4L40.3,54.4z M40.3,55.6c0.2,0,0.4,0,0.6,0.1c0.2,0.1,0.4,0.2,0.5,0.3c0.2,0.1,0.3,0.3,0.4,0.5
		c0.1,0.2,0.1,0.4,0.1,0.6h-3.3c0-0.4,0.2-0.8,0.5-1.1C39.5,55.8,39.9,55.6,40.3,55.6L40.3,55.6z M75.2,57.7V52h-1.4v3.3
		c-0.2-0.3-0.5-0.5-0.9-0.7c-0.3-0.2-0.7-0.2-1.1-0.2c-0.9,0-1.7,0.4-2.4,1c-0.6,0.6-1,1.5-1,2.4c0,0.9,0.4,1.7,1,2.4
		c0.6,0.6,1.5,1,2.4,1c0.4,0,0.8-0.1,1.1-0.2c0.3-0.2,0.7-0.4,0.9-0.7v0.8h1.4V57.7z M70,57.7c0-0.4,0.2-0.7,0.4-1
		c0.2-0.3,0.5-0.5,0.9-0.7c0.4-0.1,0.7-0.2,1.1-0.1c0.4,0.1,0.7,0.3,1,0.6c0.3,0.3,0.4,0.6,0.5,1c0.1,0.4,0,0.8-0.1,1.1
		c-0.1,0.3-0.4,0.6-0.7,0.9c-0.3,0.2-0.7,0.3-1.1,0.3c-0.3,0-0.5,0-0.8-0.2c-0.2-0.1-0.5-0.3-0.6-0.4c-0.2-0.2-0.3-0.4-0.4-0.7
		C70,58.3,70,58,70,57.7z M23.1,57.7v-3.2h-1.4v0.8c-0.2-0.3-0.5-0.5-0.9-0.7c-0.3-0.2-0.7-0.2-1.1-0.2c-0.9,0-1.7,0.4-2.4,1
		c-0.6,0.6-1,1.5-1,2.4c0,0.9,0.4,1.7,1,2.4c0.6,0.6,1.5,1,2.4,1c0.4,0,0.8-0.1,1.1-0.2c0.3-0.2,0.7-0.4,0.9-0.7v0.8h1.4V57.7z
		 M17.9,57.7c0-0.4,0.2-0.7,0.4-1c0.2-0.3,0.5-0.5,0.9-0.7c0.4-0.1,0.7-0.2,1.1-0.1c0.4,0.1,0.7,0.3,1,0.6c0.3,0.3,0.4,0.6,0.5,1
		c0.1,0.4,0,0.8-0.1,1.1c-0.1,0.3-0.4,0.6-0.7,0.9c-0.3,0.2-0.7,0.3-1.1,0.3c-0.3,0-0.5,0-0.8-0.1c-0.2-0.1-0.5-0.3-0.7-0.4
		c-0.2-0.2-0.3-0.4-0.4-0.7C17.9,58.3,17.9,58,17.9,57.7L17.9,57.7z M77.5,60c0.1,0,0.2,0,0.2,0c0.1,0,0.1,0.1,0.2,0.1
		c0.1,0.1,0.1,0.1,0.1,0.2c0,0.1,0,0.2,0,0.2c0,0.1,0,0.2,0,0.2c0,0.1-0.1,0.1-0.1,0.2c-0.1,0.1-0.1,0.1-0.2,0.1
		c-0.1,0-0.2,0.1-0.2,0.1c-0.1,0-0.2,0-0.3-0.1c-0.1,0-0.1-0.1-0.2-0.1C77,61,77,61,76.9,60.9c0-0.1-0.1-0.2-0.1-0.2
		c0-0.1,0-0.2,0.1-0.2c0-0.1,0.1-0.1,0.1-0.2c0.1-0.1,0.1-0.1,0.2-0.1C77.3,60,77.4,60,77.5,60L77.5,60z M77.5,61.1
		c0.1,0,0.1,0,0.2,0c0.1,0,0.1-0.1,0.2-0.1c0,0,0.1-0.1,0.1-0.2c0-0.1,0-0.1,0-0.2c0-0.1,0-0.1,0-0.2c0-0.1-0.1-0.1-0.1-0.2
		c0,0-0.1-0.1-0.2-0.1c-0.1,0-0.1,0-0.2,0c-0.1,0-0.1,0-0.2,0c-0.1,0-0.1,0.1-0.2,0.1c0,0-0.1,0.1-0.1,0.2c0,0.1,0,0.1,0,0.2
		c0,0.1,0,0.1,0,0.2c0.1,0.1,0.1,0.2,0.3,0.3C77.4,61.1,77.4,61.1,77.5,61.1L77.5,61.1z M77.5,60.4c0.1,0,0.1,0,0.2,0.1
		c0,0,0,0,0,0.1c0,0,0,0,0,0.1c0,0,0,0,0,0.1c0,0,0,0,0,0.1c0,0-0.1,0.1-0.1,0.1l0.2,0.2h-0.2l-0.2-0.2h-0.1v0.2h-0.1v-0.6H77.5z
		 M77.4,60.5v0.2h0.1c0,0,0.1,0,0.1,0c0,0,0,0,0,0c0,0,0,0,0,0c0,0,0,0,0,0c0,0,0,0,0,0c0,0-0.1,0-0.1,0L77.4,60.5z"/>
</g>
</svg>
