<?xml version="1.0" encoding="utf-8"?>
<!-- Generator: Adobe Illustrator 25.2.3, SVG Export Plug-In . SVG Version: 6.00 Build 0)  -->
<svg version="1.1" id="Layer_1" xmlns="http://www.w3.org/2000/svg" xmlns:xlink="http://www.w3.org/1999/xlink" x="0px" y="0px"
	 viewBox="0 0 96 48" style="enable-background:new 0 0 96 48;" xml:space="preserve">
<style type="text/css">
	.st0{fill:#CACACA;}
</style>
<path class="st0" d="M47.3,46.9c-0.5-0.2-1.1-0.2-1.6-0.3c-2.9-0.8-4.9-3-5.2-5.9c-0.2-0.8-0.2-1.5-0.2-2.3c0-5.4,0-10.8,0-16.4
	c0-1.1,0.2-2.3,0.5-3.4c0.7-2,2-3.4,4.1-3.9c2.3-0.7,4.6-0.7,6.9,0c2.6,0.7,4.1,2.6,4.6,5.2c0.2,0.8,0.2,1.6,0.2,2.5
	c0,3.3,0,6.4,0,9.7c0,0.2,0,0.2,0,0.5c-3.6,0-7.3,0-11.1,0c0,0.2,0,0.3,0,0.5c0,2.1,0,4.3,0,6.4c0,0.7,0,1.1,0.2,1.8
	c0.5,1.6,1.6,2.1,2.9,2.1c2.1,0,2.8-1.5,2.8-3c0-1.1,0-2.1,0-3.3c0-0.2,0-0.3,0-0.5c1.6,0,3.3,0,4.9,0c0,1.8,0.2,3.8-0.3,5.6
	c-0.8,2.6-2.6,4.3-5.2,4.8c-0.5,0.2-0.8,0.2-1.3,0.3C48.9,46.9,48.1,46.9,47.3,46.9z M51.6,28.1c0-0.2,0-0.2,0-0.3
	c0-2.5,0-4.8,0-7.2c0-1.6-1-2.6-2.3-2.8c-0.3,0-0.7,0-1,0c-1.1,0-2,0.5-2.3,1.6c-0.2,0.7-0.3,1.3-0.3,2.1c0,2.1,0,4.3,0,6.2
	c0,0.3,0.2,0.5,0.5,0.5c1.6,0,3.4,0,5.1,0C51.2,28.1,51.4,28.1,51.6,28.1z"/>
<path class="st0" d="M29.2,46.9c-0.7-0.2-1.1-0.2-1.6-0.3c-2.8-0.7-4.4-2.6-4.4-5.6c0-1.5,0-3,0-4.4c0-0.2,0-0.2,0-0.3
	c1.8,0,3.4,0,5.2,0c0,0.2,0,0.3,0,0.5c0,1.3,0,2.6,0,3.9c0,2,1.5,2.5,2.8,2.1c1.1-0.2,1.6-0.7,1.8-1.6c0.3-1.5,0.3-3.1,0-4.8
	c-0.2-0.8-0.7-1.5-1.3-2.1c-1.1-1-2.3-2.1-3.4-3.1c-1.3-1.1-2.6-2.5-3.6-3.9c-1-1.5-1.3-3.1-1.5-4.8c0-1.3,0-2.8,0.3-4.1
	c0.5-2.3,2-3.8,4.4-4.3c2.1-0.5,4.2-0.5,6.4,0.3c2,0.7,3.3,1.8,3.8,3.9c0,0.3,0.2,0.5,0.2,0.8c0,1.6,0,3.3,0,4.9v0.2
	c-1.6,0-3.3,0-5.1,0c0-0.2,0-0.3,0-0.5c0-1.1,0-2.3,0-3.4c0-0.5-0.2-0.8-0.2-1.3c-0.3-0.8-0.8-1.3-1.8-1.3c-0.3,0-0.5,0-0.8,0
	c-0.8,0.2-1.3,0.7-1.5,1.5c-0.3,1.3-0.3,2.6,0,3.8c0.2,0.8,0.7,1.5,1.1,2.1c1.1,1.1,2.3,2.1,3.4,3.3c1.3,1.1,2.6,2.3,3.6,3.8
	c0.8,1.1,1.3,2.5,1.3,3.9c0,1.1,0.2,2.3,0,3.4c0,1.1-0.2,2.1-0.5,3.1c-0.8,2.3-2.4,3.4-4.7,3.8c-0.3,0-0.7,0.2-1,0.2
	C31.1,46.9,30.2,46.9,29.2,46.9z"/>
<path class="st0" d="M14,0.7c0,1.5,0,2.8,0,4.4c-0.5,0-0.8,0-1.1,0c-1.6,0-2.4,1-2.6,2.5c0,2.1,0,4.4,0,6.6c0,0.2,0,0.2,0,0.3
	c1.1,0,2.4,0,3.6,0c0,1.5,0,2.8,0,4.3c-1.1,0-2.4,0-3.6,0c0,9.3,0,18.5,0,27.9c-1.8,0-3.4,0-5.2,0c0-9.2,0-18.5,0-27.9
	c-1.1,0-2.1,0-3.1,0c0-1.5,0-2.8,0-4.3c1,0,2,0,3.1,0c0-0.2,0-0.3,0-0.5c0-2.3,0-4.4,0-6.7c0-0.8,0-1.6,0.2-2.5
	c0.2-1.6,1-2.8,2.6-3.3C8.4,1.4,8.9,1.2,9.6,1s1.3-0.2,2-0.3C12.4,0.7,13.2,0.7,14,0.7z"/>
<path class="st0" d="M93.8,46.6c-1.8,0-3.4,0-5.2,0c-0.2,0-0.3,0-0.5,0c0-2,0-3.8,0-5.7c2,0,3.8,0,5.7,0
	C93.8,42.7,93.8,44.6,93.8,46.6z"/>
<path class="st0" d="M70.7,14.6c1.8,0,3.6,0,5.4,0c1.1,8.7,2.3,17.4,3.4,26.1c0,0,0,0,0.2,0c1.1-8.7,2.3-17.4,3.4-26.1
	c1.8,0,3.6,0,5.4,0c-1.6,10.7-3.4,21.3-5.1,32c-2.6,0-5.1,0-7.7,0C74.1,35.9,72.3,25.3,70.7,14.6z"/>
<path class="st0" d="M58.9,14.5c1.6,0,3.1,0,4.7,0c0,1,0,2.1,0,3.1c0,0,0,0,0.2,0c0.5-1,1-2,2-2.8c1-0.7,2.1-0.8,3.3-0.8
	c0,1.8,0,3.8,0,5.6c-0.5,0-1,0.2-1.5,0.2c-2.4,0.5-3.4,1.8-3.4,4.3c0,3.1,0,6.4,0,9.5c0,4.1,0,8.2,0,12.3c0,0.2,0,0.3,0,0.5
	c-1.6,0-3.4,0-5.1,0C58.9,35.9,58.9,25.3,58.9,14.5z"/>
<path class="st0" d="M20.9,46.6c-1.8,0-3.4,0-5.1,0c0-10.7,0-21.3,0-32c1.6,0,3.4,0,5.1,0C20.9,25.3,20.9,35.9,20.9,46.6z"/>
<path class="st0" d="M89.6,14.1c0,0,0-0.2,0-0.3c0.2,0,0.3,0,0.5,0c0,0.2,0,0.3,0,0.5C89.9,14.1,89.8,14.1,89.6,14.1z M90.1,14
	C90.1,13.8,90.1,13.8,90.1,14c-0.2-0.2-0.2-0.2-0.3-0.2V14C89.8,14,89.9,14,90.1,14z"/>
<path class="st0" d="M90.3,13.3c-0.2,0-0.3,0-0.5,0.2C89.8,13.5,89.9,13.5,90.3,13.3z"/>
<path class="st0" d="M89.3,14.3c0.2,0.2,0.2,0.2,0.3,0.3C89.4,14.5,89.3,14.5,89.3,14.3z"/>
<path class="st0" d="M89.4,13.5C89.3,13.5,89.3,13.5,89.4,13.5C89.3,13.7,89.3,13.5,89.4,13.5C89.3,13.5,89.3,13.5,89.4,13.5z"/>
</svg>
