<svg width="54" height="71" viewBox="0 0 54 71" fill="none" xmlns="http://www.w3.org/2000/svg">
<path d="M0.0625 14.0312V17.6406C0.0625 19.4219 0.328125 21.1094 0.859375 22.7031C1.42188 24.2969 2.23438 25.6875 3.29688 26.875C4.35938 28.0938 5.67188 29.0625 7.23438 29.7812C8.82812 30.4688 10.6406 30.8125 12.6719 30.8125C14.7031 30.8125 16.5 30.4688 18.0625 29.7812C19.625 29.0625 20.9375 28.0938 22 26.875C23.0312 25.6875 23.8125 24.2969 24.3438 22.7031C24.9062 21.1094 25.1875 19.4219 25.1875 17.6406V14.0312C25.1875 12.25 24.9062 10.5625 24.3438 8.96875C23.8125 7.34375 23.0312 5.92188 22 4.70312C20.9375 3.48438 19.6094 2.53125 18.0156 1.84375C16.4531 1.125 14.6406 0.765625 12.5781 0.765625C10.5469 0.765625 8.75 1.125 7.1875 1.84375C5.625 2.53125 4.32812 3.48438 3.29688 4.70312C2.23438 5.92188 1.42188 7.34375 0.859375 8.96875C0.328125 10.5625 0.0625 12.25 0.0625 14.0312ZM6.53125 17.6406V14.0312C6.53125 13.0625 6.64062 12.125 6.85938 11.2188C7.07812 10.2812 7.4375 9.45312 7.9375 8.73438C8.40625 8.04688 9.01562 7.5 9.76562 7.09375C10.5469 6.65625 11.4844 6.4375 12.5781 6.4375C13.7031 6.4375 14.6406 6.65625 15.3906 7.09375C16.1719 7.5 16.8125 8.04688 17.3125 8.73438C17.7812 9.45312 18.125 10.2812 18.3438 11.2188C18.5938 12.125 18.7188 13.0625 18.7188 14.0312V17.6406C18.7188 18.6094 18.5938 19.5469 18.3438 20.4531C18.125 21.3281 17.7812 22.1094 17.3125 22.7969C16.8438 23.5156 16.2188 24.0938 15.4375 24.5312C14.6875 24.9375 13.7656 25.1406 12.6719 25.1406C11.5469 25.1406 10.5938 24.9375 9.8125 24.5312C9.0625 24.0938 8.4375 23.5156 7.9375 22.7969C7.4375 22.1094 7.07812 21.3281 6.85938 20.4531C6.64062 19.5469 6.53125 18.6094 6.53125 17.6406ZM28.2344 54.1562V57.8125C28.2344 59.5938 28.5 61.2812 29.0312 62.875C29.5938 64.4688 30.4062 65.8594 31.4688 67.0469C32.5312 68.2656 33.8438 69.2344 35.4062 69.9531C37 70.6406 38.8281 70.9844 40.8906 70.9844C42.9219 70.9844 44.7031 70.6406 46.2344 69.9531C47.7969 69.2344 49.1094 68.2656 50.1719 67.0469C51.2344 65.8594 52.0312 64.4688 52.5625 62.875C53.125 61.2812 53.4062 59.5938 53.4062 57.8125V54.1562C53.4062 52.375 53.125 50.6875 52.5625 49.0938C52.0312 47.5 51.2344 46.0938 50.1719 44.875C49.1094 43.6562 47.7969 42.7031 46.2344 42.0156C44.6719 41.2969 42.8594 40.9375 40.7969 40.9375C38.7656 40.9375 36.9688 41.2969 35.4062 42.0156C33.8438 42.7031 32.5312 43.6562 31.4688 44.875C30.4062 46.0938 29.5938 47.5 29.0312 49.0938C28.5 50.6875 28.2344 52.375 28.2344 54.1562ZM34.7031 57.8125V54.1562C34.7031 53.1875 34.8125 52.25 35.0312 51.3438C35.25 50.4375 35.6094 49.625 36.1094 48.9062C36.5781 48.2188 37.1875 47.6719 37.9375 47.2656C38.7188 46.8281 39.6719 46.6094 40.7969 46.6094C41.8906 46.6094 42.8281 46.8281 43.6094 47.2656C44.3906 47.6719 45.0312 48.2188 45.5312 48.9062C46 49.625 46.3438 50.4375 46.5625 51.3438C46.7812 52.25 46.8906 53.1875 46.8906 54.1562V57.8125C46.8906 58.7812 46.7812 59.7188 46.5625 60.625C46.3438 61.5312 46 62.3281 45.5312 63.0156C45.0625 63.7344 44.4375 64.3125 43.6562 64.75C42.9062 65.1562 41.9844 65.3594 40.8906 65.3594C39.7656 65.3594 38.8125 65.1562 38.0312 64.75C37.25 64.3125 36.625 63.7344 36.1562 63.0156C35.6562 62.3281 35.2812 61.5312 35.0312 60.625C34.8125 59.7188 34.7031 58.7812 34.7031 57.8125ZM16.6562 61.1875L43.2344 12.5781L38.0312 9.67188L11.4531 58.2812L16.6562 61.1875Z" fill="#3A3080"/>
</svg>
