<?xml version="1.0" encoding="utf-8"?>
<!-- Generator: Adobe Illustrator 25.2.3, SVG Export Plug-In . SVG Version: 6.00 Build 0)  -->
<svg version="1.1" id="Layer_1" xmlns="http://www.w3.org/2000/svg" xmlns:xlink="http://www.w3.org/1999/xlink" x="0px" y="0px"
	 viewBox="0 0 134 24" style="enable-background:new 0 0 134 24;" xml:space="preserve">
<style type="text/css">
	.st0{fill:#CACACA;}
</style>
<path class="st0" d="M62.7,0.2c0.8,0,1.4,0,2.2,0c2.2,0,4.7,0,6.9,0c3.5,0.2,6.3,1.4,8.6,3.9c4.7,5.5,3.3,15.6-5.7,18
	c-1,0.2-2.2,0.4-3.3,0.4c-2.7,0-5.3,0-8.2,0c-0.2,0-0.4,0-0.6,0C62.7,15.4,62.7,7.8,62.7,0.2z M66.6,3.9c0,5.1,0,10.3,0,15.4
	c2.2,0,4.5,0.2,6.7-0.4c1.8-0.4,3.3-1.4,4.3-2.9c1-1.6,1.4-3.5,1.2-5.3c-0.4-3.3-2.5-5.7-5.7-6.6C71,3.7,68.8,3.9,66.6,3.9z"/>
<path class="st0" d="M1.2,0.4c5.3,0,10.4,0,15.7,0c0,1.2,0,2.3,0,3.5c-3.9,0-7.8,0-11.6,0c0,2.1,0,4.1,0,6.2c3.5,0,6.7,0,10.2,0
	c0,1.2,0,2.5,0,3.7c-3.5,0-6.7,0-10.2,0c0,3.1,0,6.2,0,9.2c-1.4,0-2.7,0-3.9,0C1.2,15.4,1.2,7.8,1.2,0.4z"/>
<path class="st0" d="M120.7,13.1c0.2-1.6-0.4-2.9-2-3.3c-1.8-0.4-3.5-0.2-5.3,0.6c-0.2,0.2-0.4,0.2-0.8,0.4c-0.4-1-0.8-2.1-1.4-3.1
	c1-0.6,2-1,3.3-1.2c2-0.4,3.9-0.4,5.7,0.2c2.5,0.6,3.9,2.3,4.1,5.1c0.2,3.7,0,7.2,0,10.9c-1.2,0-2.5,0-3.7,0c0-0.4,0-1,0-1.6
	c-0.2,0-0.2,0.2-0.4,0.2c-0.8,1-2,1.6-3.5,1.8c-1.2,0.2-2.5,0.2-3.7-0.2c-2.2-0.6-3.5-2.5-3.5-4.7s1-4.1,3.3-4.9
	c1.4-0.6,2.9-0.6,4.5-0.4C118.6,12.7,119.7,12.9,120.7,13.1z M120.7,16.2c-1.2-0.6-4.1-0.8-5.1-0.6c-0.6,0.2-1,0.4-1.4,0.8
	c-1,1-1,2.7,0.4,3.3C117.8,21.5,120.9,18.9,120.7,16.2z"/>
<path class="st0" d="M86,10.9c-0.4-1-0.8-2.1-1.4-3.1c1-0.6,2-1,3.3-1.2c1.8-0.4,3.9-0.4,5.7,0.2c2.5,0.6,4.1,2.5,4.1,5.1
	c0.2,3.5,0,7.2,0,10.7v0.2c-1.2,0-2.2,0-3.7,0c0-0.6,0-1,0-1.6c-0.2,0.2-0.2,0.2-0.4,0.2c-0.8,1-2,1.6-3.3,1.8
	c-1.4,0.2-3.1,0.2-4.3-0.6c-1.8-0.8-2.7-2.1-2.9-4.1c-0.2-3.1,1.6-5.3,4.7-5.7c1.8-0.2,3.7,0,5.5,0.4c0.2,0,0.4,0,0.6,0.2
	c0.4-1.4-0.4-2.9-2-3.3c-1.8-0.4-3.5-0.2-5.3,0.4C86.6,10.5,86.4,10.7,86,10.9z M94.1,16.2c-1.2-0.6-4.1-1-5.3-0.6
	c-0.6,0.2-1.2,0.4-1.6,0.8c-1,1-0.8,2.5,0.4,3.3c1.4,0.8,2.9,0.8,4.3,0.2C93.3,19.1,93.9,17.8,94.1,16.2z"/>
<path class="st0" d="M33.5,20.9c0.6-0.8,1.2-1.6,1.8-2.5c0,0,0.2-0.2,0.2-0.4c1.2,1.2,2.9,1.8,4.5,1.8c0.4,0,0.8,0,1.2-0.2
	c1-0.4,1.2-1.8,0.2-2.5c-0.6-0.4-1.2-0.6-1.8-0.8c-1.2-0.4-2.5-0.8-3.5-1.4c-2.7-1.6-2.7-5.7-0.2-7.4c0.8-0.6,1.6-1,2.7-1
	c2-0.2,4.1,0,5.9,1.2c0.2,0,0.2,0.2,0.4,0.2l0.2,0.2c-0.6,0.8-1.2,1.8-1.8,2.7c-1-0.4-1.8-0.8-2.7-1c-0.6-0.2-1.2,0-1.6,0
	c-0.6,0.2-1,0.6-1.2,1.2s0.2,1.2,0.8,1.6c0.4,0.2,1,0.4,1.4,0.6c0.8,0.2,1.6,0.6,2.7,0.8c0.2,0,0.4,0.2,0.8,0.4
	c1.8,0.8,2.7,2.3,2.7,4.1c0,1.8-1,3.5-2.9,4.1C39.6,23.8,36.3,23.2,33.5,20.9z"/>
<path class="st0" d="M108.2,19.5c0.4,1,0.8,1.8,1.2,2.9c-0.6,0.6-1.4,0.6-2,0.8c-1,0.2-2,0.2-3.1-0.2c-1.8-0.4-2.9-1.8-3.3-3.7
	c0-0.6-0.2-1.2-0.2-1.8c0-2.3,0-4.5,0-6.8c0-0.2,0-0.6,0-0.8c-0.8,0-1.4,0-2.2,0c0-1,0-2.1,0-3.3c0.6,0,1.4,0,2,0c0-1.2,0-2.3,0-3.5
	c1.2,0,2.5,0,3.7,0c0,1,0,2.3,0,3.3c1.2,0,2.5,0,3.7,0c0,1,0,2.1,0,3.3c-1.2,0-2.5,0-3.7,0c0,0.4,0,0.6,0,0.8c0,2.3,0,4.5,0,6.8v0.2
	c0,2.1,1.2,2.7,3.1,2.1C107.8,19.7,108,19.5,108.2,19.5z"/>
<path class="st0" d="M49,9.8c-0.8,0-1.4,0-2.2,0c0-1,0-2.1,0-3.3c0.6,0,1.4,0,2.2,0c0-1.2,0-2.3,0-3.5c1.2,0,2.5,0,3.7,0
	c0,1,0,2.3,0,3.3c1.2,0,2.5,0,3.7,0c0,1,0,2.1,0,3.3c-1.2,0-2.2,0-3.5,0c0,0.2,0,0.4,0,0.6c0,2.5,0,4.9,0,7.4c0,0.2,0,0.6,0.2,0.8
	c0.2,0.8,0.6,1.2,1.4,1.2c0.6,0,1.2-0.2,2-0.2c0.2,0.4,0.4,0.8,0.6,1.2c0.2,0.4,0.4,1,0.6,1.6c-0.6,0.2-1,0.4-1.4,0.6
	c-1.2,0.2-2.2,0.2-3.5,0c-2-0.4-3.5-2.1-3.5-4.3c0-2.7,0-5.1,0-7.8C49,10.7,49,10.3,49,9.8z"/>
<path class="st0" d="M33.1,10c-0.4,0-0.8,0-1,0c-2.7-0.2-4.1,1.2-4.1,3.9c0,2.1,0,3.9,0,5.9c0,1,0,1.8,0,2.9c-1.2,0-2.5,0-3.7,0
	c0-5.3,0-10.7,0-16c1.2,0,2.5,0,3.7,0c0,0.6,0,1.2,0,1.8c0.8-0.8,1.4-1.4,2.5-1.8c1-0.4,1.8-0.4,2.9-0.4C33.1,7.6,33.1,8.8,33.1,10z
	"/>
<path class="st0" d="M21.8,22.8c-1.2,0-2.5,0-3.7,0c0-5.3,0-10.7,0-16c1.2,0,2.5,0,3.7,0C21.8,12.1,21.8,17.4,21.8,22.8z"/>
<path class="st0" d="M132.3,22.8c-0.2,0-0.2,0-0.4,0c0-0.8,0-1.4,0-2.3c0,0,0,0-0.2,0c-0.2,0.8-0.6,1.4-0.8,2.3c-0.2,0-0.4,0-0.6,0
	c-0.2-0.8-0.6-1.4-0.8-2.3h-0.2c0,0.6,0,1.4,0,2.3c-0.2,0-0.2,0-0.4,0c0-1,0-1.8,0-2.9c0.2,0,0.6,0,0.8,0c0.2,0.8,0.4,1.4,0.8,2.5
	c0.4-1,0.6-1.6,0.8-2.5c0.2,0,0.6,0,0.8,0C132.3,20.7,132.3,21.7,132.3,22.8z"/>
<path class="st0" d="M127.4,22.8c-0.2,0-0.4,0-0.6,0c0-0.8,0-1.6,0-2.3c-0.2-0.4-0.8,0.2-0.8-0.6c0.8,0,1.6,0,2.5,0c0,0,0,0.2,0,0.4
	c-0.4,0-0.6,0-1,0C127.4,21.1,127.4,21.9,127.4,22.8z"/>
</svg>
