<svg width="62" height="62" viewBox="0 0 62 62" fill="none" xmlns="http://www.w3.org/2000/svg">
<path d="M61.3732 0H0.0351562V61.5664H61.384V41.2473C61.6417 40.8437 61.7685 40.3704 61.7474 39.892C61.7474 39.2633 61.6277 38.8717 61.384 38.5432" fill="#CACACA"/>
<path d="M5.56526 26.6404L4.38396 23.7644L3.21137 26.6404H5.56526ZM31.5602 25.4961C31.2949 25.6227 30.9999 25.6739 30.7074 25.644H28.6124V24.0428H30.7357C31.014 24.0209 31.2935 24.0649 31.5515 24.1712C31.669 24.2288 31.7664 24.3203 31.8312 24.434C31.896 24.5477 31.9251 24.6782 31.9148 24.8086C31.9244 24.9447 31.8964 25.0808 31.8339 25.202C31.7713 25.3233 31.6767 25.425 31.5602 25.4961ZM46.4993 26.6404L45.3072 23.7644L44.1215 26.6404H46.4993ZM18.653 29.7535H16.8865V24.0972L14.3869 29.7535H12.864L10.3579 24.0972V29.7535H6.84662L6.19398 28.1436H2.60441L1.93436 29.7535H0.0612611L3.14829 22.5396H5.71102L8.63705 29.3684V22.5396H11.45L13.706 27.4322L15.7792 22.5396H18.6487V29.7535H18.653ZM25.6973 29.7535H19.9344V22.5396H25.6929V24.0428H21.6596V25.3481H25.5972V26.8275H21.6596V28.2676H25.6929L25.6973 29.7535ZM33.8227 24.4823C33.8354 24.8876 33.7263 25.2875 33.5095 25.6303C33.2927 25.9731 32.9783 26.243 32.6066 26.4054C32.9403 26.5275 33.2348 26.7371 33.4594 27.0124C33.7031 27.3713 33.7466 27.6911 33.7466 28.3351V29.7535H32.0062V28.842C32.0062 28.4069 32.0475 27.7847 31.7343 27.4388C31.4819 27.1842 31.099 27.1299 30.479 27.1299H28.6277V29.7535H26.9025V22.5396H30.8684C31.7386 22.5396 32.3913 22.5635 32.9569 22.8855C33.5225 23.2074 33.8227 23.6773 33.8227 24.4823ZM36.5813 29.7535H34.8213V22.5396H36.5813V29.7535ZM56.9896 29.7535H54.5378L51.2745 24.3387V29.7535H47.7589L47.0867 28.1436H43.5059L42.8532 29.7535H40.8365C39.999 29.7535 38.9373 29.5664 38.3369 28.9551C37.7364 28.3438 37.4145 27.5127 37.4145 26.2009C37.4145 25.1306 37.6037 24.1538 38.3434 23.3728C38.9025 22.7963 39.7749 22.5309 40.954 22.5309H42.6226V24.0776H41.0019C40.3731 24.0776 40.0185 24.1712 39.6748 24.5127C39.3811 24.8173 39.1788 25.3829 39.1788 26.1465C39.1788 26.9101 39.3333 27.4758 39.6531 27.8412C39.9185 28.1262 40.4014 28.2132 40.8561 28.2132H41.6306L44.0476 22.5396H46.632L49.5602 29.3684V22.5396H52.1839L55.2144 27.5628V22.5396H56.9809V29.7535H56.9896ZM0.0438568 31.1697H2.98948L3.653 29.5664H5.14104L5.79369 31.1697H11.5914V29.9449L12.107 31.1741H15.1135L15.6313 29.9254V31.1697H30.0374V28.5396H30.3158C30.5116 28.5396 30.5682 28.5635 30.5682 28.8877V31.1697H38.0171V30.5563C38.8759 30.9826 39.8258 31.1931 40.7843 31.1697H43.9192L44.5892 29.5664H46.0773L46.7299 31.1697H52.7691V29.6469L53.685 31.1697H58.5233V21.1016H53.7372V22.2894L53.0563 21.1016H48.1418V22.2894L47.5283 21.1016H40.8887C39.7771 21.1016 38.8003 21.256 38.0106 21.6889V21.1016H33.429V21.6889C32.9286 21.243 32.2433 21.1016 31.4819 21.1016H14.7458L13.6233 23.7122L12.4703 21.1016H7.19905V22.2894L6.62907 21.1016H2.12363L0.0351562 25.8876V31.1654L0.0438568 31.1697Z" fill="white"/>
<path d="M61.3734 36.4891H58.2298C57.9899 36.4612 57.7472 36.5067 57.5337 36.6196C57.4486 36.6754 57.3802 36.7532 57.3358 36.8448C57.2913 36.9363 57.2725 37.0382 57.2813 37.1396C57.277 37.2579 57.3114 37.3744 57.3794 37.4714C57.4473 37.5683 57.545 37.6405 57.6577 37.6769C57.8734 37.7413 58.0985 37.7685 58.3234 37.7574L59.2567 37.7835C60.1987 37.8074 60.8296 37.9684 61.2146 38.3644C61.2757 38.4167 61.3298 38.4766 61.3756 38.5427L61.3734 36.4891ZM61.3756 41.2469C60.9557 41.8582 60.1399 42.1693 59.0348 42.1693H55.7063V40.6225H59.0217C59.3502 40.6225 59.5808 40.579 59.7201 40.4441C59.7846 40.3837 59.8359 40.3105 59.8707 40.2293C59.9055 40.148 59.9231 40.0604 59.9224 39.972C59.9249 39.8813 59.9067 39.7911 59.869 39.7086C59.8312 39.626 59.7751 39.5531 59.7048 39.4956C59.529 39.3677 59.3117 39.3103 59.0957 39.3346C57.4771 39.2802 55.4583 39.3847 55.4583 37.1026C55.4583 36.0562 56.1109 34.9554 57.9318 34.9554H61.3669V33.5195H58.1885C57.2248 33.5195 56.5264 33.7501 56.0304 34.1091V33.5195H51.3052C50.5504 33.5195 49.6649 33.7066 49.2451 34.1091V33.5195H40.8172V34.1091C40.1471 33.624 39.0159 33.5195 38.4938 33.5195H32.9354V34.1091C32.4046 33.5935 31.2233 33.5195 30.5054 33.5195H24.2835L22.8607 35.0598L21.5271 33.5195H12.2334V43.5855H21.3509L22.8172 42.0214L24.2008 43.5855H29.8201V41.223H30.3727C31.1189 41.2338 31.9978 41.2034 32.7657 40.8683V43.5855H37.4017V40.9619H37.6192C37.9042 40.9619 37.9325 40.9619 37.9325 41.2599V43.5855H52.0319C52.926 43.5855 53.8593 43.3571 54.377 42.9329V43.5855H58.8412C59.7701 43.5855 60.6773 43.455 61.3691 43.1222V41.2469H61.3756ZM54.4902 38.3644C54.8252 38.7103 55.0058 39.1497 55.0058 39.8872C55.0058 41.4405 54.0355 42.1649 52.2973 42.1649H48.9448V40.6182H52.2886C52.5375 40.6477 52.7885 40.5842 52.9934 40.4398C53.0583 40.3795 53.11 40.3065 53.1452 40.2252C53.1804 40.1439 53.1984 40.0563 53.1979 39.9677C53.1985 39.8772 53.1793 39.7878 53.1417 39.7055C53.1042 39.6232 53.0491 39.5501 52.9804 39.4913C52.8021 39.3652 52.5841 39.308 52.3669 39.3303C50.7548 39.2759 48.736 39.3803 48.736 37.0982C48.736 36.0518 49.3886 34.951 51.2008 34.951H54.6555V36.4869H51.501C51.2628 36.4584 51.0214 36.5032 50.8092 36.6153C50.7198 36.6776 50.6488 36.7629 50.6038 36.8622C50.5589 36.9616 50.5416 37.0712 50.5539 37.1796C50.5662 37.2879 50.6075 37.3909 50.6735 37.4777C50.7395 37.5645 50.8278 37.6318 50.9289 37.6726C51.1458 37.7384 51.3725 37.7663 51.5989 37.7552L52.5279 37.7792C53.4633 37.8074 54.1051 37.9684 54.4902 38.3644ZM38.9332 37.9184C38.6672 38.0426 38.3728 38.0937 38.0804 38.0663H35.9985V36.4477H38.1218C38.4023 36.4226 38.6846 36.4667 38.9441 36.5761C39.0595 36.6396 39.1545 36.7348 39.2177 36.8504C39.2809 36.966 39.3097 37.0973 39.3009 37.2288C39.3065 37.3653 39.276 37.5009 39.2127 37.6219C39.1493 37.743 39.0551 37.8452 38.9397 37.9184H38.9332ZM39.9731 38.8169C40.3063 38.9351 40.5995 39.1447 40.8194 39.4216C41.0609 39.7741 41.0978 40.1026 41.1044 40.7378V42.1693H39.364V41.2665C39.364 40.8314 39.4053 40.1896 39.0855 39.8546C38.8331 39.5957 38.4503 39.5348 37.8215 39.5348H35.9985V42.1693H34.2581V34.9554H38.2371C39.1073 34.9554 39.7469 34.9923 40.3125 35.2947C40.5983 35.4483 40.8339 35.681 40.9909 35.965C41.148 36.2489 41.2198 36.5721 41.1979 36.8959C41.2111 37.3014 41.102 37.7014 40.8847 38.044C40.6674 38.3867 40.352 38.6559 39.9796 38.8169H39.9731ZM42.1486 34.9554H47.9028V36.4456H43.8759V37.7509H47.8136V39.2237H43.8759V40.6595H47.9115V42.1562H42.1573L42.1486 34.9554ZM30.5271 38.2882H28.2994V36.4521H30.5467C31.1689 36.4521 31.6018 36.7045 31.6018 37.3353C31.6018 37.9662 31.1885 38.2882 30.5271 38.2882ZM26.5808 41.5166L23.9354 38.5776L26.5808 35.7342V41.5166ZM19.7454 40.6704H15.5075V39.2346H19.2929V37.7617H15.5075V36.4564H19.8302L21.7142 38.5602L19.7454 40.6704ZM33.451 37.3353C33.451 39.339 31.9564 39.7523 30.4488 39.7523H28.2994V42.1736H24.947L22.8259 39.7806L20.6177 42.1736H13.7889V34.9554H20.7243L22.8455 37.3201L25.0383 34.9554H30.5467C31.9151 34.9554 33.451 35.3339 33.451 37.331V37.3353Z" fill="white"/>
</svg>
