<svg width="45" height="90" viewBox="0 0 45 90" fill="none" xmlns="http://www.w3.org/2000/svg">
<path d="M35.5156 62.4219C35.5156 64.1406 35.2031 65.6875 34.5781 67.0625C33.9844 68.4062 33.125 69.5469 32 70.4844C30.875 71.4531 29.5 72.1875 27.875 72.6875C26.25 73.1875 24.4219 73.4375 22.3906 73.4375C20.7969 73.4375 19.2188 73.2188 17.6562 72.7812C16.0938 72.3438 14.7031 71.6094 13.4844 70.5781C12.2344 69.5469 11.2188 68.1719 10.4375 66.4531C9.65625 64.7031 9.26562 62.5156 9.26562 59.8906H0.59375C0.59375 63.4219 1.10938 66.4531 2.14062 68.9844C3.17188 71.5156 4.54688 73.6094 6.26562 75.2656C7.98438 76.9531 9.95312 78.2344 12.1719 79.1094C14.4219 79.9844 16.7656 80.5469 19.2031 80.7969V89.75H26.1875V80.75C28.9062 80.4688 31.375 79.8594 33.5938 78.9219C35.8438 77.9844 37.75 76.7344 39.3125 75.1719C40.875 73.6406 42.0781 71.7969 42.9219 69.6406C43.7969 67.4844 44.2344 65.0469 44.2344 62.3281C44.2344 59.5469 43.7969 57.1094 42.9219 55.0156C42.0781 52.9219 40.8438 51.0781 39.2188 49.4844C37.5938 47.8906 35.6094 46.5 33.2656 45.3125C30.9219 44.125 28.2812 43.0469 25.3438 42.0781C22.9375 41.2656 20.875 40.4375 19.1562 39.5938C17.4688 38.7188 16.0938 37.7812 15.0312 36.7812C13.9375 35.7812 13.1406 34.6719 12.6406 33.4531C12.1406 32.2344 11.8906 30.8438 11.8906 29.2812C11.8906 27.6875 12.1094 26.25 12.5469 24.9688C13.0156 23.6562 13.6875 22.5312 14.5625 21.5938C15.5 20.5625 16.7031 19.7656 18.1719 19.2031C19.6719 18.6406 21.4219 18.3594 23.4219 18.3594C25.2656 18.3594 26.9062 18.7188 28.3438 19.4375C29.7812 20.1562 31 21.1406 32 22.3906C32.9688 23.6719 33.7031 25.2031 34.2031 26.9844C34.7344 28.7344 35 30.6562 35 32.75H43.625C43.5938 29.1562 43.1094 25.9844 42.1719 23.2344C41.2344 20.4531 39.875 18.125 38.0938 16.25C36.7188 14.8438 35.0938 13.7031 33.2188 12.8281C31.3438 11.9219 29.2656 11.3125 26.9844 11V0.6875H20V11C17.4688 11.3125 15.1562 11.9531 13.0625 12.9219C11 13.8906 9.25 15.1563 7.8125 16.7188C6.34375 18.3125 5.20312 20.1719 4.39062 22.2969C3.60938 24.4219 3.21875 26.7969 3.21875 29.4219C3.21875 32.2031 3.67188 34.6562 4.57812 36.7812C5.48438 38.9062 6.78125 40.7812 8.46875 42.4062C10.125 44.0625 12.125 45.4844 14.4688 46.6719C16.8125 47.8594 19.4375 48.9062 22.3438 49.8125C24.6562 50.5625 26.6562 51.3906 28.3438 52.2969C30.0312 53.1719 31.4062 54.125 32.4688 55.1562C33.5312 56.1875 34.2969 57.3125 34.7656 58.5312C35.2656 59.7188 35.5156 61.0156 35.5156 62.4219Z" fill="#3A3080"/>
</svg>
