<?xml version="1.0" encoding="utf-8"?>
<!-- Generator: Adobe Illustrator 25.2.3, SVG Export Plug-In . SVG Version: 6.00 Build 0)  -->
<svg version="1.1" id="Layer_1" xmlns="http://www.w3.org/2000/svg" xmlns:xlink="http://www.w3.org/1999/xlink" x="0px" y="0px"
	 viewBox="0 0 109 50" style="enable-background:new 0 0 109 50;" xml:space="preserve">
<style type="text/css">
	.st0{fill:#CACACA;}
</style>
<path class="st0" d="M2.6,21.6c0.2,0,0.2,0,0.3,0c5.8,0,11.8,0,17.6,0c0.2,0,0.2,0,0.3,0c0,1,0,2.1,0,3.1c-4.8,0-9.9,0-14.9,0
	c0,2.8,0,5.7,0,8.4c4.5,0,9.2,0,13.7,0c0,1,0,1.9,0,3.1c-4.5,0-9.2,0-13.7,0c0,3.1,0,6.2,0,9.1c5,0,9.9,0,14.9,0c0,1,0,2.1,0,3.1
	c-0.2,0-0.2,0-0.3,0c-6,0-12,0-17.9,0H2.4C2.6,39.4,2.6,30.5,2.6,21.6z"/>
<path class="st0" d="M36.5,48.7c-0.3,0-0.6-0.2-0.8-0.2c-1-0.2-1.9-0.5-2.7-1.3c-0.8-0.6-1.3-1.5-1.6-2.4c-0.2-0.8-0.2-1.6-0.2-2.3
	c0-0.6,0.2-1.3,0.5-1.9c0.3-0.6,0.8-1.3,1.5-1.6c0.8-0.6,1.8-1,2.7-1.1c1-0.2,1.9-0.5,2.9-0.6c0.6-0.2,1.3-0.2,1.9-0.3
	c0.6-0.2,1.3-0.3,2.1-0.5c0.5-0.2,0.8-0.3,1.1-0.6c0.2-0.3,0.3-0.5,0.5-0.8c0.2-1,0-1.8-0.6-2.4c-0.3-0.3-0.6-0.6-1.1-0.8
	c-0.5-0.2-1-0.3-1.6-0.3c-0.5,0-0.8,0-1.3,0c-0.8,0-1.8,0.2-2.4,0.5c-1,0.5-1.5,1.1-1.6,2.1c0,0.2,0,0.5-0.2,0.6c0,0,0,0.2,0,0.3
	c-1.1,0-2.1,0-3.2,0c0-0.3,0-0.5,0-0.6c0.2-0.5,0.2-1,0.3-1.6c0.2-0.6,0.6-1.3,1.1-1.9c0.8-1,1.8-1.5,2.9-1.8
	c0.6-0.2,1.3-0.3,1.9-0.5c0.5,0,0.8,0,1.3-0.2c0.3,0,0.8,0,1.1,0c1.3,0,2.6,0.2,3.7,0.6c1.1,0.5,1.9,1.1,2.6,2.1
	c0.3,0.5,0.5,1.1,0.5,1.8c0,1,0,1.8,0,2.8c0,2.9,0,5.8,0,8.8c0,0.3,0,0.5,0.2,0.8c0,0.5,0.3,0.6,0.8,0.6c0.3,0,0.6-0.2,0.8-0.2h0.2
	c0,0.8,0,1.6,0,2.4c-0.2,0.2-0.5,0.3-0.8,0.3c-0.2,0-0.5,0.2-0.6,0.2c-0.5,0-1,0-1.5,0c0,0,0,0-0.2,0c-0.6-0.2-1.1-0.5-1.5-1
	c-0.3-0.5-0.5-1-0.5-1.5c0-0.2,0-0.2,0-0.3c-0.2,0.2-0.2,0.2-0.2,0.3c-0.5,0.5-1.1,1-1.8,1.5c-0.8,0.5-1.6,0.8-2.6,1
	c-0.3,0-0.6,0.2-1.1,0.2C37.9,48.7,37.3,48.7,36.5,48.7z M44.1,38.4c-0.3,0.2-0.5,0.2-0.6,0.3c-1,0.3-1.9,0.5-2.9,0.6
	c-0.8,0.2-1.5,0.2-2.3,0.3c-0.8,0.2-1.5,0.3-2.1,0.8c-0.5,0.3-1,0.6-1.1,1.3c-0.3,0.5-0.3,1-0.3,1.6c0,0.8,0.3,1.6,1.1,2.1
	c0.6,0.5,1.5,0.6,2.3,0.6c0.3,0,0.6,0,1,0c0.3,0,0.8,0,1.1-0.2c1.3-0.3,2.4-1,3.2-1.9c0.5-0.6,0.8-1.3,0.8-1.9
	C44.3,40.7,44.3,39.6,44.1,38.4C44.3,38.4,44.3,38.4,44.1,38.4z"/>
<path class="st0" d="M76.4,48.7c-0.3,0-0.5-0.2-0.8-0.2c-0.6-0.2-1.3-0.3-1.9-0.5c-0.6-0.3-1.3-0.6-1.8-1.1c-0.6-0.5-1.1-1-1.6-1.6
	c-1-1.3-1.5-2.6-1.8-4.2c-0.2-1-0.2-2.1-0.2-3.1c0-1.5,0.3-2.8,0.8-4.1c0.3-0.8,0.8-1.6,1.3-2.4c0.6-0.6,1.3-1.3,2.1-1.8
	c0.8-0.5,1.8-0.8,2.7-1.1c0.6-0.2,1.3-0.2,1.9-0.2c0.5,0,1,0,1.5,0c1,0.2,1.9,0.3,2.9,0.6c0.8,0.3,1.5,0.6,2.1,1.1
	c0.5,0.3,0.8,0.8,1.3,1.3s0.8,1.1,1.1,1.8c0.5,0.8,0.6,1.8,0.8,2.8c0.2,1.1,0.3,2.3,0.2,3.4c0,1-0.2,1.9-0.5,2.8
	c-0.3,1-0.6,1.9-1.3,2.8c-0.8,1.1-1.8,1.9-2.9,2.6c-1,0.5-1.8,0.8-2.9,1c-0.2,0-0.3,0-0.5,0.2C78,48.7,77.2,48.7,76.4,48.7z
	 M83.5,38.6c0-0.5,0-1.1-0.2-1.6c-0.2-0.8-0.3-1.6-0.8-2.4c-0.3-0.6-0.8-1.3-1.5-1.8c-0.3-0.3-0.8-0.6-1.1-0.8
	c-1-0.5-1.9-0.6-3.1-0.5c-0.8,0.2-1.6,0.3-2.3,0.8c-1,0.5-1.6,1.3-2.1,2.3c-0.6,1.3-1,2.6-1,4.1c0,0.3,0,0.6,0,0.8
	c0,0.5,0.2,1.1,0.2,1.6c0.3,1.5,1,2.8,2.3,3.7c1,0.8,2.1,1.1,3.2,1.3c0.3,0,0.5,0,0.8,0c0.6,0,1.3-0.2,1.9-0.5
	c0.6-0.3,1.3-0.8,1.8-1.5c0.6-0.6,1-1.5,1.3-2.3C83.3,40.7,83.7,39.7,83.5,38.6z"/>
<path class="st0" d="M106.3,48.3c-1,0-2.1,0-3.1,0c0,0,0,0-0.2,0c0-0.2,0-0.2,0-0.3c0-4.4,0-8.6,0-13c0-1.1-0.3-2.1-1.1-2.8
	c-0.5-0.5-1.1-0.6-1.8-0.8c-0.3,0-0.8-0.2-1.1-0.2c-1.3,0-2.4,0.3-3.4,1.1c-0.6,0.5-1.1,1.1-1.5,1.9c-0.2,0.5-0.3,1.1-0.5,1.6
	c0,0.2,0,0.5,0,0.6c0,3.7,0,7.5,0,11.2c0,0.2,0,0.2,0,0.3c-1.1,0-2.1,0-3.2,0c0-6.5,0-13,0-19.3c1,0,1.9,0,3.1,0c0,1,0,1.9,0,3.1
	c0.2-0.3,0.5-0.6,0.6-1c0.5-0.6,1.1-1.3,1.9-1.6c0.6-0.3,1.3-0.6,2.1-0.8c0.3,0,0.6-0.2,1.1-0.2c0.2,0,0.5,0,0.6,0
	c0.5,0,0.8,0,1.3,0.2c0.6,0,1.3,0.2,1.9,0.5c0.6,0.2,1.1,0.5,1.6,1c1,0.8,1.5,1.9,1.6,3.2c0,0.3,0.2,0.8,0.2,1.3c0,0,0,0,0,0.2
	C106.3,39.1,106.3,43.8,106.3,48.3z"/>
<path class="st0" d="M58.8,44.9c1.8-5.4,3.6-10.7,5.2-16.1c1.1,0,2.3,0,3.4,0c-0.2,0.3-0.2,0.6-0.3,0.8c-0.3,1-0.6,1.8-1,2.8
	c-0.5,1.1-0.8,2.3-1.3,3.6c-0.5,1.6-1.1,3.1-1.6,4.7c-0.3,1-0.6,1.9-1.1,2.9c-0.5,1.1-0.8,2.4-1.3,3.6c-0.2,0.3-0.3,0.8-0.5,1.1
	c-1.1,0-2.3,0-3.4,0c-0.2-0.2-0.2-0.5-0.3-0.6c-0.5-1.3-1-2.6-1.5-3.7c-0.5-1.5-1.1-2.9-1.6-4.2c-0.5-1.3-1-2.6-1.5-3.9
	c-0.3-1-0.6-1.9-1.1-2.9c-0.5-1.1-0.8-2.3-1.3-3.4c0-0.2-0.2-0.3-0.2-0.5c1.1,0,2.4,0,3.6,0c0,0.2,0.2,0.3,0.2,0.5
	c0.5,1.6,1.1,3.2,1.6,4.7c0.6,1.8,1.3,3.6,1.8,5.5C57.5,41.5,58.1,43.1,58.8,44.9C58.6,44.9,58.8,44.9,58.8,44.9z"/>
<path class="st0" d="M24.7,21.6c1.1,0,2.1,0,3.2,0c0,8.9,0,17.8,0,26.8c-1.1,0-2.1,0-3.2,0C24.7,39.4,24.7,30.5,24.7,21.6z"/>
<path class="st0" d="M84,8.4l3.1,0.8h0.2c1,0.5,1.8,1,2.4,1.8c0.3,0.5,0.8,1,1,1.5c0.5,0.8,0.8,1.6,1,2.6c0.2,0.8,0.3,1.8,0.3,2.6
	c0,0.6,0,1.3,0,1.9c0,0.5,0,0.8-0.2,1.3c-0.2,0.6-0.2,1.3-0.3,1.9c-0.3,1.1-0.6,2.4-1,3.6c0,0.3-0.2,0.6-0.3,0.8c0,0,0-0.2,0.2-0.2
	c0.5-0.8,0.8-1.6,1.1-2.4c0.6-1.6,1.1-3.4,1.5-5.2c0.2-0.8,0.3-1.6,0.3-2.4c0-1.3,0-2.6-0.2-3.9c-0.2-0.8-0.3-1.6-0.8-2.4
	c-0.5-1-1.1-1.8-1.9-2.6C89.7,7.6,89,7.3,88.4,7c-0.5-0.2-1-0.3-1.5-0.5L84,6c-0.2,0-0.2,0-0.3,0c-0.8,0-1.5,0-2.3,0
	c-0.6,0-1.3,0.2-1.9,0.2c-0.6,0-1.3,0.2-1.8,0.2l-2.1,0.5c-1,0.3-1.8,0.5-2.7,0.8c-1.3,0.5-2.7,0.8-4,1.5C68,9.4,67,9.9,66.2,10.2
	c-1.1,0.6-2.4,1.3-3.6,1.9c-1.1,0.6-2.1,1.3-3.2,1.9c-1.1,0.6-2.3,1.5-3.2,2.3c-1.3,1-2.7,1.9-4,3.1c-0.8,0.6-1.5,1.1-2.3,1.8
	c-0.6,0.6-1.3,1.1-2.1,1.8c-0.6,0.5-1.1,1.1-1.8,1.6c-0.6,0.5-1.1,1.1-1.8,1.6c-0.2,0.2-0.3,0.3-0.5,0.3c-0.2,0.2-0.2,0.2-0.3,0.3
	c0.2,0,0.2-0.2,0.3-0.2c0.5-0.3,0.8-0.8,1.3-1.1c0.6-0.6,1.5-1.1,2.1-1.6c0.8-0.6,1.8-1.3,2.6-1.9c0.6-0.5,1.3-1,1.9-1.5
	c1.5-1,2.7-1.9,4.2-2.9c1.5-1,3.1-1.9,4.5-2.8c1.1-0.6,2.1-1.1,3.2-1.8c0.5-0.3,1-0.5,1.5-0.8c1-0.5,1.9-1,2.9-1.3
	c1.6-0.6,3.4-1.3,5.2-1.8c0.3-0.2,0.6-0.2,1-0.2l1.6-0.3C78.5,8.3,81.3,8,84,8.4z"/>
<path class="st0" d="M71.2,13.6c-1,1.5-1.9,2.9-2.7,4.4c-1,1.5-1.8,2.9-2.7,4.5c-1,1.5-1.8,2.9-2.6,4.5c0.5-0.8,1-1.6,1.5-2.4
	c1.1-1.8,2.3-3.4,3.4-5.2c0.8-1.3,1.8-2.6,2.7-3.9c0.8-1.1,1.6-2.3,2.6-3.4c0.8-1.1,1.8-2.3,2.6-3.2l-1.6,0.3
	C73.2,10.7,72.2,12.2,71.2,13.6z"/>
<path class="st0" d="M84,8.4c0,0.2,0,0.2,0,0.3c0,0.6-0.2,1.3-0.3,1.9c-0.2,1-0.3,1.8-0.5,2.8c-0.3,1.8-0.8,3.6-1.3,5.4
	c-0.6,1.9-1.3,3.7-2.3,5.5c-0.5,1-1.1,1.9-1.8,2.8l-0.2,0.2c2.1,0,4,0.5,5.8,1.6c0-0.2,0-0.2,0-0.2c0.3-1,0.5-1.9,0.8-2.9
	c0.3-1.6,0.8-3.1,1.1-4.7c0.2-1.1,0.3-2.1,0.6-3.2c0.2-0.6,0.2-1.3,0.3-1.9c0-0.5,0.2-1.1,0.2-1.6c0-0.5,0-1,0.2-1.5
	c0-0.8,0.2-1.5,0.2-2.3c0-0.5,0-0.8,0-1.3c0,0,0,0,0-0.2L84,8.4z"/>
<path class="st0" d="M78.2,6c0.5-0.6,1.1-1.1,1.6-1.8c0.8-0.8,1.6-1.6,2.6-2.3c0.3-0.2,0.5-0.3,0.8-0.5c0.2,0.2,0.2,0.3,0.3,0.5
	c0.2,0.6,0.3,1.3,0.5,1.9c0,0.6,0,1.1,0.2,1.8c0,0.2,0,0.2,0,0.3l2.9,0.5V6.3c0-0.3,0-0.5,0-0.8c0-0.8-0.2-1.5-0.3-2.3
	c-0.2-0.5-0.3-1.1-0.6-1.5c-0.2-0.2-0.3-0.5-0.6-0.5c-0.5,0-1-0.2-1.5-0.2c-0.3,0-0.5,0-0.8-0.2c-0.3,0-0.6,0-1,0
	c-0.2,0-0.2,0.2-0.3,0.2c-0.2,0-0.3,0.2-0.5,0.2c-0.8,0.5-1.5,1-2.1,1.6c-0.5,0.5-1,1.1-1.5,1.6c-0.6,0.6-1.1,1.5-1.8,2.3
	C76.1,7,75.9,7,75.8,7l2.1-0.5C77.9,6.3,78,6.2,78.2,6z"/>
</svg>
