<svg width="83" height="26" viewBox="0 0 83 26" fill="none" xmlns="http://www.w3.org/2000/svg">
<path d="M19.1225 7.45736C19.1225 12.6977 15.0539 16.3256 9.56127 16.3256H6.10294L5.28922 25.7985C5.28922 26 5.08578 26 4.88235 26H0.406863C0.203431 26 0 25.7984 0 25.5969L2.44118 0.20155C2.44118 0.20155 2.64461 0 2.84804 0H11.3922C16.0711 0 19.1225 2.82171 19.1225 7.45736ZM35.1936 19.1473H22.9877C23.598 20.9612 25.2255 21.969 27.4632 21.969C28.8873 21.969 30.3113 21.5659 31.5319 20.7597C31.7353 20.7597 31.9387 20.7597 31.9387 20.7597L33.5662 22.7752C33.5662 22.9767 33.5662 22.9767 33.5662 23.1783C31.9387 24.7907 29.4975 26 26.4461 26C21.9706 26 17.902 23.1783 17.902 17.7364C17.902 12.2946 22.3775 8.06202 27.6667 8.06202C32.1422 8.06202 37.0245 11.0853 35.3971 18.7442C35.6005 18.9457 35.3971 19.1473 35.1936 19.1473ZM77.1005 8.46512H81.7794C81.9828 8.46512 82.1863 8.66667 82.1863 8.86822L80.3554 25.5969C80.3554 25.7984 80.152 25.7985 79.9485 25.7985H75.2696C75.0662 25.7985 74.8627 25.5969 74.8627 25.3953L76.6936 8.66667C76.8971 8.46512 77.1005 8.46512 77.1005 8.46512ZM79.9485 0C78.3211 0 77.1005 1.2093 77.1005 2.82171C77.1005 4.43411 78.3211 5.64341 79.9485 5.64341C81.576 5.64341 82.7966 4.43411 82.7966 2.82171C82.7966 1.2093 81.576 0 79.9485 0ZM39.0588 8.86822H43.3309C43.5343 8.86822 43.7377 9.06977 43.7377 9.27132L43.5343 10.4806C45.1618 9.06977 47.6029 8.06202 49.4338 8.06202C52.8922 8.06202 54.5196 10.8837 53.9093 14.9147L53.0956 19.3488C52.8922 20.155 53.299 20.5581 54.1127 20.5581H54.3162C54.5196 20.5581 54.723 20.7597 54.723 20.9612L53.9093 25.1938C53.9093 25.3953 53.7059 25.5969 53.5024 25.5969H52.8922C48.8235 25.5969 46.9926 23.5814 47.8064 19.5504L48.4167 15.7209C48.8235 13.907 48.2132 12.6977 46.3824 12.6977C44.7549 12.6977 43.3309 13.907 42.924 16.3256L41.9069 25.7985H36.6176L38.652 9.27132C38.652 9.06977 38.8554 8.86822 39.0588 8.86822ZM57.9779 8.86822H62.25C62.4534 8.86822 62.6569 9.06977 62.6569 9.27132L62.4534 10.4806C64.0809 9.06977 66.5221 8.06202 68.5564 8.06202C72.0147 8.06202 73.6422 10.8837 73.0319 14.9147L72.2181 19.3488C72.0147 20.155 72.4216 20.5581 73.2353 20.5581H73.4387C73.6422 20.5581 73.8456 20.7597 73.8456 20.9612L73.0319 25.1938C73.0319 25.3953 72.8284 25.5969 72.625 25.5969H72.0147C67.9461 25.5969 66.1152 23.5814 66.9289 19.5504L67.5392 15.7209C67.9461 13.907 67.3358 12.6977 65.5049 12.6977C63.8775 12.6977 62.4534 13.907 62.0466 16.3256L61.0294 25.7985H55.7402L57.3676 9.27132C57.5711 9.06977 57.7745 8.86822 57.9779 8.86822Z" fill="url(#paint0_linear)"/>
<path d="M10.375 4.83716H7.32349L6.50977 11.4883H9.3578C11.5956 11.4883 13.6299 10.6821 13.6299 7.86041C13.6299 5.64336 12.4093 4.83716 10.375 4.83716Z" fill="white"/>
<path d="M23.1914 15.3179H31.3287C31.1252 13.3024 29.4978 12.2947 27.6669 12.2947C25.4292 12.2947 23.8017 13.7055 23.1914 15.3179Z" fill="white"/>
<defs>
<linearGradient id="paint0_linear" x1="0" y1="13.0329" x2="82.9024" y2="13.0329" gradientUnits="userSpaceOnUse">
<stop offset="0.0397032" stop-color="#7E80ED"/>
<stop offset="0.3451" stop-color="#7D84EC"/>
<stop offset="0.6568" stop-color="#7B90E8"/>
<stop offset="0.9706" stop-color="#77A5E1"/>
<stop offset="1" stop-color="#77A7E0"/>
</linearGradient>
</defs>
</svg>
