<?xml version="1.0" encoding="utf-8"?>
<!-- Generator: Adobe Illustrator 25.0.0, SVG Export Plug-In . SVG Version: 6.00 Build 0)  -->
<svg version="1.1" id="Layer_1" xmlns="http://www.w3.org/2000/svg" xmlns:xlink="http://www.w3.org/1999/xlink" x="0px" y="0px"
	 viewBox="0 0 300 150" style="enable-background:new 0 0 300 150;" xml:space="preserve">
<style type="text/css">
	.st0{clip-path:url(#SVGID_2_);}
	.st1{fill:#FFFFFF;}
	.st2{fill:none;stroke:#FFFFFF;stroke-width:0.2754;stroke-miterlimit:10;}
</style>
<g>
	<defs>
		<circle id="SVGID_1_" cx="49.9" cy="96.5" r="43.7"/>
	</defs>
	<clipPath id="SVGID_2_">
		<use xlink:href="#SVGID_1_"  style="overflow:visible;"/>
	</clipPath>
	<g class="st0">
		<circle class="st1" cx="-1.5" cy="41.2" r="0.4"/>
		<circle class="st1" cx="3.6" cy="41.2" r="0.4"/>
		<path class="st1" d="M9.2,41.2c0,0.2-0.2,0.4-0.4,0.4c-0.2,0-0.4-0.2-0.4-0.4s0.2-0.4,0.4-0.4C9,40.8,9.2,41,9.2,41.2z"/>
		<circle class="st1" cx="13.9" cy="41.2" r="0.4"/>
		<circle class="st1" cx="19.1" cy="41.2" r="0.4"/>
		<circle class="st1" cx="24.2" cy="41.2" r="0.4"/>
		<circle class="st1" cx="29.3" cy="41.2" r="0.4"/>
		<circle class="st1" cx="34.5" cy="41.2" r="0.4"/>
		<circle class="st1" cx="39.6" cy="41.2" r="0.4"/>
		<path class="st1" d="M45.2,41.2c0,0.2-0.2,0.4-0.4,0.4c-0.2,0-0.4-0.2-0.4-0.4s0.2-0.4,0.4-0.4C45,40.8,45.2,41,45.2,41.2z"/>
		<circle class="st1" cx="49.9" cy="41.2" r="0.4"/>
		<circle class="st1" cx="55.1" cy="41.2" r="0.4"/>
		<circle class="st1" cx="60.2" cy="41.2" r="0.4"/>
		<circle class="st1" cx="65.3" cy="41.2" r="0.4"/>
		<circle class="st1" cx="70.5" cy="41.2" r="0.4"/>
		<circle class="st1" cx="75.6" cy="41.2" r="0.4"/>
		<circle class="st1" cx="80.8" cy="41.2" r="0.4"/>
		<circle class="st1" cx="85.9" cy="41.2" r="0.4"/>
		<path class="st1" d="M91.5,41.2c0,0.2-0.2,0.4-0.4,0.4c-0.2,0-0.4-0.2-0.4-0.4s0.2-0.4,0.4-0.4C91.3,40.8,91.5,41,91.5,41.2z"/>
		<circle class="st1" cx="96.2" cy="41.2" r="0.4"/>
		<circle class="st1" cx="101.3" cy="41.2" r="0.4"/>
		<circle class="st1" cx="-1.5" cy="46.2" r="0.4"/>
		<circle class="st1" cx="3.6" cy="46.2" r="0.4"/>
		<path class="st1" d="M9.2,46.2c0,0.2-0.2,0.4-0.4,0.4c-0.2,0-0.4-0.2-0.4-0.4c0-0.2,0.2-0.4,0.4-0.4C9,45.8,9.2,46,9.2,46.2z"/>
		<circle class="st1" cx="13.9" cy="46.2" r="0.4"/>
		<circle class="st1" cx="19.1" cy="46.2" r="0.4"/>
		<circle class="st1" cx="24.2" cy="46.2" r="0.4"/>
		<circle class="st1" cx="29.3" cy="46.2" r="0.4"/>
		<circle class="st1" cx="34.5" cy="46.2" r="0.4"/>
		<circle class="st1" cx="39.6" cy="46.2" r="0.4"/>
		<path class="st1" d="M45.2,46.2c0,0.2-0.2,0.4-0.4,0.4c-0.2,0-0.4-0.2-0.4-0.4c0-0.2,0.2-0.4,0.4-0.4C45,45.8,45.2,46,45.2,46.2z"
			/>
		<circle class="st1" cx="49.9" cy="46.2" r="0.4"/>
		<circle class="st1" cx="55.1" cy="46.2" r="0.4"/>
		<circle class="st1" cx="60.2" cy="46.2" r="0.4"/>
		<circle class="st1" cx="65.3" cy="46.2" r="0.4"/>
		<circle class="st1" cx="70.5" cy="46.2" r="0.4"/>
		<circle class="st1" cx="75.6" cy="46.2" r="0.4"/>
		<circle class="st1" cx="80.8" cy="46.2" r="0.4"/>
		<circle class="st1" cx="85.9" cy="46.2" r="0.4"/>
		<path class="st1" d="M91.5,46.2c0,0.2-0.2,0.4-0.4,0.4c-0.2,0-0.4-0.2-0.4-0.4c0-0.2,0.2-0.4,0.4-0.4C91.3,45.8,91.5,46,91.5,46.2
			z"/>
		<circle class="st1" cx="96.2" cy="46.2" r="0.4"/>
		<circle class="st1" cx="101.3" cy="46.2" r="0.4"/>
		<circle class="st1" cx="-1.5" cy="51.3" r="0.4"/>
		<circle class="st1" cx="3.6" cy="51.3" r="0.4"/>
		<path class="st1" d="M9.2,51.3c0,0.2-0.2,0.4-0.4,0.4c-0.2,0-0.4-0.2-0.4-0.4c0-0.2,0.2-0.4,0.4-0.4C9,50.8,9.2,51,9.2,51.3z"/>
		<circle class="st1" cx="13.9" cy="51.3" r="0.4"/>
		<circle class="st1" cx="19.1" cy="51.3" r="0.4"/>
		<circle class="st1" cx="24.2" cy="51.3" r="0.4"/>
		<circle class="st1" cx="29.3" cy="51.3" r="0.4"/>
		<circle class="st1" cx="34.5" cy="51.3" r="0.4"/>
		<circle class="st1" cx="39.6" cy="51.3" r="0.4"/>
		<path class="st1" d="M45.2,51.3c0,0.2-0.2,0.4-0.4,0.4c-0.2,0-0.4-0.2-0.4-0.4c0-0.2,0.2-0.4,0.4-0.4C45,50.8,45.2,51,45.2,51.3z"
			/>
		<circle class="st1" cx="49.9" cy="51.3" r="0.4"/>
		<circle class="st1" cx="55.1" cy="51.3" r="0.4"/>
		<circle class="st1" cx="60.2" cy="51.3" r="0.4"/>
		<circle class="st1" cx="65.3" cy="51.3" r="0.4"/>
		<circle class="st1" cx="70.5" cy="51.3" r="0.4"/>
		<circle class="st1" cx="75.6" cy="51.3" r="0.4"/>
		<circle class="st1" cx="80.8" cy="51.3" r="0.4"/>
		<circle class="st1" cx="85.9" cy="51.3" r="0.4"/>
		<path class="st1" d="M91.5,51.3c0,0.2-0.2,0.4-0.4,0.4c-0.2,0-0.4-0.2-0.4-0.4c0-0.2,0.2-0.4,0.4-0.4C91.3,50.8,91.5,51,91.5,51.3
			z"/>
		<circle class="st1" cx="96.2" cy="51.3" r="0.4"/>
		<circle class="st1" cx="101.3" cy="51.3" r="0.4"/>
		<circle class="st1" cx="-1.5" cy="56.3" r="0.4"/>
		<circle class="st1" cx="3.6" cy="56.3" r="0.4"/>
		<path class="st1" d="M9.2,56.3c0,0.2-0.2,0.4-0.4,0.4c-0.2,0-0.4-0.2-0.4-0.4c0-0.2,0.2-0.4,0.4-0.4C9,55.8,9.2,56,9.2,56.3z"/>
		<circle class="st1" cx="13.9" cy="56.3" r="0.4"/>
		<circle class="st1" cx="19.1" cy="56.3" r="0.4"/>
		<circle class="st1" cx="24.2" cy="56.3" r="0.4"/>
		<circle class="st1" cx="29.3" cy="56.3" r="0.4"/>
		<circle class="st1" cx="34.5" cy="56.3" r="0.4"/>
		<circle class="st1" cx="39.6" cy="56.3" r="0.4"/>
		<path class="st1" d="M45.2,56.3c0,0.2-0.2,0.4-0.4,0.4c-0.2,0-0.4-0.2-0.4-0.4c0-0.2,0.2-0.4,0.4-0.4C45,55.8,45.2,56,45.2,56.3z"
			/>
		<circle class="st1" cx="49.9" cy="56.3" r="0.4"/>
		<circle class="st1" cx="55.1" cy="56.3" r="0.4"/>
		<circle class="st1" cx="60.2" cy="56.3" r="0.4"/>
		<circle class="st1" cx="65.3" cy="56.3" r="0.4"/>
		<circle class="st1" cx="70.5" cy="56.3" r="0.4"/>
		<circle class="st1" cx="75.6" cy="56.3" r="0.4"/>
		<circle class="st1" cx="80.8" cy="56.3" r="0.4"/>
		<circle class="st1" cx="85.9" cy="56.3" r="0.4"/>
		<path class="st1" d="M91.5,56.3c0,0.2-0.2,0.4-0.4,0.4c-0.2,0-0.4-0.2-0.4-0.4c0-0.2,0.2-0.4,0.4-0.4C91.3,55.8,91.5,56,91.5,56.3
			z"/>
		<circle class="st1" cx="96.2" cy="56.3" r="0.4"/>
		<circle class="st1" cx="101.3" cy="56.3" r="0.4"/>
		<circle class="st1" cx="-1.5" cy="61.3" r="0.4"/>
		<circle class="st1" cx="3.6" cy="61.3" r="0.4"/>
		<path class="st1" d="M9.2,61.3c0,0.2-0.2,0.4-0.4,0.4c-0.2,0-0.4-0.2-0.4-0.4c0-0.2,0.2-0.4,0.4-0.4C9,60.9,9.2,61.1,9.2,61.3z"/>
		<circle class="st1" cx="13.9" cy="61.3" r="0.4"/>
		<circle class="st1" cx="19.1" cy="61.3" r="0.4"/>
		<circle class="st1" cx="24.2" cy="61.3" r="0.4"/>
		<circle class="st1" cx="29.3" cy="61.3" r="0.4"/>
		<circle class="st1" cx="34.5" cy="61.3" r="0.4"/>
		<circle class="st1" cx="39.6" cy="61.3" r="0.4"/>
		<path class="st1" d="M45.2,61.3c0,0.2-0.2,0.4-0.4,0.4c-0.2,0-0.4-0.2-0.4-0.4c0-0.2,0.2-0.4,0.4-0.4C45,60.9,45.2,61.1,45.2,61.3
			z"/>
		<circle class="st1" cx="49.9" cy="61.3" r="0.4"/>
		<circle class="st1" cx="55.1" cy="61.3" r="0.4"/>
		<circle class="st1" cx="60.2" cy="61.3" r="0.4"/>
		<circle class="st1" cx="65.3" cy="61.3" r="0.4"/>
		<circle class="st1" cx="70.5" cy="61.3" r="0.4"/>
		<circle class="st1" cx="75.6" cy="61.3" r="0.4"/>
		<circle class="st1" cx="80.8" cy="61.3" r="0.4"/>
		<circle class="st1" cx="85.9" cy="61.3" r="0.4"/>
		<path class="st1" d="M91.5,61.3c0,0.2-0.2,0.4-0.4,0.4c-0.2,0-0.4-0.2-0.4-0.4c0-0.2,0.2-0.4,0.4-0.4
			C91.3,60.9,91.5,61.1,91.5,61.3z"/>
		<circle class="st1" cx="96.2" cy="61.3" r="0.4"/>
		<circle class="st1" cx="101.3" cy="61.3" r="0.4"/>
		<circle class="st1" cx="-1.5" cy="66.4" r="0.4"/>
		<circle class="st1" cx="3.6" cy="66.4" r="0.4"/>
		<path class="st1" d="M9.2,66.4c0,0.2-0.2,0.4-0.4,0.4c-0.2,0-0.4-0.2-0.4-0.4c0-0.2,0.2-0.4,0.4-0.4C9,65.9,9.2,66.1,9.2,66.4z"/>
		<circle class="st1" cx="13.9" cy="66.4" r="0.4"/>
		<circle class="st1" cx="19.1" cy="66.4" r="0.4"/>
		<circle class="st1" cx="24.2" cy="66.4" r="0.4"/>
		<circle class="st1" cx="29.3" cy="66.4" r="0.4"/>
		<circle class="st1" cx="34.5" cy="66.4" r="0.4"/>
		<circle class="st1" cx="39.6" cy="66.4" r="0.4"/>
		<path class="st1" d="M45.2,66.4c0,0.2-0.2,0.4-0.4,0.4c-0.2,0-0.4-0.2-0.4-0.4c0-0.2,0.2-0.4,0.4-0.4C45,65.9,45.2,66.1,45.2,66.4
			z"/>
		<circle class="st1" cx="49.9" cy="66.4" r="0.4"/>
		<circle class="st1" cx="55.1" cy="66.4" r="0.4"/>
		<circle class="st1" cx="60.2" cy="66.4" r="0.4"/>
		<circle class="st1" cx="65.3" cy="66.4" r="0.4"/>
		<circle class="st1" cx="70.5" cy="66.4" r="0.4"/>
		<circle class="st1" cx="75.6" cy="66.4" r="0.4"/>
		<circle class="st1" cx="80.8" cy="66.4" r="0.4"/>
		<circle class="st1" cx="85.9" cy="66.4" r="0.4"/>
		<path class="st1" d="M91.5,66.4c0,0.2-0.2,0.4-0.4,0.4c-0.2,0-0.4-0.2-0.4-0.4c0-0.2,0.2-0.4,0.4-0.4
			C91.3,65.9,91.5,66.1,91.5,66.4z"/>
		<circle class="st1" cx="96.2" cy="66.4" r="0.4"/>
		<circle class="st1" cx="101.3" cy="66.4" r="0.4"/>
		<circle class="st1" cx="-1.5" cy="71.4" r="0.4"/>
		<circle class="st1" cx="3.6" cy="71.4" r="0.4"/>
		<path class="st1" d="M9.2,71.4c0,0.2-0.2,0.4-0.4,0.4c-0.2,0-0.4-0.2-0.4-0.4c0-0.2,0.2-0.4,0.4-0.4C9,70.9,9.2,71.1,9.2,71.4z"/>
		<circle class="st1" cx="13.9" cy="71.4" r="0.4"/>
		<circle class="st1" cx="19.1" cy="71.4" r="0.4"/>
		<circle class="st1" cx="24.2" cy="71.4" r="0.4"/>
		<circle class="st1" cx="29.3" cy="71.4" r="0.4"/>
		<circle class="st1" cx="34.5" cy="71.4" r="0.4"/>
		<circle class="st1" cx="39.6" cy="71.4" r="0.4"/>
		<path class="st1" d="M45.2,71.4c0,0.2-0.2,0.4-0.4,0.4c-0.2,0-0.4-0.2-0.4-0.4c0-0.2,0.2-0.4,0.4-0.4C45,70.9,45.2,71.1,45.2,71.4
			z"/>
		<circle class="st1" cx="49.9" cy="71.4" r="0.4"/>
		<circle class="st1" cx="55.1" cy="71.4" r="0.4"/>
		<circle class="st1" cx="60.2" cy="71.4" r="0.4"/>
		<circle class="st1" cx="65.3" cy="71.4" r="0.4"/>
		<circle class="st1" cx="70.5" cy="71.4" r="0.4"/>
		<circle class="st1" cx="75.6" cy="71.4" r="0.4"/>
		<circle class="st1" cx="80.8" cy="71.4" r="0.4"/>
		<circle class="st1" cx="85.9" cy="71.4" r="0.4"/>
		<path class="st1" d="M91.5,71.4c0,0.2-0.2,0.4-0.4,0.4c-0.2,0-0.4-0.2-0.4-0.4c0-0.2,0.2-0.4,0.4-0.4
			C91.3,70.9,91.5,71.1,91.5,71.4z"/>
		<circle class="st1" cx="96.2" cy="71.4" r="0.4"/>
		<circle class="st1" cx="101.3" cy="71.4" r="0.4"/>
		<circle class="st1" cx="-1.5" cy="76.4" r="0.4"/>
		<circle class="st1" cx="3.6" cy="76.4" r="0.4"/>
		<path class="st1" d="M9.2,76.4c0,0.2-0.2,0.4-0.4,0.4c-0.2,0-0.4-0.2-0.4-0.4S8.5,76,8.8,76C9,76,9.2,76.2,9.2,76.4z"/>
		<circle class="st1" cx="13.9" cy="76.4" r="0.4"/>
		<circle class="st1" cx="19.1" cy="76.4" r="0.4"/>
		<circle class="st1" cx="24.2" cy="76.4" r="0.4"/>
		<circle class="st1" cx="29.3" cy="76.4" r="0.4"/>
		<circle class="st1" cx="34.5" cy="76.4" r="0.4"/>
		<circle class="st1" cx="39.6" cy="76.4" r="0.4"/>
		<path class="st1" d="M45.2,76.4c0,0.2-0.2,0.4-0.4,0.4c-0.2,0-0.4-0.2-0.4-0.4s0.2-0.4,0.4-0.4C45,76,45.2,76.2,45.2,76.4z"/>
		<circle class="st1" cx="49.9" cy="76.4" r="0.4"/>
		<circle class="st1" cx="55.1" cy="76.4" r="0.4"/>
		<circle class="st1" cx="60.2" cy="76.4" r="0.4"/>
		<circle class="st1" cx="65.3" cy="76.4" r="0.4"/>
		<circle class="st1" cx="70.5" cy="76.4" r="0.4"/>
		<circle class="st1" cx="75.6" cy="76.4" r="0.4"/>
		<circle class="st1" cx="80.8" cy="76.4" r="0.4"/>
		<circle class="st1" cx="85.9" cy="76.4" r="0.4"/>
		<path class="st1" d="M91.5,76.4c0,0.2-0.2,0.4-0.4,0.4c-0.2,0-0.4-0.2-0.4-0.4S90.8,76,91,76C91.3,76,91.5,76.2,91.5,76.4z"/>
		<circle class="st1" cx="96.2" cy="76.4" r="0.4"/>
		<circle class="st1" cx="101.3" cy="76.4" r="0.4"/>
		<circle class="st1" cx="-1.5" cy="81.4" r="0.4"/>
		<circle class="st1" cx="3.6" cy="81.4" r="0.4"/>
		<path class="st1" d="M9.2,81.4c0,0.2-0.2,0.4-0.4,0.4c-0.2,0-0.4-0.2-0.4-0.4S8.5,81,8.8,81C9,81,9.2,81.2,9.2,81.4z"/>
		<circle class="st1" cx="13.9" cy="81.4" r="0.4"/>
		<circle class="st1" cx="19.1" cy="81.4" r="0.4"/>
		<circle class="st1" cx="24.2" cy="81.4" r="0.4"/>
		<circle class="st1" cx="29.3" cy="81.4" r="0.4"/>
		<circle class="st1" cx="34.5" cy="81.4" r="0.4"/>
		<circle class="st1" cx="39.6" cy="81.4" r="0.4"/>
		<path class="st1" d="M45.2,81.4c0,0.2-0.2,0.4-0.4,0.4c-0.2,0-0.4-0.2-0.4-0.4s0.2-0.4,0.4-0.4C45,81,45.2,81.2,45.2,81.4z"/>
		<circle class="st1" cx="49.9" cy="81.4" r="0.4"/>
		<circle class="st1" cx="55.1" cy="81.4" r="0.4"/>
		<circle class="st1" cx="60.2" cy="81.4" r="0.4"/>
		<circle class="st1" cx="65.3" cy="81.4" r="0.4"/>
		<circle class="st1" cx="70.5" cy="81.4" r="0.4"/>
		<circle class="st1" cx="75.6" cy="81.4" r="0.4"/>
		<circle class="st1" cx="80.8" cy="81.4" r="0.4"/>
		<circle class="st1" cx="85.9" cy="81.4" r="0.4"/>
		<path class="st1" d="M91.5,81.4c0,0.2-0.2,0.4-0.4,0.4c-0.2,0-0.4-0.2-0.4-0.4S90.8,81,91,81C91.3,81,91.5,81.2,91.5,81.4z"/>
		<circle class="st1" cx="96.2" cy="81.4" r="0.4"/>
		<circle class="st1" cx="101.3" cy="81.4" r="0.4"/>
		<circle class="st1" cx="-1.5" cy="86.5" r="0.4"/>
		<circle class="st1" cx="3.6" cy="86.5" r="0.4"/>
		<path class="st1" d="M9.2,86.5c0,0.2-0.2,0.4-0.4,0.4c-0.2,0-0.4-0.2-0.4-0.4c0-0.2,0.2-0.4,0.4-0.4C9,86,9.2,86.2,9.2,86.5z"/>
		<circle class="st1" cx="13.9" cy="86.5" r="0.4"/>
		<circle class="st1" cx="19.1" cy="86.5" r="0.4"/>
		<circle class="st1" cx="24.2" cy="86.5" r="0.4"/>
		<circle class="st1" cx="29.3" cy="86.5" r="0.4"/>
		<circle class="st1" cx="34.5" cy="86.5" r="0.4"/>
		<circle class="st1" cx="39.6" cy="86.5" r="0.4"/>
		<path class="st1" d="M45.2,86.5c0,0.2-0.2,0.4-0.4,0.4c-0.2,0-0.4-0.2-0.4-0.4c0-0.2,0.2-0.4,0.4-0.4C45,86,45.2,86.2,45.2,86.5z"
			/>
		<circle class="st1" cx="49.9" cy="86.5" r="0.4"/>
		<circle class="st1" cx="55.1" cy="86.5" r="0.4"/>
		<circle class="st1" cx="60.2" cy="86.5" r="0.4"/>
		<circle class="st1" cx="65.3" cy="86.5" r="0.4"/>
		<circle class="st1" cx="70.5" cy="86.5" r="0.4"/>
		<circle class="st1" cx="75.6" cy="86.5" r="0.4"/>
		<circle class="st1" cx="80.8" cy="86.5" r="0.4"/>
		<circle class="st1" cx="85.9" cy="86.5" r="0.4"/>
		<path class="st1" d="M91.5,86.5c0,0.2-0.2,0.4-0.4,0.4c-0.2,0-0.4-0.2-0.4-0.4c0-0.2,0.2-0.4,0.4-0.4C91.3,86,91.5,86.2,91.5,86.5
			z"/>
		<circle class="st1" cx="96.2" cy="86.5" r="0.4"/>
		<circle class="st1" cx="101.3" cy="86.5" r="0.4"/>
		<circle class="st1" cx="-1.5" cy="91.5" r="0.4"/>
		<circle class="st1" cx="3.6" cy="91.5" r="0.4"/>
		<path class="st1" d="M9.2,91.5c0,0.2-0.2,0.4-0.4,0.4c-0.2,0-0.4-0.2-0.4-0.4c0-0.2,0.2-0.4,0.4-0.4C9,91.1,9.2,91.3,9.2,91.5z"/>
		<circle class="st1" cx="13.9" cy="91.5" r="0.4"/>
		<circle class="st1" cx="19.1" cy="91.5" r="0.4"/>
		<circle class="st1" cx="24.2" cy="91.5" r="0.4"/>
		<circle class="st1" cx="29.3" cy="91.5" r="0.4"/>
		<circle class="st1" cx="34.5" cy="91.5" r="0.4"/>
		<circle class="st1" cx="39.6" cy="91.5" r="0.4"/>
		<path class="st1" d="M45.2,91.5c0,0.2-0.2,0.4-0.4,0.4c-0.2,0-0.4-0.2-0.4-0.4c0-0.2,0.2-0.4,0.4-0.4C45,91.1,45.2,91.3,45.2,91.5
			z"/>
		<circle class="st1" cx="49.9" cy="91.5" r="0.4"/>
		<circle class="st1" cx="55.1" cy="91.5" r="0.4"/>
		<circle class="st1" cx="60.2" cy="91.5" r="0.4"/>
		<circle class="st1" cx="65.3" cy="91.5" r="0.4"/>
		<circle class="st1" cx="70.5" cy="91.5" r="0.4"/>
		<circle class="st1" cx="75.6" cy="91.5" r="0.4"/>
		<circle class="st1" cx="80.8" cy="91.5" r="0.4"/>
		<circle class="st1" cx="85.9" cy="91.5" r="0.4"/>
		<path class="st1" d="M91.5,91.5c0,0.2-0.2,0.4-0.4,0.4c-0.2,0-0.4-0.2-0.4-0.4c0-0.2,0.2-0.4,0.4-0.4
			C91.3,91.1,91.5,91.3,91.5,91.5z"/>
		<circle class="st1" cx="96.2" cy="91.5" r="0.4"/>
		<circle class="st1" cx="101.3" cy="91.5" r="0.4"/>
		<circle class="st1" cx="-1.5" cy="96.5" r="0.4"/>
		<circle class="st1" cx="3.6" cy="96.5" r="0.4"/>
		<path class="st1" d="M9.2,96.5C9.2,96.8,9,97,8.8,97c-0.2,0-0.4-0.2-0.4-0.4c0-0.2,0.2-0.4,0.4-0.4C9,96.1,9.2,96.3,9.2,96.5z"/>
		<circle class="st1" cx="13.9" cy="96.5" r="0.4"/>
		<circle class="st1" cx="19.1" cy="96.5" r="0.4"/>
		<circle class="st1" cx="24.2" cy="96.5" r="0.4"/>
		<circle class="st1" cx="29.3" cy="96.5" r="0.4"/>
		<circle class="st1" cx="34.5" cy="96.5" r="0.4"/>
		<circle class="st1" cx="39.6" cy="96.5" r="0.4"/>
		<path class="st1" d="M45.2,96.5c0,0.2-0.2,0.4-0.4,0.4c-0.2,0-0.4-0.2-0.4-0.4c0-0.2,0.2-0.4,0.4-0.4C45,96.1,45.2,96.3,45.2,96.5
			z"/>
		<circle class="st1" cx="49.9" cy="96.5" r="0.4"/>
		<circle class="st1" cx="55.1" cy="96.5" r="0.4"/>
		<circle class="st1" cx="60.2" cy="96.5" r="0.4"/>
		<circle class="st1" cx="65.3" cy="96.5" r="0.4"/>
		<circle class="st1" cx="70.5" cy="96.5" r="0.4"/>
		<circle class="st1" cx="75.6" cy="96.5" r="0.4"/>
		<circle class="st1" cx="80.8" cy="96.5" r="0.4"/>
		<circle class="st1" cx="85.9" cy="96.5" r="0.4"/>
		<path class="st1" d="M91.5,96.5c0,0.2-0.2,0.4-0.4,0.4c-0.2,0-0.4-0.2-0.4-0.4c0-0.2,0.2-0.4,0.4-0.4
			C91.3,96.1,91.5,96.3,91.5,96.5z"/>
		<circle class="st1" cx="96.2" cy="96.5" r="0.4"/>
		<circle class="st1" cx="101.3" cy="96.5" r="0.4"/>
		<circle class="st1" cx="-1.5" cy="101.6" r="0.4"/>
		<circle class="st1" cx="3.6" cy="101.6" r="0.4"/>
		<path class="st1" d="M9.2,101.6c0,0.2-0.2,0.4-0.4,0.4c-0.2,0-0.4-0.2-0.4-0.4c0-0.2,0.2-0.4,0.4-0.4C9,101.1,9.2,101.3,9.2,101.6
			z"/>
		<circle class="st1" cx="13.9" cy="101.6" r="0.4"/>
		<circle class="st1" cx="19.1" cy="101.6" r="0.4"/>
		<circle class="st1" cx="24.2" cy="101.6" r="0.4"/>
		<circle class="st1" cx="29.3" cy="101.6" r="0.4"/>
		<circle class="st1" cx="34.5" cy="101.6" r="0.4"/>
		<circle class="st1" cx="39.6" cy="101.6" r="0.4"/>
		<path class="st1" d="M45.2,101.6c0,0.2-0.2,0.4-0.4,0.4c-0.2,0-0.4-0.2-0.4-0.4c0-0.2,0.2-0.4,0.4-0.4
			C45,101.1,45.2,101.3,45.2,101.6z"/>
		<circle class="st1" cx="49.9" cy="101.6" r="0.4"/>
		<circle class="st1" cx="55.1" cy="101.6" r="0.4"/>
		<circle class="st1" cx="60.2" cy="101.6" r="0.4"/>
		<circle class="st1" cx="65.3" cy="101.6" r="0.4"/>
		<circle class="st1" cx="70.5" cy="101.6" r="0.4"/>
		<circle class="st1" cx="75.6" cy="101.6" r="0.4"/>
		<circle class="st1" cx="80.8" cy="101.6" r="0.4"/>
		<circle class="st1" cx="85.9" cy="101.6" r="0.4"/>
		<path class="st1" d="M91.5,101.6c0,0.2-0.2,0.4-0.4,0.4c-0.2,0-0.4-0.2-0.4-0.4c0-0.2,0.2-0.4,0.4-0.4
			C91.3,101.1,91.5,101.3,91.5,101.6z"/>
		<circle class="st1" cx="96.2" cy="101.6" r="0.4"/>
		<circle class="st1" cx="101.3" cy="101.6" r="0.4"/>
		<circle class="st1" cx="-1.5" cy="106.6" r="0.4"/>
		<circle class="st1" cx="3.6" cy="106.6" r="0.4"/>
		<path class="st1" d="M9.2,106.6c0,0.2-0.2,0.4-0.4,0.4c-0.2,0-0.4-0.2-0.4-0.4c0-0.2,0.2-0.4,0.4-0.4C9,106.1,9.2,106.3,9.2,106.6
			z"/>
		<circle class="st1" cx="13.9" cy="106.6" r="0.4"/>
		<circle class="st1" cx="19.1" cy="106.6" r="0.4"/>
		<circle class="st1" cx="24.2" cy="106.6" r="0.4"/>
		<circle class="st1" cx="29.3" cy="106.6" r="0.4"/>
		<circle class="st1" cx="34.5" cy="106.6" r="0.4"/>
		<circle class="st1" cx="39.6" cy="106.6" r="0.4"/>
		<path class="st1" d="M45.2,106.6c0,0.2-0.2,0.4-0.4,0.4c-0.2,0-0.4-0.2-0.4-0.4c0-0.2,0.2-0.4,0.4-0.4
			C45,106.1,45.2,106.3,45.2,106.6z"/>
		<circle class="st1" cx="49.9" cy="106.6" r="0.4"/>
		<circle class="st1" cx="55.1" cy="106.6" r="0.4"/>
		<circle class="st1" cx="60.2" cy="106.6" r="0.4"/>
		<circle class="st1" cx="65.3" cy="106.6" r="0.4"/>
		<circle class="st1" cx="70.5" cy="106.6" r="0.4"/>
		<circle class="st1" cx="75.6" cy="106.6" r="0.4"/>
		<circle class="st1" cx="80.8" cy="106.6" r="0.4"/>
		<circle class="st1" cx="85.9" cy="106.6" r="0.4"/>
		<path class="st1" d="M91.5,106.6c0,0.2-0.2,0.4-0.4,0.4c-0.2,0-0.4-0.2-0.4-0.4c0-0.2,0.2-0.4,0.4-0.4
			C91.3,106.1,91.5,106.3,91.5,106.6z"/>
		<circle class="st1" cx="96.2" cy="106.6" r="0.4"/>
		<circle class="st1" cx="101.3" cy="106.6" r="0.4"/>
		<circle class="st1" cx="-1.5" cy="111.6" r="0.4"/>
		<circle class="st1" cx="3.6" cy="111.6" r="0.4"/>
		<path class="st1" d="M9.2,111.6c0,0.2-0.2,0.4-0.4,0.4c-0.2,0-0.4-0.2-0.4-0.4c0-0.2,0.2-0.4,0.4-0.4C9,111.2,9.2,111.4,9.2,111.6
			z"/>
		<circle class="st1" cx="13.9" cy="111.6" r="0.4"/>
		<circle class="st1" cx="19.1" cy="111.6" r="0.4"/>
		<circle class="st1" cx="24.2" cy="111.6" r="0.4"/>
		<circle class="st1" cx="29.3" cy="111.6" r="0.4"/>
		<circle class="st1" cx="34.5" cy="111.6" r="0.4"/>
		<circle class="st1" cx="39.6" cy="111.6" r="0.4"/>
		<path class="st1" d="M45.2,111.6c0,0.2-0.2,0.4-0.4,0.4c-0.2,0-0.4-0.2-0.4-0.4c0-0.2,0.2-0.4,0.4-0.4
			C45,111.2,45.2,111.4,45.2,111.6z"/>
		<circle class="st1" cx="49.9" cy="111.6" r="0.4"/>
		<circle class="st1" cx="55.1" cy="111.6" r="0.4"/>
		<circle class="st1" cx="60.2" cy="111.6" r="0.4"/>
		<circle class="st1" cx="65.3" cy="111.6" r="0.4"/>
		<circle class="st1" cx="70.5" cy="111.6" r="0.4"/>
		<circle class="st1" cx="75.6" cy="111.6" r="0.4"/>
		<circle class="st1" cx="80.8" cy="111.6" r="0.4"/>
		<circle class="st1" cx="85.9" cy="111.6" r="0.4"/>
		<path class="st1" d="M91.5,111.6c0,0.2-0.2,0.4-0.4,0.4c-0.2,0-0.4-0.2-0.4-0.4c0-0.2,0.2-0.4,0.4-0.4
			C91.3,111.2,91.5,111.4,91.5,111.6z"/>
		<circle class="st1" cx="96.2" cy="111.6" r="0.4"/>
		<circle class="st1" cx="101.3" cy="111.6" r="0.4"/>
		<circle class="st1" cx="-1.5" cy="116.7" r="0.4"/>
		<circle class="st1" cx="3.6" cy="116.7" r="0.4"/>
		<path class="st1" d="M9.2,116.7c0,0.2-0.2,0.4-0.4,0.4c-0.2,0-0.4-0.2-0.4-0.4c0-0.2,0.2-0.4,0.4-0.4C9,116.2,9.2,116.4,9.2,116.7
			z"/>
		<circle class="st1" cx="13.9" cy="116.7" r="0.4"/>
		<circle class="st1" cx="19.1" cy="116.7" r="0.4"/>
		<circle class="st1" cx="24.2" cy="116.7" r="0.4"/>
		<circle class="st1" cx="29.3" cy="116.7" r="0.4"/>
		<circle class="st1" cx="34.5" cy="116.7" r="0.4"/>
		<circle class="st1" cx="39.6" cy="116.7" r="0.4"/>
		<path class="st1" d="M45.2,116.7c0,0.2-0.2,0.4-0.4,0.4c-0.2,0-0.4-0.2-0.4-0.4c0-0.2,0.2-0.4,0.4-0.4
			C45,116.2,45.2,116.4,45.2,116.7z"/>
		<circle class="st1" cx="49.9" cy="116.7" r="0.4"/>
		<circle class="st1" cx="55.1" cy="116.7" r="0.4"/>
		<circle class="st1" cx="60.2" cy="116.7" r="0.4"/>
		<circle class="st1" cx="65.3" cy="116.7" r="0.4"/>
		<circle class="st1" cx="70.5" cy="116.7" r="0.4"/>
		<circle class="st1" cx="75.6" cy="116.7" r="0.4"/>
		<circle class="st1" cx="80.8" cy="116.7" r="0.4"/>
		<circle class="st1" cx="85.9" cy="116.7" r="0.4"/>
		<path class="st1" d="M91.5,116.7c0,0.2-0.2,0.4-0.4,0.4c-0.2,0-0.4-0.2-0.4-0.4c0-0.2,0.2-0.4,0.4-0.4
			C91.3,116.2,91.5,116.4,91.5,116.7z"/>
		<circle class="st1" cx="96.2" cy="116.7" r="0.4"/>
		<circle class="st1" cx="101.3" cy="116.7" r="0.4"/>
		<circle class="st1" cx="-1.5" cy="121.7" r="0.4"/>
		<circle class="st1" cx="3.6" cy="121.7" r="0.4"/>
		<path class="st1" d="M9.2,121.7c0,0.2-0.2,0.4-0.4,0.4c-0.2,0-0.4-0.2-0.4-0.4c0-0.2,0.2-0.4,0.4-0.4C9,121.2,9.2,121.4,9.2,121.7
			z"/>
		<circle class="st1" cx="13.9" cy="121.7" r="0.4"/>
		<circle class="st1" cx="19.1" cy="121.7" r="0.4"/>
		<circle class="st1" cx="24.2" cy="121.7" r="0.4"/>
		<circle class="st1" cx="29.3" cy="121.7" r="0.4"/>
		<circle class="st1" cx="34.5" cy="121.7" r="0.4"/>
		<circle class="st1" cx="39.6" cy="121.7" r="0.4"/>
		<path class="st1" d="M45.2,121.7c0,0.2-0.2,0.4-0.4,0.4c-0.2,0-0.4-0.2-0.4-0.4c0-0.2,0.2-0.4,0.4-0.4
			C45,121.2,45.2,121.4,45.2,121.7z"/>
		<circle class="st1" cx="49.9" cy="121.7" r="0.4"/>
		<circle class="st1" cx="55.1" cy="121.7" r="0.4"/>
		<circle class="st1" cx="60.2" cy="121.7" r="0.4"/>
		<circle class="st1" cx="65.3" cy="121.7" r="0.4"/>
		<circle class="st1" cx="70.5" cy="121.7" r="0.4"/>
		<circle class="st1" cx="75.6" cy="121.7" r="0.4"/>
		<circle class="st1" cx="80.8" cy="121.7" r="0.4"/>
		<circle class="st1" cx="85.9" cy="121.7" r="0.4"/>
		<path class="st1" d="M91.5,121.7c0,0.2-0.2,0.4-0.4,0.4c-0.2,0-0.4-0.2-0.4-0.4c0-0.2,0.2-0.4,0.4-0.4
			C91.3,121.2,91.5,121.4,91.5,121.7z"/>
		<circle class="st1" cx="96.2" cy="121.7" r="0.4"/>
		<circle class="st1" cx="101.3" cy="121.7" r="0.4"/>
		<circle class="st1" cx="-1.5" cy="126.7" r="0.4"/>
		<circle class="st1" cx="3.6" cy="126.7" r="0.4"/>
		<path class="st1" d="M9.2,126.7c0,0.2-0.2,0.4-0.4,0.4c-0.2,0-0.4-0.2-0.4-0.4c0-0.2,0.2-0.4,0.4-0.4C9,126.3,9.2,126.5,9.2,126.7
			z"/>
		<circle class="st1" cx="13.9" cy="126.7" r="0.4"/>
		<circle class="st1" cx="19.1" cy="126.7" r="0.4"/>
		<circle class="st1" cx="24.2" cy="126.7" r="0.4"/>
		<circle class="st1" cx="29.3" cy="126.7" r="0.4"/>
		<circle class="st1" cx="34.5" cy="126.7" r="0.4"/>
		<circle class="st1" cx="39.6" cy="126.7" r="0.4"/>
		<path class="st1" d="M45.2,126.7c0,0.2-0.2,0.4-0.4,0.4c-0.2,0-0.4-0.2-0.4-0.4c0-0.2,0.2-0.4,0.4-0.4
			C45,126.3,45.2,126.5,45.2,126.7z"/>
		<circle class="st1" cx="49.9" cy="126.7" r="0.4"/>
		<circle class="st1" cx="55.1" cy="126.7" r="0.4"/>
		<circle class="st1" cx="60.2" cy="126.7" r="0.4"/>
		<circle class="st1" cx="65.3" cy="126.7" r="0.4"/>
		<circle class="st1" cx="70.5" cy="126.7" r="0.4"/>
		<circle class="st1" cx="75.6" cy="126.7" r="0.4"/>
		<circle class="st1" cx="80.8" cy="126.7" r="0.4"/>
		<circle class="st1" cx="85.9" cy="126.7" r="0.4"/>
		<path class="st1" d="M91.5,126.7c0,0.2-0.2,0.4-0.4,0.4c-0.2,0-0.4-0.2-0.4-0.4c0-0.2,0.2-0.4,0.4-0.4
			C91.3,126.3,91.5,126.5,91.5,126.7z"/>
		<circle class="st1" cx="96.2" cy="126.7" r="0.4"/>
		<circle class="st1" cx="101.3" cy="126.7" r="0.4"/>
		<circle class="st1" cx="-1.5" cy="131.7" r="0.4"/>
		<circle class="st1" cx="3.6" cy="131.7" r="0.4"/>
		<path class="st1" d="M9.2,131.7c0,0.2-0.2,0.4-0.4,0.4c-0.2,0-0.4-0.2-0.4-0.4c0-0.2,0.2-0.4,0.4-0.4C9,131.3,9.2,131.5,9.2,131.7
			z"/>
		<circle class="st1" cx="13.9" cy="131.7" r="0.4"/>
		<circle class="st1" cx="19.1" cy="131.7" r="0.4"/>
		<circle class="st1" cx="24.2" cy="131.7" r="0.4"/>
		<circle class="st1" cx="29.3" cy="131.7" r="0.4"/>
		<circle class="st1" cx="34.5" cy="131.7" r="0.4"/>
		<circle class="st1" cx="39.6" cy="131.7" r="0.4"/>
		<path class="st1" d="M45.2,131.7c0,0.2-0.2,0.4-0.4,0.4c-0.2,0-0.4-0.2-0.4-0.4c0-0.2,0.2-0.4,0.4-0.4
			C45,131.3,45.2,131.5,45.2,131.7z"/>
		<circle class="st1" cx="49.9" cy="131.7" r="0.4"/>
		<circle class="st1" cx="55.1" cy="131.7" r="0.4"/>
		<circle class="st1" cx="60.2" cy="131.7" r="0.4"/>
		<circle class="st1" cx="65.3" cy="131.7" r="0.4"/>
		<circle class="st1" cx="70.5" cy="131.7" r="0.4"/>
		<circle class="st1" cx="75.6" cy="131.7" r="0.4"/>
		<circle class="st1" cx="80.8" cy="131.7" r="0.4"/>
		<circle class="st1" cx="85.9" cy="131.7" r="0.4"/>
		<path class="st1" d="M91.5,131.7c0,0.2-0.2,0.4-0.4,0.4c-0.2,0-0.4-0.2-0.4-0.4c0-0.2,0.2-0.4,0.4-0.4
			C91.3,131.3,91.5,131.5,91.5,131.7z"/>
		<circle class="st1" cx="96.2" cy="131.7" r="0.4"/>
		<circle class="st1" cx="101.3" cy="131.7" r="0.4"/>
		<circle class="st1" cx="-1.5" cy="136.8" r="0.4"/>
		<circle class="st1" cx="3.6" cy="136.8" r="0.4"/>
		<path class="st1" d="M9.2,136.8c0,0.2-0.2,0.4-0.4,0.4c-0.2,0-0.4-0.2-0.4-0.4c0-0.2,0.2-0.4,0.4-0.4C9,136.3,9.2,136.5,9.2,136.8
			z"/>
		<circle class="st1" cx="13.9" cy="136.8" r="0.4"/>
		<circle class="st1" cx="19.1" cy="136.8" r="0.4"/>
		<circle class="st1" cx="24.2" cy="136.8" r="0.4"/>
		<circle class="st1" cx="29.3" cy="136.8" r="0.4"/>
		<circle class="st1" cx="34.5" cy="136.8" r="0.4"/>
		<circle class="st1" cx="39.6" cy="136.8" r="0.4"/>
		<path class="st1" d="M45.2,136.8c0,0.2-0.2,0.4-0.4,0.4c-0.2,0-0.4-0.2-0.4-0.4c0-0.2,0.2-0.4,0.4-0.4
			C45,136.3,45.2,136.5,45.2,136.8z"/>
		<circle class="st1" cx="49.9" cy="136.8" r="0.4"/>
		<circle class="st1" cx="55.1" cy="136.8" r="0.4"/>
		<circle class="st1" cx="60.2" cy="136.8" r="0.4"/>
		<circle class="st1" cx="65.3" cy="136.8" r="0.4"/>
		<circle class="st1" cx="70.5" cy="136.8" r="0.4"/>
		<circle class="st1" cx="75.6" cy="136.8" r="0.4"/>
		<circle class="st1" cx="80.8" cy="136.8" r="0.4"/>
		<circle class="st1" cx="85.9" cy="136.8" r="0.4"/>
		<path class="st1" d="M91.5,136.8c0,0.2-0.2,0.4-0.4,0.4c-0.2,0-0.4-0.2-0.4-0.4c0-0.2,0.2-0.4,0.4-0.4
			C91.3,136.3,91.5,136.5,91.5,136.8z"/>
		<circle class="st1" cx="96.2" cy="136.8" r="0.4"/>
		<circle class="st1" cx="101.3" cy="136.8" r="0.4"/>
		<circle class="st1" cx="-1.5" cy="141.8" r="0.4"/>
		<circle class="st1" cx="3.6" cy="141.8" r="0.4"/>
		<path class="st1" d="M9.2,141.8c0,0.2-0.2,0.4-0.4,0.4c-0.2,0-0.4-0.2-0.4-0.4c0-0.2,0.2-0.4,0.4-0.4C9,141.4,9.2,141.6,9.2,141.8
			z"/>
		<circle class="st1" cx="13.9" cy="141.8" r="0.4"/>
		<circle class="st1" cx="19.1" cy="141.8" r="0.4"/>
		<circle class="st1" cx="24.2" cy="141.8" r="0.4"/>
		<circle class="st1" cx="29.3" cy="141.8" r="0.4"/>
		<circle class="st1" cx="34.5" cy="141.8" r="0.4"/>
		<circle class="st1" cx="39.6" cy="141.8" r="0.4"/>
		<path class="st1" d="M45.2,141.8c0,0.2-0.2,0.4-0.4,0.4c-0.2,0-0.4-0.2-0.4-0.4c0-0.2,0.2-0.4,0.4-0.4
			C45,141.4,45.2,141.6,45.2,141.8z"/>
		<circle class="st1" cx="49.9" cy="141.8" r="0.4"/>
		<circle class="st1" cx="55.1" cy="141.8" r="0.4"/>
		<circle class="st1" cx="60.2" cy="141.8" r="0.4"/>
		<circle class="st1" cx="65.3" cy="141.8" r="0.4"/>
		<circle class="st1" cx="70.5" cy="141.8" r="0.4"/>
		<circle class="st1" cx="75.6" cy="141.8" r="0.4"/>
		<circle class="st1" cx="80.8" cy="141.8" r="0.4"/>
		<circle class="st1" cx="85.9" cy="141.8" r="0.4"/>
		<path class="st1" d="M91.5,141.8c0,0.2-0.2,0.4-0.4,0.4c-0.2,0-0.4-0.2-0.4-0.4c0-0.2,0.2-0.4,0.4-0.4
			C91.3,141.4,91.5,141.6,91.5,141.8z"/>
		<circle class="st1" cx="96.2" cy="141.8" r="0.4"/>
		<circle class="st1" cx="101.3" cy="141.8" r="0.4"/>
		<path class="st1" d="M-1.1,146.8c0,0.2-0.2,0.4-0.4,0.4c-0.2,0-0.4-0.2-0.4-0.4c0-0.2,0.2-0.4,0.4-0.4
			C-1.3,146.4-1.1,146.6-1.1,146.8z"/>
		<path class="st1" d="M4.1,146.8c0,0.2-0.2,0.4-0.4,0.4c-0.2,0-0.4-0.2-0.4-0.4c0-0.2,0.2-0.4,0.4-0.4
			C3.9,146.4,4.1,146.6,4.1,146.8z"/>
		<path class="st1" d="M9.2,146.8c0,0.2-0.2,0.4-0.4,0.4c-0.2,0-0.4-0.2-0.4-0.4c0-0.2,0.2-0.4,0.4-0.4C9,146.4,9.2,146.6,9.2,146.8
			z"/>
		<path class="st1" d="M14.4,146.8c0,0.2-0.2,0.4-0.4,0.4c-0.2,0-0.4-0.2-0.4-0.4c0-0.2,0.2-0.4,0.4-0.4
			C14.2,146.4,14.4,146.6,14.4,146.8z"/>
		<path class="st1" d="M19.5,146.8c0,0.2-0.2,0.4-0.4,0.4c-0.2,0-0.4-0.2-0.4-0.4c0-0.2,0.2-0.4,0.4-0.4
			C19.3,146.4,19.5,146.6,19.5,146.8z"/>
		<path class="st1" d="M24.6,146.8c0,0.2-0.2,0.4-0.4,0.4c-0.2,0-0.4-0.2-0.4-0.4c0-0.2,0.2-0.4,0.4-0.4
			C24.4,146.4,24.6,146.6,24.6,146.8z"/>
		<path class="st1" d="M29.8,146.8c0,0.2-0.2,0.4-0.4,0.4c-0.2,0-0.4-0.2-0.4-0.4c0-0.2,0.2-0.4,0.4-0.4
			C29.6,146.4,29.8,146.6,29.8,146.8z"/>
		<path class="st1" d="M34.9,146.8c0,0.2-0.2,0.4-0.4,0.4c-0.2,0-0.4-0.2-0.4-0.4c0-0.2,0.2-0.4,0.4-0.4
			C34.7,146.4,34.9,146.6,34.9,146.8z"/>
		<path class="st1" d="M40.1,146.8c0,0.2-0.2,0.4-0.4,0.4c-0.2,0-0.4-0.2-0.4-0.4c0-0.2,0.2-0.4,0.4-0.4
			C39.9,146.4,40.1,146.6,40.1,146.8z"/>
		<path class="st1" d="M45.2,146.8c0,0.2-0.2,0.4-0.4,0.4c-0.2,0-0.4-0.2-0.4-0.4c0-0.2,0.2-0.4,0.4-0.4
			C45,146.4,45.2,146.6,45.2,146.8z"/>
		<path class="st1" d="M50.4,146.8c0,0.2-0.2,0.4-0.4,0.4c-0.2,0-0.4-0.2-0.4-0.4c0-0.2,0.2-0.4,0.4-0.4
			C50.2,146.4,50.4,146.6,50.4,146.8z"/>
		<path class="st1" d="M55.5,146.8c0,0.2-0.2,0.4-0.4,0.4c-0.2,0-0.4-0.2-0.4-0.4c0-0.2,0.2-0.4,0.4-0.4
			C55.3,146.4,55.5,146.6,55.5,146.8z"/>
		<path class="st1" d="M60.6,146.8c0,0.2-0.2,0.4-0.4,0.4c-0.2,0-0.4-0.2-0.4-0.4c0-0.2,0.2-0.4,0.4-0.4
			C60.4,146.4,60.6,146.6,60.6,146.8z"/>
		<path class="st1" d="M65.8,146.8c0,0.2-0.2,0.4-0.4,0.4c-0.2,0-0.4-0.2-0.4-0.4c0-0.2,0.2-0.4,0.4-0.4
			C65.6,146.4,65.8,146.6,65.8,146.8z"/>
		<path class="st1" d="M70.9,146.8c0,0.2-0.2,0.4-0.4,0.4s-0.4-0.2-0.4-0.4c0-0.2,0.2-0.4,0.4-0.4S70.9,146.6,70.9,146.8z"/>
		<path class="st1" d="M76.1,146.8c0,0.2-0.2,0.4-0.4,0.4c-0.2,0-0.4-0.2-0.4-0.4c0-0.2,0.2-0.4,0.4-0.4
			C75.9,146.4,76.1,146.6,76.1,146.8z"/>
		<path class="st1" d="M81.2,146.8c0,0.2-0.2,0.4-0.4,0.4c-0.2,0-0.4-0.2-0.4-0.4c0-0.2,0.2-0.4,0.4-0.4
			C81,146.4,81.2,146.6,81.2,146.8z"/>
		<path class="st1" d="M86.4,146.8c0,0.2-0.2,0.4-0.4,0.4c-0.2,0-0.4-0.2-0.4-0.4c0-0.2,0.2-0.4,0.4-0.4
			C86.2,146.4,86.4,146.6,86.4,146.8z"/>
		<path class="st1" d="M91.5,146.8c0,0.2-0.2,0.4-0.4,0.4c-0.2,0-0.4-0.2-0.4-0.4c0-0.2,0.2-0.4,0.4-0.4
			C91.3,146.4,91.5,146.6,91.5,146.8z"/>
		<path class="st1" d="M96.6,146.8c0,0.2-0.2,0.4-0.4,0.4c-0.2,0-0.4-0.2-0.4-0.4c0-0.2,0.2-0.4,0.4-0.4
			C96.4,146.4,96.6,146.6,96.6,146.8z"/>
		<path class="st1" d="M101.8,146.8c0,0.2-0.2,0.4-0.4,0.4c-0.2,0-0.4-0.2-0.4-0.4c0-0.2,0.2-0.4,0.4-0.4
			C101.6,146.4,101.8,146.6,101.8,146.8z"/>
		<circle class="st1" cx="-1.5" cy="151.9" r="0.4"/>
		<circle class="st1" cx="3.6" cy="151.9" r="0.4"/>
		<path class="st1" d="M9.2,151.9c0,0.2-0.2,0.4-0.4,0.4c-0.2,0-0.4-0.2-0.4-0.4c0-0.2,0.2-0.4,0.4-0.4C9,151.4,9.2,151.6,9.2,151.9
			z"/>
		<circle class="st1" cx="13.9" cy="151.9" r="0.4"/>
		<circle class="st1" cx="19.1" cy="151.9" r="0.4"/>
		<circle class="st1" cx="24.2" cy="151.9" r="0.4"/>
		<circle class="st1" cx="29.3" cy="151.9" r="0.4"/>
		<circle class="st1" cx="34.5" cy="151.9" r="0.4"/>
		<circle class="st1" cx="39.6" cy="151.9" r="0.4"/>
		<path class="st1" d="M45.2,151.9c0,0.2-0.2,0.4-0.4,0.4c-0.2,0-0.4-0.2-0.4-0.4c0-0.2,0.2-0.4,0.4-0.4
			C45,151.4,45.2,151.6,45.2,151.9z"/>
		<circle class="st1" cx="49.9" cy="151.9" r="0.4"/>
		<circle class="st1" cx="55.1" cy="151.9" r="0.4"/>
		<circle class="st1" cx="60.2" cy="151.9" r="0.4"/>
		<circle class="st1" cx="65.3" cy="151.9" r="0.4"/>
		<circle class="st1" cx="70.5" cy="151.9" r="0.4"/>
		<circle class="st1" cx="75.6" cy="151.9" r="0.4"/>
		<circle class="st1" cx="80.8" cy="151.9" r="0.4"/>
		<circle class="st1" cx="85.9" cy="151.9" r="0.4"/>
		<path class="st1" d="M91.5,151.9c0,0.2-0.2,0.4-0.4,0.4c-0.2,0-0.4-0.2-0.4-0.4c0-0.2,0.2-0.4,0.4-0.4
			C91.3,151.4,91.5,151.6,91.5,151.9z"/>
		<circle class="st1" cx="96.2" cy="151.9" r="0.4"/>
		<circle class="st1" cx="101.3" cy="151.9" r="0.4"/>
	</g>
</g>
<circle class="st2" cx="261.1" cy="41.4" r="32.6"/>
</svg>
