<svg width="99" height="18" viewBox="0 0 99 18" fill="none" xmlns="http://www.w3.org/2000/svg">
<path d="M46.8784 0.379395C47.4884 0.379395 47.9458 0.379395 48.5558 0.379395C50.2331 0.379395 52.0629 0.379395 53.7403 0.379395C56.3325 0.532437 58.4673 1.45069 60.1447 3.28719C63.6518 7.41933 62.5844 14.9184 55.8751 16.7549C55.1126 16.9079 54.1977 17.061 53.4353 17.061C51.453 17.061 49.4707 17.061 47.3359 17.061C47.1834 17.061 47.0309 17.061 46.8784 17.061C46.8784 11.7045 46.8784 6.04195 46.8784 0.379395ZM49.7756 3.13415C49.7756 6.9602 49.7756 10.7863 49.7756 14.6123C51.453 14.6123 53.1303 14.7654 54.8077 14.3062C56.18 14.0001 57.2474 13.2349 58.0099 12.1636C58.7723 10.9393 59.0773 9.56192 58.9248 8.18454C58.6198 5.73587 57.0949 3.89936 54.6552 3.28719C53.1303 2.98111 51.453 3.13415 49.7756 3.13415Z" fill="#004062"/>
<path d="M0.980469 0.532471C4.94509 0.532471 8.75723 0.532471 12.7219 0.532471C12.7219 1.45072 12.7219 2.21593 12.7219 3.13419C9.82463 3.13419 6.9274 3.13419 4.03018 3.13419C4.03018 4.66461 4.03018 6.19503 4.03018 7.72545C6.62243 7.72545 9.0622 7.72545 11.6545 7.72545C11.6545 8.6437 11.6545 9.56196 11.6545 10.4802C9.0622 10.4802 6.62243 10.4802 4.03018 10.4802C4.03018 12.7758 4.03018 15.0715 4.03018 17.3671C2.96278 17.3671 2.04787 17.3671 1.13295 17.3671C0.980469 11.7045 0.980469 6.04199 0.980469 0.532471Z" fill="#004062"/>
<path d="M90.1846 10.0211C90.337 8.79673 89.8796 7.87848 88.6597 7.5724C87.2873 7.26631 86.0675 7.41935 84.6951 8.03152C84.5426 8.18457 84.3901 8.18456 84.0851 8.33761C83.7802 7.5724 83.4752 6.80719 83.0177 6.04198C83.7802 5.58285 84.5426 5.27676 85.4575 5.12372C86.9824 4.81764 88.3547 4.81764 89.7271 5.27676C91.5569 5.73589 92.6243 6.96023 92.7768 9.10282C92.9293 11.8576 92.7768 14.4593 92.7768 17.2141C91.8619 17.2141 90.947 17.2141 90.0321 17.2141C90.0321 16.908 90.0321 16.4488 90.0321 15.9897C89.8796 15.9897 89.8796 16.1428 89.7271 16.1428C89.1172 16.908 88.2022 17.3671 87.1348 17.5201C86.2199 17.6732 85.305 17.6732 84.3901 17.3671C82.7128 16.908 81.7979 15.5306 81.7979 13.8471C81.7979 12.1637 82.5603 10.7863 84.2376 10.1741C85.305 9.71499 86.3724 9.71498 87.5923 9.86803C88.6597 9.71498 89.4221 9.86803 90.1846 10.0211ZM90.1846 12.3167C89.2696 11.8576 87.1348 11.7045 86.3724 11.8576C85.915 12.0106 85.61 12.1637 85.305 12.4697C84.5426 13.235 84.5426 14.4593 85.61 14.9184C88.0498 16.2958 90.337 14.3062 90.1846 12.3167Z" fill="#004062"/>
<path d="M64.262 8.33761C63.9571 7.5724 63.6521 6.80719 63.1946 6.04198C63.9571 5.58285 64.7195 5.27676 65.6344 5.12372C67.0068 4.81764 68.5316 4.81764 69.904 5.27676C71.7338 5.73589 72.9537 7.11327 72.9537 9.10282C73.1062 11.7045 72.9537 14.4593 72.9537 17.061V17.2141C72.0388 17.2141 71.2764 17.2141 70.209 17.2141C70.209 16.7549 70.209 16.4488 70.209 15.9897C70.0565 16.1428 70.0565 16.1428 69.904 16.1428C69.2941 16.908 68.3791 17.3671 67.4642 17.5201C66.3968 17.6732 65.1769 17.6732 64.262 17.061C62.8897 16.4488 62.2797 15.5306 62.1272 14.0002C61.9748 11.7045 63.3471 10.0211 65.6344 9.71499C67.0068 9.56195 68.3791 9.71499 69.7515 10.0211C69.904 10.0211 70.0565 10.0211 70.209 10.1741C70.5139 9.10282 69.904 8.03152 68.6841 7.72544C67.3117 7.41935 66.0919 7.5724 64.7195 8.03152C64.7195 8.03152 64.567 8.18456 64.262 8.33761ZM70.3615 12.3167C69.4465 11.8576 67.3117 11.5515 66.3968 11.8576C65.9394 12.0106 65.4819 12.1637 65.1769 12.4697C64.4145 13.235 64.567 14.3063 65.4819 14.9184C66.5493 15.5306 67.6167 15.5306 68.6841 15.0715C69.7515 14.4593 70.209 13.541 70.3615 12.3167Z" fill="#004062"/>
<path d="M25.0732 15.8364C25.5307 15.2243 25.9882 14.6121 26.4456 13.9999C26.4456 13.9999 26.5981 13.8469 26.5981 13.6938C27.513 14.6121 28.7329 15.0712 29.9528 15.0712C30.2577 15.0712 30.5627 15.0712 30.8677 14.9182C31.6301 14.6121 31.7826 13.5408 31.0202 13.0817C30.5627 12.7756 30.1053 12.6225 29.6478 12.4695C28.7329 12.1634 27.818 11.8573 27.0556 11.3982C25.0732 10.1739 25.0732 7.11303 26.9031 5.88869C27.513 5.42956 28.123 5.12348 28.8854 5.12348C30.4102 4.97044 31.9351 5.12348 33.3075 6.04173C33.4599 6.04173 33.4599 6.19477 33.6124 6.19477L33.7649 6.34782C33.3075 6.95999 32.85 7.72519 32.3925 8.33736C31.6301 8.03128 31.0202 7.7252 30.4102 7.57215C29.9528 7.41911 29.4953 7.57215 29.1904 7.57215C28.7329 7.7252 28.4279 8.03128 28.2754 8.49041C28.123 8.94953 28.4279 9.40866 28.8854 9.71474C29.1904 9.86779 29.6478 10.0208 29.9528 10.1739C30.5627 10.3269 31.1727 10.633 31.9351 10.786C32.0876 10.786 32.2401 10.9391 32.545 11.0921C33.9174 11.7043 34.5273 12.7756 34.5273 14.153C34.5273 15.5303 33.7649 16.7547 32.3925 17.2138C29.6478 17.979 27.208 17.5199 25.0732 15.8364Z" fill="#004062"/>
<path d="M80.8831 14.7653C81.1881 15.5306 81.4931 16.1427 81.798 16.9079C81.3406 17.3671 80.7306 17.3671 80.2732 17.5201C79.5108 17.6731 78.7483 17.6731 77.9859 17.3671C76.6135 17.061 75.8511 15.9897 75.5461 14.6123C75.5461 14.1532 75.3936 13.694 75.3936 13.2349C75.3936 11.5515 75.3936 9.86799 75.3936 8.18453C75.3936 8.03149 75.3936 7.7254 75.3936 7.57236C74.7837 7.57236 74.3263 7.57236 73.7163 7.57236C73.7163 6.80715 73.7163 6.04194 73.7163 5.12369C74.1738 5.12369 74.7837 5.12369 75.2412 5.12369C75.2412 4.20544 75.2412 3.44023 75.2412 2.52197C76.1561 2.52197 77.071 2.52197 77.9859 2.52197C77.9859 3.28718 77.9859 4.20544 77.9859 4.97065C78.9008 4.97065 79.8157 4.97065 80.7306 4.97065C80.7306 5.73586 80.7306 6.50107 80.7306 7.41932C79.8157 7.41932 78.9008 7.41932 77.9859 7.41932C77.9859 7.7254 77.9859 7.87845 77.9859 8.03149C77.9859 9.71495 77.9859 11.3984 77.9859 13.0819V13.2349C77.9859 14.7653 78.9008 15.2245 80.2732 14.7653C80.5782 14.9184 80.7306 14.7653 80.8831 14.7653Z" fill="#004062"/>
<path d="M36.6622 7.57236C36.0523 7.57236 35.5948 7.57236 34.9849 7.57236C34.9849 6.80715 34.9849 6.04194 34.9849 5.12369C35.4423 5.12369 36.0523 5.12369 36.6622 5.12369C36.6622 4.20544 36.6622 3.44023 36.6622 2.52197C37.5771 2.52197 38.492 2.52197 39.4069 2.52197C39.4069 3.28718 39.4069 4.20544 39.4069 4.97065C40.3219 4.97065 41.2368 4.97065 42.1517 4.97065C42.1517 5.73586 42.1517 6.50107 42.1517 7.41932C41.2368 7.41932 40.4743 7.41932 39.5594 7.41932C39.5594 7.57236 39.5594 7.7254 39.5594 7.87845C39.5594 9.71495 39.5594 11.5515 39.5594 13.388C39.5594 13.541 39.5594 13.8471 39.7119 14.0001C39.8644 14.6123 40.1694 14.9184 40.7793 14.9184C41.2368 14.9184 41.6942 14.7653 42.3042 14.7653C42.4567 15.0714 42.6091 15.3775 42.7616 15.6836C42.9141 15.9897 43.0666 16.4488 43.2191 16.9079C42.7616 17.061 42.4567 17.214 42.1517 17.3671C41.2368 17.5201 40.4743 17.5201 39.5594 17.3671C38.0346 17.061 36.9672 15.8366 36.9672 14.1532C36.9672 12.1636 36.9672 10.3271 36.9672 8.33757C36.6622 8.18453 36.6622 7.87845 36.6622 7.57236Z" fill="#004062"/>
<path d="M24.7683 7.72546C24.4633 7.72546 24.1584 7.72546 24.0059 7.72546C22.0236 7.57242 20.9562 8.64371 20.9562 10.6333C20.9562 12.1637 20.9562 13.5411 20.9562 15.0715C20.9562 15.8367 20.9562 16.4489 20.9562 17.2141C20.0413 17.2141 19.1263 17.2141 18.2114 17.2141C18.2114 13.235 18.2114 9.25588 18.2114 5.27679C19.1263 5.27679 20.0413 5.27679 20.9562 5.27679C20.9562 5.73591 20.9562 6.19504 20.9562 6.65417C21.5661 6.042 22.0236 5.58287 22.786 5.27679C23.5484 4.9707 24.1584 4.9707 24.9208 4.9707C24.7683 5.88896 24.7683 6.80721 24.7683 7.72546Z" fill="#004062"/>
<path d="M16.3815 17.2139C15.4665 17.2139 14.5516 17.2139 13.6367 17.2139C13.6367 13.2348 13.6367 9.25571 13.6367 5.27661C14.5516 5.27661 15.4665 5.27661 16.3815 5.27661C16.3815 9.25571 16.3815 13.2348 16.3815 17.2139Z" fill="#004062"/>
<path d="M98.8764 17.2139C98.7239 17.2139 98.724 17.2139 98.5715 17.2139C98.5715 16.6017 98.5715 16.1426 98.5715 15.5304C98.5715 15.5304 98.5715 15.5304 98.419 15.5304C98.2665 16.1426 97.9615 16.6017 97.809 17.2139C97.6566 17.2139 97.5041 17.2139 97.3516 17.2139C97.1991 16.6017 96.8941 16.1426 96.7416 15.5304H96.5892C96.5892 15.9895 96.5892 16.6017 96.5892 17.2139C96.4367 17.2139 96.4367 17.2139 96.2842 17.2139C96.2842 16.4487 96.2842 15.8365 96.2842 15.0713C96.4367 15.0713 96.7416 15.0713 96.8941 15.0713C97.0466 15.6835 97.1991 16.1426 97.5041 16.9078C97.809 16.1426 97.9615 15.6835 98.114 15.0713C98.2665 15.0713 98.5715 15.0713 98.7239 15.0713C98.8764 15.6835 98.8764 16.4487 98.8764 17.2139Z" fill="#004062"/>
<path d="M95.2163 17.2139C95.0638 17.2139 94.9114 17.2139 94.7589 17.2139C94.7589 16.6017 94.7589 15.9895 94.7589 15.5304C94.6064 15.2243 94.1489 15.6835 94.1489 15.0713C94.7589 15.0713 95.3688 15.0713 95.9788 15.0713C95.9788 15.0713 95.9788 15.2243 95.9788 15.3774C95.6738 15.3774 95.5213 15.3774 95.2163 15.3774C95.2163 15.9895 95.2163 16.6017 95.2163 17.2139Z" fill="#004062"/>
</svg>
