<svg width="600" height="592" viewBox="0 0 600 592" fill="none" xmlns="http://www.w3.org/2000/svg">
<path fill-rule="evenodd" clip-rule="evenodd" d="M261.436 0.00634465C323.877 0.992223 305.655 123.607 360.399 153.658C430.633 192.211 552.848 112.841 593.146 182.089C629.456 244.484 504.352 292.895 481.224 361.281C458.596 428.189 513.461 517.846 462.91 567.174C413.594 615.297 330.34 576.179 261.436 575.749C193.111 575.323 109.35 613.718 61.7792 564.672C12.629 513.998 61.4695 428.126 50.5976 358.374C42.2874 305.056 -19.1509 254.611 6.01191 206.876C32.167 157.258 116.589 185.798 160.176 150.496C208.34 111.488 199.465 -0.972103 261.436 0.00634465Z" fill="#EDEDFF"/>
</svg>
