<svg width="683" height="646" viewBox="0 0 683 646" fill="none" xmlns="http://www.w3.org/2000/svg">
<path fill-rule="evenodd" clip-rule="evenodd" d="M350.228 2.67178C412.945 -14.0492 465.842 51.8045 520.649 86.5776C579.881 124.159 671.526 143.949 682.179 213.284C693.185 284.922 590.312 322.942 567.537 391.749C544.991 459.861 602.2 548.349 553.752 601.267C506.355 653.038 415.698 654.416 350.228 629.11C289.955 605.812 291.618 511.247 235.955 478.426C168.975 438.932 56.1885 495.537 13.4875 430.555C-25.5744 371.111 28.1733 286.034 73.5182 231.233C111.754 185.023 188.874 200.9 235.117 162.704C287.05 119.807 285.143 20.0243 350.228 2.67178Z" fill="#EDEDFF"/>
</svg>
