<svg width="92" height="29" viewBox="0 0 92 29" fill="none" xmlns="http://www.w3.org/2000/svg">
<path d="M43.7768 0.525391C43.7768 0.525391 42.7445 0.546922 42.1463 0.536851C42.1215 0.786976 41.8331 3.05354 41.5852 4.8768C41.3 6.56392 39.0402 19.0791 38.2745 22.8255C38.0731 23.9568 37.4499 27.1525 37.3911 27.4718C36.6719 27.5574 35.8225 27.6364 35.2677 27.6578C35.1933 27.6602 35.0692 27.6843 35.0104 27.6843V28.3331C35.0785 28.3303 35.4382 28.3579 35.6923 28.347C36.3031 28.3276 38.0359 28.2458 38.3643 28.2458C39.6105 28.2458 40.4414 28.3279 41.5945 28.3507C41.61 28.3507 41.9262 28.3495 42.0657 28.3319V27.6763C41.9695 27.6763 41.8424 27.6732 41.7681 27.6732C41.4425 27.6834 40.243 27.5917 39.6354 27.5092C39.7067 27.0805 40.7668 20.5989 41.2752 18.0069C42.2423 13.2093 42.912 9.80908 42.912 9.80908L43.0918 10.2312L50.7329 28.3754L52.1279 28.3825C52.1279 28.3825 52.9246 26.4177 53.87 24.214C53.8948 24.1618 53.9629 24.004 54.0591 23.7786C55.0511 21.4902 59.9674 9.87609 59.9674 9.87609C59.9674 9.87609 60.014 10.0852 60.0914 10.4592C60.5596 12.7355 62.1435 20.9393 62.4814 22.9185C62.6396 23.9367 62.7883 24.9694 62.8752 25.5744C63.0023 26.431 63.086 27.2696 63.086 27.5104C62.931 27.5175 61.3748 27.6578 60.7858 27.683C60.7021 27.6802 60.5441 27.688 60.5348 27.6895V28.3495C60.7455 28.3495 60.9501 28.3587 61.1547 28.3541C62.3575 28.3313 63.5138 28.2374 64.7165 28.238C66.068 28.2392 68.2597 28.3569 69.6639 28.3658C69.822 28.3658 70.1041 28.352 70.1041 28.352V27.6852C70.0235 27.6846 69.67 27.6673 69.5399 27.6572C68.9106 27.608 67.8505 27.5101 67.5808 27.4923C67.5808 27.4923 67.4072 26.534 67.1778 25.4271C66.2602 20.9994 63.647 7.54105 63.2472 4.22949C63.1108 3.09128 62.7233 0.535616 62.7233 0.535616L61.1517 0.535128C61.1517 0.535128 60.3487 2.83011 59.6172 4.92263C59.1181 6.35251 58.4392 8.11776 57.9215 9.47135C55.3673 16.1593 52.5029 22.3914 52.5029 22.3914C52.5029 22.3914 46.4148 7.91918 46.0924 7.08227C45.7669 6.24503 43.7768 0.525554 43.7768 0.525554V0.525391ZM0.0127095 0.531422L0.0260399 2.06108L0 5.78615L0.405068 5.77472L0.447437 2.46162C0.447437 2.46153 2.66853 2.44247 2.9558 2.44285L7.09754 2.44463L9.77057 2.45791L9.7749 25.4986L9.77553 27.4886L9.71911 27.4964C9.36325 27.5239 7.99403 27.6073 7.43791 27.6273C7.3133 27.6313 7.23364 27.6345 7.22 27.6329L7.22247 28.307C7.3229 28.312 7.59352 28.3185 7.62918 28.3173C8.94476 28.3002 10.725 28.1863 11.9873 28.1875C13.2698 28.1881 15.0745 28.3123 16.1914 28.3253C16.302 28.3259 16.4331 28.3151 16.5394 28.3151V27.6829L16.4009 27.6841C16.0451 27.6827 14.0769 27.5563 13.8732 27.5297C13.8649 27.2205 13.8283 25.7284 13.8283 25.6953L13.838 2.45545L15.873 2.45007L21.1828 2.45368L22.955 2.47781C22.9668 2.60396 23.0563 4.28216 23.0547 4.32786C23.0508 4.44986 23.1211 5.69999 23.1183 6.00758L23.5384 6.01252L23.5083 2.24482L23.5275 0.550039C21.9671 0.592347 17.9902 0.645589 11.8183 0.642352C6.52531 0.639114 1.42446 0.594884 0.0127723 0.53136L0.0127095 0.531422ZM24.733 0.537454L24.7395 1.19735C24.9491 1.20868 26.181 1.31727 26.4804 1.33185C26.7193 1.36101 27.0529 1.39083 27.2916 1.41387C27.2916 1.62514 27.2954 3.08302 27.2988 3.6584C27.3388 9.11198 27.3047 21.1649 27.2885 25.4295C27.2835 26.6626 27.2802 27.4572 27.2802 27.4572C27.1293 27.5023 26.7894 27.5193 26.4221 27.544C26.1082 27.5653 24.9829 27.6595 24.7317 27.6648V28.3248C24.8359 28.3248 25.0269 28.3466 25.1356 28.3457C26.4095 28.346 28.1803 28.1885 29.4851 28.1895C30.8038 28.1904 32.5645 28.3504 33.603 28.3506L33.5999 28.3512C33.6898 28.3526 33.9037 28.329 33.9936 28.3294V27.6697H33.9037C33.8634 27.661 32.5243 27.6048 32.1988 27.5711C32.0282 27.5604 31.2905 27.4967 31.2812 27.4723C31.2781 27.4594 31.275 27.2621 31.275 26.9331C31.2781 26.621 31.2781 26.1018 31.2781 25.5391C31.2812 21.2374 31.2936 8.46158 31.2967 3.57811C31.2967 2.6343 31.2998 1.86745 31.2998 1.45608C31.5881 1.43793 32.766 1.31523 33.1877 1.27818C33.2063 1.27635 33.7642 1.24436 33.9936 1.23053V0.542887C32.5522 0.542367 30.6448 0.65459 29.2381 0.653877C27.7668 0.652983 25.9544 0.538003 24.733 0.537462V0.537454ZM91.4424 0.556164C91.4424 0.556164 91.2905 0.556804 91.0084 0.55736C90.0443 0.561504 87.5769 0.579541 84.6909 0.595344C82.9177 0.605601 81.5321 0.619772 79.7063 0.618878C78.426 0.633834 76.6343 0.682993 75.5276 0.681012C73.7607 0.678148 72.3192 0.569659 71.535 0.566409C71.163 0.564778 70.9554 0.578732 70.853 0.572437C70.8592 0.581788 70.8592 1.22387 70.8592 1.22387C70.9274 1.23573 71.0638 1.25086 71.1909 1.248C71.6342 1.27771 72.4649 1.34456 72.8865 1.4C72.9703 1.41529 73.1128 1.43872 73.5096 1.48264C73.5066 1.62875 73.5282 3.28208 73.525 4.27543C73.525 5.19573 73.5157 25.7296 73.5157 25.7296C73.5157 25.7629 73.4693 27.381 73.4693 27.5116C72.7687 27.6311 71.4234 27.7046 70.9645 27.7065H70.8281V28.3596C70.8933 28.3593 71.194 28.371 71.3644 28.371C72.1054 28.3707 74.0149 28.2534 75.9647 28.2522C77.3317 28.251 78.8352 28.3018 80.3572 28.3234C82.2326 28.3494 84.1297 28.3506 85.8348 28.3748C88.6463 28.4143 90.9247 28.4177 91.6655 28.4186C91.6655 28.4186 91.7555 23.2232 91.7555 22.8045L91.3494 22.8091C91.3494 23.251 91.1851 24.8967 91.1789 24.9687C91.1262 25.5882 91.0704 26.2374 91.027 26.5573C91.027 26.5573 90.8287 26.5731 90.7325 26.5712C90.2706 26.5626 88.7951 26.616 88.7641 26.616L82.1831 26.6188L77.5611 26.5416L77.5301 25.2642L77.5271 15.3472C78.3516 15.3194 79.6101 15.2758 80.3758 15.2774C81.0268 15.2786 82.5612 15.2422 83.42 15.244C85.5061 15.2478 87.3599 15.2611 87.5086 15.2653C87.8527 15.2752 88.4913 15.2962 88.733 15.3111C88.7423 15.3984 88.7703 15.535 88.7734 15.5736C88.8974 16.3329 88.9656 16.8589 89.0493 17.6044C89.0617 17.6714 89.0679 17.7363 89.0772 17.7974H89.5514C89.5514 17.7974 89.5639 17.5309 89.5577 17.365C89.5484 16.7804 89.5112 15.6143 89.5112 14.3219C89.5081 13.4259 89.5607 12.0563 89.567 11.3976C89.57 11.2194 89.5484 11.0928 89.5484 11.0418L89.1143 11.0502C89.1113 11.1925 89.0772 11.4025 89.0772 11.4025C89.04 11.8935 88.9005 12.5212 88.7889 13.1832C88.7579 13.2657 88.7362 13.3809 88.7362 13.3809C88.6866 13.3975 87.3257 13.4698 87.2049 13.4689C87.1584 13.4686 85.1775 13.5239 85.1435 13.5239L77.5301 13.4955L77.5425 2.55989C77.5425 2.55992 78.5096 2.52589 78.7794 2.52734C79.8768 2.52752 81.6622 2.51758 83.4819 2.52012C86.1446 2.52333 88.73 2.53985 88.7362 2.54362C88.7516 2.55118 89.5391 2.56209 89.5546 2.57558C89.5732 2.59035 90.5589 2.61971 90.8008 2.62746C90.8008 2.62746 90.8194 2.70887 90.8317 2.81143C90.9402 3.96443 91.0301 5.33378 91.0704 5.81894L91.0735 6.0132L91.4796 6.01196C91.4796 5.30197 91.4424 3.12764 91.4362 1.74428C91.4331 1.29997 91.4424 0.938149 91.4424 0.732284V0.556164Z" fill="#C4C4C4"/>
</svg>
