<svg width="615" height="554" viewBox="0 0 615 554" fill="none" xmlns="http://www.w3.org/2000/svg">
<path fill-rule="evenodd" clip-rule="evenodd" d="M278.474 0.00268486C348.546 0.557541 376.003 94.0647 432.99 134.845C490.648 176.106 597.614 169.67 612.453 239.001C627.787 310.644 537.238 358.623 493.46 417.371C465.663 454.675 444.039 496.808 403.43 519.506C365.774 540.553 321.455 533.847 278.474 537.536C230.248 541.674 177.585 568.599 136.901 542.376C96.1131 516.085 103.388 454.991 82.4753 411.201C56.8131 357.466 -7.64494 316.233 0.748103 257.279C9.1371 198.354 78.5057 172.832 122.169 132.383C173.514 84.8196 208.486 -0.551499 278.474 0.00268486Z" fill="#EDEDFF"/>
</svg>
