<svg width="53" height="29" viewBox="0 0 53 29" fill="none" xmlns="http://www.w3.org/2000/svg">
<path d="M9.68611 0.619609V1.17517L10.2043 1.29376C11.0008 1.49194 11.1207 1.96791 11.439 3.47459L12.2681 7.71037L9.95704 20.0831L6.80951 4.53699C6.45045 2.83131 6.3313 1.56261 7.6068 1.28482L8.20415 1.16624V0.619609H0.761719V1.17517L1.51902 1.37417C2.27632 1.57235 2.59458 1.92892 3.11278 4.26895L8.17232 28.1022H9.47801L12.8646 10.0983L16.6185 28.1022H17.6549L22.5161 5.00565C23.0743 2.34966 23.3134 1.59428 24.2707 1.35062L25.0271 1.15162V0.619609H19.5596V1.17517L20.396 1.33356C21.5916 1.57154 21.8698 2.32448 21.3116 5.37846L18.3314 20.0831L15.312 4.53699C14.9856 2.99051 14.7938 1.56261 16.1093 1.32462L16.9857 1.16624V0.610675L9.68611 0.619609ZM45.1389 0.694334V1.2499L46.1344 1.48788C47.0101 1.68607 47.3691 2.00365 47.3691 3.11397V22.3475C47.3691 24.4886 47.3691 27.3046 45.1372 27.3046C43.8625 27.3046 42.8686 26.1943 42.9469 25.4405C43.0261 24.2116 45.178 24.2904 45.2972 22.3078C45.4171 20.927 44.5399 20.2772 43.6634 20.1659C42.4287 20.0075 40.9149 21.0382 40.8741 23.1005C40.835 25.7565 42.5879 28.1753 45.5746 28.1753C48.8797 28.1753 51.0422 25.9563 51.0422 21.7124L51.043 3.15295C51.043 2.04264 51.3221 1.68525 52.1186 1.48788L52.9893 1.24096V0.6854L45.1389 0.694334ZM31.7147 0.525391C28.3281 0.525391 26.4161 3.34139 26.4161 7.02891C26.4161 13.8898 35.3013 16.5466 35.3013 22.7334C35.3013 25.6679 34.0658 27.2932 32.2819 27.2932C29.6134 27.2932 27.6997 24.0825 27.2223 18.9662H26.625V28.008H27.1032C27.5014 26.7084 28.0196 26.5809 28.4578 26.5809C29.2151 26.5809 30.0108 28.1647 32.3219 28.1647C35.8676 28.1647 38.1779 25.1124 38.1795 20.9067C38.1795 12.6585 29.2943 10.636 29.2943 4.72705C29.2943 3.37875 29.6925 1.39691 31.6854 1.39691C34.5546 1.39691 35.7901 5.16403 36.2675 9.7247H36.8649V0.684588H36.3867C36.1875 1.55692 35.8293 1.95329 35.3111 1.95329C34.3947 1.95329 33.9238 0.526203 31.7253 0.526203L31.7147 0.525391ZM38.1289 8.30248V8.39995L38.1477 8.38858L38.1379 8.30736L38.1289 8.30248Z" fill="#C4C4C4"/>
</svg>
