<?xml version="1.0" encoding="utf-8"?>
<!-- Generator: Adobe Illustrator 25.0.0, SVG Export Plug-In . SVG Version: 6.00 Build 0)  -->
<svg version="1.1" id="Layer_1" xmlns="http://www.w3.org/2000/svg" xmlns:xlink="http://www.w3.org/1999/xlink" x="0px" y="0px"
	 viewBox="0 0 150 49.5" style="enable-background:new 0 0 150 49.5;" xml:space="preserve">
<style type="text/css">
	.st0{fill:#FFFFFF;}
</style>
<g>
	<g>
		<g>
			<path class="st0" d="M34.8,15.1c0,9.4-7.1,16-17,16h-6.1L10.4,48c0,0.3-0.3,0.5-0.5,0.5H1.5c-0.3,0-0.6-0.3-0.5-0.6L5.3,2.2
				c0-0.3,0.3-0.5,0.5-0.5h15.1C29.5,1.7,34.9,6.7,34.8,15.1z M19.2,10.4H14l-1.3,12h5.2c4.1,0,7.4-1.5,7.4-6.4
				C25.3,11.8,22.8,10.4,19.2,10.4z"/>
			<path class="st0" d="M63.7,35.9H41.9c1,3.4,4.1,5,8,5c2.5,0,5-0.6,7.3-2.2c0.2-0.2,0.6-0.1,0.7,0.1l2.9,3.7
				c0.2,0.2,0.2,0.5,0,0.7c-2.9,3-7.2,5.2-12.5,5.2c-8,0-15.1-5.2-15.1-14.9c0-9.9,7.8-17.5,17.3-17.5c8,0,16.7,5.6,13.6,19.3
				C64.2,35.7,63.9,35.9,63.7,35.9z M42.2,29.3h14.3c-0.4-3.7-3.4-5.3-6.7-5.3C46,23.9,43.4,26.1,42.2,29.3z"/>
			<g>
				<path class="st0" d="M138.2,16.7h8.2c0.3,0,0.6,0.3,0.5,0.6l-3.1,30.1c0,0.3-0.3,0.5-0.5,0.5h-8.2c-0.3,0-0.6-0.3-0.5-0.6
					l3.1-30.1C137.7,16.9,137.9,16.7,138.2,16.7z"/>
				<circle class="st0" cx="143.1" cy="6.9" r="5.2"/>
			</g>
		</g>
	</g>
	<g>
		<path class="st0" d="M70.4,17.5h7.7c0.4,0,0.8,0.4,0.7,0.8l-0.2,2.3c2.5-2.8,6.8-4.5,10.4-4.5c6.1,0,9.2,5,7.8,12.5l-1.4,8
			c-0.3,1.5,0.3,2.2,1.8,2.2h0.5c0.5,0,0.8,0.4,0.7,0.9l-1.4,7.7c-0.1,0.4-0.4,0.6-0.7,0.6h-1.2c-7.3,0-10.4-3.7-9.2-10.9l1.2-7
			c0.6-3.2-0.5-5.5-3.6-5.5c-3,0-5.4,2.1-6.2,6.5L75.8,48h-9.2l3.1-29.8C69.7,17.8,70,17.5,70.4,17.5z"/>
	</g>
	<g>
		<path class="st0" d="M104.1,17.5h7.7c0.4,0,0.8,0.4,0.7,0.8l-0.2,2.3c2.5-2.8,6.8-4.5,10.4-4.5c6.1,0,9.2,5,7.8,12.5l-1.4,8
			c-0.3,1.5,0.3,2.2,1.8,2.2h0.5c0.5,0,0.8,0.4,0.7,0.9l-1.4,7.7c-0.1,0.4-0.4,0.6-0.7,0.6H129c-7.3,0-10.4-3.7-9.2-10.9l1.2-7
			c0.6-3.2-0.5-5.5-3.6-5.5c-3,0-5.4,2.1-6.2,6.5L109.6,48h-9.2l3.1-29.8C103.4,17.8,103.8,17.5,104.1,17.5z"/>
	</g>
</g>
</svg>
